<svg width="100" height="100" viewBox="0 0 100 100" fill="none" xmlns="http://www.w3.org/2000/svg">
<mask id="mask0_7187_23107" style="mask-type:alpha" maskUnits="userSpaceOnUse" x="0" y="0" width="100" height="100">
<rect width="100" height="100" fill="white"/>
</mask>
<g mask="url(#mask0_7187_23107)">
<mask id="mask1_7187_23107" style="mask-type:alpha" maskUnits="userSpaceOnUse" x="1" y="8" width="99" height="92">
<path fill-rule="evenodd" clip-rule="evenodd" d="M31.5561 19.8934C23.2543 19.2952 17.6786 18.6973 10.3268 28.3084C-8.01402 52.2857 8.13371 78.3684 13.9551 86.993C24.4063 101.476 38.2356 104.351 51.493 90.1782C69.524 70.1681 77.2149 76.5569 77.2149 76.5569C79.2064 79.1035 86.7984 83.0116 88.8259 77.2334C90.7254 71.8198 89.1432 59.5934 94.4103 50.755C103.479 35.5372 102.359 8.16278 82.7458 8.16504C78.4122 8.16532 73.1736 9.50225 66.9452 12.6023C49.9914 21.0405 39.5195 20.4667 31.5561 19.8934Z" fill="white"/>
</mask>
<g mask="url(#mask1_7187_23107)">
<path fill-rule="evenodd" clip-rule="evenodd" d="M10.327 28.3084C24.7312 9.47738 32.6703 31.0368 66.9451 12.6026C101.22 -5.83183 104.247 34.4732 94.2406 50.9568C88.7828 59.9479 90.7253 71.8198 88.8258 77.2337C86.7983 83.0119 79.2065 79.1032 77.2148 76.5572C77.2148 76.5572 69.524 70.1681 51.4929 90.1782C38.2356 104.351 24.4062 101.476 13.955 86.993C8.13365 78.3684 -8.01429 52.286 10.327 28.3084Z" fill="#E8F4FF"/>
</g>
<path fill-rule="evenodd" clip-rule="evenodd" d="M13.481 45.2387C14.1785 44.5517 16.0324 42.2704 14.9946 38.2056C14.9946 38.2056 12.2337 40.5 13.0883 44.8438C12.7136 46.5699 11.5783 49.1773 10.1286 52.0511C10.3738 50.4188 10.3426 47.4174 7.66269 44.8395C7.66269 44.8395 6.11691 49.5024 9.6218 53.0422C8.19782 55.7919 6.54109 58.7149 5.02168 61.3013C5.73566 59.1102 6.34833 55.2484 3.88595 51.2964C3.88595 51.2964 0.494981 56.6621 4.08767 62.8788C3.80894 63.346 3.53821 63.7967 3.27811 64.2272C3.30422 64.3402 3.37997 64.6273 3.42649 64.8035C3.43854 64.8492 3.44863 64.8874 3.45539 64.9133C4.63686 62.9659 6.05853 60.571 7.46081 58.0826C8.36019 59.2107 11.5894 62.5559 16.076 59.1519C16.076 59.1519 12.6474 54.2868 7.94043 57.2262C9.48135 54.4578 10.9624 51.6245 12.0332 49.2034C12.7135 50.0081 14.7316 51.8753 17.487 49.7846C17.487 49.7846 15.3235 46.7147 12.3403 48.4935C12.8631 47.2555 13.2608 46.1468 13.481 45.2387ZM4.14069 67.296C5.78398 68.1837 8.53015 68.7443 11.4854 65.5303C11.4854 65.5303 7.68095 61.6716 3.52117 65.1654C3.61477 65.5417 4.09721 67.1988 4.14069 67.296Z" fill="#AAC6DA"/>
<path opacity="0.640671" fill-rule="evenodd" clip-rule="evenodd" d="M98.8997 36.4572C97.548 33.2724 94.7783 29.681 89.103 28.2935C89.103 28.2935 86.0728 38.8012 94.0862 45.6281C94.7125 46.1616 95.4063 46.6727 96.1743 47.1546C98.3954 41.4829 98.7365 37.5624 98.8997 36.4572Z" fill="#84B3E6"/>
<path opacity="0.763951" fill-rule="evenodd" clip-rule="evenodd" d="M92.9046 53.5257C90.7497 53.3838 87.2377 52.5204 85.1089 48.6861C85.1089 48.6861 91.0401 40.1362 96.857 44.2999C96.9943 46.9157 93.6464 51.5716 92.9046 53.5257Z" fill="#BED4EE"/>
<path opacity="0.802758" fill-rule="evenodd" clip-rule="evenodd" d="M93.2403 22.9188C93.7918 22.4431 95.2032 20.8934 94.6029 17.8711C94.6029 17.8711 92.5314 19.3392 92.936 22.5169C92.3751 21.7902 91.8589 21.2041 91.4152 20.8203C91.1951 20.0621 90.3354 17.8105 87.9255 18.0192C87.9255 18.0192 88.635 21.0873 91.1505 21.0819C92.0077 21.7783 93.1885 23.3524 94.4502 25.269C93.6331 24.7199 92.001 24.1346 90.0839 26.2013C90.0839 26.2013 92.2939 28.5543 94.8621 25.9022C96.0862 27.8053 97.3606 29.9702 98.4713 31.9251C97.471 30.8196 95.4927 29.3723 92.8241 30.9945C92.8241 30.9945 95.0325 35.2323 99.0675 32.9817C99.1076 33.0533 99.1475 33.1245 99.187 33.1953C99.1937 33.0584 99.1978 32.9699 99.2007 32.9054C99.2018 32.9047 99.2029 32.9041 99.2039 32.9035C99.2039 32.9035 99.203 32.9018 99.201 32.8984C99.2036 32.8414 99.2052 32.8035 99.2067 32.7665C99.209 32.7119 99.2112 32.6593 99.2163 32.5506C98.5766 31.4101 97.8646 30.1663 97.1268 28.9229C97.53 28.5959 98.4037 27.7661 98.9917 26.3287C98.8203 24.919 98.6284 23.6804 98.2586 22.1057C97.3789 23.254 96.3541 25.3033 96.7781 28.3385C95.5824 26.3463 94.339 24.3968 93.2403 22.9188Z" fill="#BED7EE"/>
<path opacity="0.113746" fill-rule="evenodd" clip-rule="evenodd" d="M31.443 63.8676C19.4901 60.1999 8.63384 65.5496 4.39996 68.1077C7.16523 76.5456 11.4878 83.338 13.9551 86.9933C24.4063 101.476 38.2356 104.351 51.493 90.1785C69.524 70.1684 77.2149 76.5572 77.2149 76.5572C79.2064 79.1038 86.7984 83.0119 88.8259 77.2338C90.7254 71.8201 89.1432 59.5938 94.4104 50.7554C83.256 61.1892 74.2761 77.012 31.443 63.8676Z" fill="url(#paint0_linear_7187_23107)"/>
<mask id="mask2_7187_23107" style="mask-type:alpha" maskUnits="userSpaceOnUse" x="16" y="0" width="54" height="18">
<path fill-rule="evenodd" clip-rule="evenodd" d="M16.8427 0.585938H69.1608V17.2507H16.8427V0.585938Z" fill="white"/>
</mask>
<g mask="url(#mask2_7187_23107)">
<path fill-rule="evenodd" clip-rule="evenodd" d="M19.0823 13.6309C32.6553 21.9582 68.8795 14.7761 69.158 3.65953C69.4182 -6.72875 51.8029 13.2698 39.8807 4.5988C27.4467 -4.44463 10.7516 8.51993 19.0823 13.6309Z" fill="#E8F4FF"/>
</g>
<mask id="mask3_7187_23107" style="mask-type:alpha" maskUnits="userSpaceOnUse" x="81" y="2" width="10" height="13">
<path fill-rule="evenodd" clip-rule="evenodd" d="M81.6073 8.91858C81.6073 12.2036 83.6137 14.8667 86.0888 14.8667C88.5634 14.8667 90.5701 12.2036 90.5701 8.91858C90.5701 5.63353 88.5634 2.9707 86.0888 2.9707C83.6137 2.9707 81.6073 5.63353 81.6073 8.91858Z" fill="white"/>
</mask>
<g mask="url(#mask3_7187_23107)">
<path fill-rule="evenodd" clip-rule="evenodd" d="M81.6073 8.91858C81.6073 12.2036 83.6137 14.8667 86.0888 14.8667C88.5634 14.8667 90.5701 12.2036 90.5701 8.91858C90.5701 5.63353 88.5634 2.9707 86.0888 2.9707C83.6137 2.9707 81.6073 5.63353 81.6073 8.91858Z" fill="#C4D4DB"/>
</g>
<mask id="mask4_7187_23107" style="mask-type:alpha" maskUnits="userSpaceOnUse" x="0" y="24" width="15" height="19">
<path fill-rule="evenodd" clip-rule="evenodd" d="M0.507874 33.6277C0.507874 38.6086 3.55016 42.6465 7.30288 42.6465C11.0556 42.6465 14.0979 38.6086 14.0979 33.6277C14.0979 28.6465 11.0556 24.6089 7.30288 24.6089C3.55016 24.6089 0.507874 28.6465 0.507874 33.6277Z" fill="white"/>
</mask>
<g mask="url(#mask4_7187_23107)">
<path fill-rule="evenodd" clip-rule="evenodd" d="M0.507874 33.6277C0.507874 38.6086 3.55016 42.6465 7.30288 42.6465C11.0556 42.6465 14.0979 38.6086 14.0979 33.6277C14.0979 28.6465 11.0556 24.6089 7.30288 24.6089C3.55016 24.6089 0.507874 28.6465 0.507874 33.6277Z" fill="#C4D4DB"/>
</g>
<ellipse cx="63.0039" cy="70.111" rx="28.8065" ry="3.58902" fill="#1D62AE"/>
<ellipse opacity="0.1" cx="61.5967" cy="70.1109" rx="26.7922" ry="1.68464" fill="black"/>
<path d="M76.4186 22.0439V26.0705H72.4691V69.9827H80.7116V27.7419V26.0705V22.0439H76.4186Z" fill="#107CB3"/>
<path d="M54.6675 49.0902V42.1768H49.6304V49.0902H47.7415V70.0586H56.4991V49.0902H54.6675Z" fill="#107CB3"/>
<rect x="48.7146" y="60.334" width="6.81152" height="9.80046" fill="#1D62AE"/>
<rect opacity="0.1" x="48.7146" y="60.334" width="1.08755" height="9.80046" fill="black"/>
<path d="M69.5498 19.8408V22.196H59.4756V19.8408H56.4991V70.1347H72.4691V19.8408H69.5498Z" fill="#1AC1F1"/>
<rect opacity="0.1" x="69.5498" y="19.8408" width="2.23234" height="2.35515" fill="black"/>
<rect opacity="0.1" x="56.4992" y="19.8408" width="2.23233" height="50.2938" fill="black"/>
<path d="M45.1085 34.1996V32.3003H43.6203V34.1996H40.93V70.1346H47.7415V34.1996H45.1085Z" fill="#1AC1F1"/>
<rect opacity="0.1" x="43.6203" y="32.3003" width="0.801353" height="1.89931" fill="black"/>
<rect opacity="0.1" x="40.93" y="34.1997" width="0.801357" height="35.935" fill="black"/>
<rect opacity="0.1" x="69.5498" y="39.2139" width="2.23234" height="30.9208" fill="black"/>
<rect opacity="0.1" x="45.6809" y="34.1997" width="2.06062" height="6.60961" fill="black"/>
<rect x="58.9604" y="26.2227" width="3.20542" height="1.82334" fill="#1D62AE"/>
<rect x="65.772" y="44.9878" width="3.20541" height="1.82335" fill="#1D62AE"/>
<rect x="58.9604" y="58.1309" width="3.20542" height="1.82333" fill="#1D62AE"/>
<rect x="42.7617" y="42.4048" width="3.20542" height="1.82334" fill="#1D62AE"/>
<rect x="50.5463" y="61.3979" width="3.20542" height="1.82334" fill="#FF8C02"/>
<rect opacity="0.1" x="49.4015" y="50.6855" width="5.49501" height="3.0389" fill="black"/>
<rect opacity="0.1" x="73.4421" y="29.5654" width="5.49501" height="3.0389" fill="black"/>
<rect opacity="0.1" x="73.4421" y="36.0229" width="5.49501" height="3.03889" fill="black"/>
<rect opacity="0.1" x="73.4421" y="42.4805" width="5.49501" height="3.03889" fill="black"/>
<rect opacity="0.1" x="73.4421" y="48.9385" width="5.49501" height="3.0389" fill="black"/>
<rect opacity="0.1" x="73.4421" y="55.396" width="5.49501" height="3.03891" fill="black"/>
<rect opacity="0.1" x="73.4421" y="61.8535" width="5.49501" height="3.03889" fill="black"/>
<path d="M82.6004 43.3161V35.0352H78.5936V43.3161H77.1626V70.1345H83.9742V43.3161H82.6004Z" fill="#1AC1F1"/>
<rect opacity="0.1" x="78.5937" y="35.0352" width="1.25926" height="8.28101" fill="black"/>
<rect opacity="0.1" x="77.1627" y="43.3164" width="1.25928" height="26.8183" fill="black"/>
<rect opacity="0.1" x="80.597" y="56.7637" width="3.37713" height="2.65903" fill="black"/>
<rect x="80.7115" y="52.813" width="3.20542" height="1.82334" fill="#1D62AE"/>
<mask id="mask5_7187_23107" style="mask-type:alpha" maskUnits="userSpaceOnUse" x="8" y="43" width="20" height="21">
<path fill-rule="evenodd" clip-rule="evenodd" d="M27.2773 47.0547L26.2905 60.0645L16.313 63.6488L8.47275 60.943C8.47275 60.943 8.29929 59.8258 8.18444 57.5097C8.06958 55.1939 8.51622 47.5969 8.51622 47.5969L21.5957 43.6992L27.2773 47.0547Z" fill="white"/>
</mask>
<g mask="url(#mask5_7187_23107)">
<path fill-rule="evenodd" clip-rule="evenodd" d="M27.2773 47.0547L26.2905 60.0645L16.313 63.6488L8.47275 60.943C8.47275 60.943 8.29929 59.8258 8.18444 57.5097C8.06958 55.1939 8.51622 47.5969 8.51622 47.5969L21.5957 43.6992L27.2773 47.0547Z" fill="url(#paint1_linear_7187_23107)"/>
</g>
<mask id="mask6_7187_23107" style="mask-type:alpha" maskUnits="userSpaceOnUse" x="15" y="45" width="13" height="19">
<path fill-rule="evenodd" clip-rule="evenodd" d="M24.4006 45.356L27.2773 47.0547L26.2905 60.0645L16.3279 63.6437L16.0747 62.6252L15.9128 50.8406L23.4417 45.0469L24.4006 45.356Z" fill="white"/>
</mask>
<g mask="url(#mask6_7187_23107)">
<path fill-rule="evenodd" clip-rule="evenodd" d="M24.4006 45.356L27.2773 47.0547L26.2905 60.0645L16.3279 63.6437L16.0747 62.6252L15.9128 50.8406L23.4417 45.0469L24.4006 45.356Z" fill="url(#paint2_linear_7187_23107)"/>
</g>
<mask id="mask7_7187_23107" style="mask-type:alpha" maskUnits="userSpaceOnUse" x="8" y="46" width="20" height="18">
<path fill-rule="evenodd" clip-rule="evenodd" d="M26.7049 46.7163L27.1522 48.7029L26.2905 60.0641L16.313 63.6484L8.47274 60.9429C8.47274 60.9429 8.43566 60.7013 8.3843 60.2166C8.38601 60.2248 8.48765 60.7633 8.75188 60.8159C9.01825 60.8688 15.7039 63.1314 15.8237 62.9903C15.9437 62.8488 16.0259 61.0082 16.0538 61.1278C16.0866 61.2661 16.1056 62.7637 16.2923 62.7637C16.4787 62.7637 17.8615 62.2832 17.8615 62.124C17.8615 61.965 16.8197 52.2182 16.8361 51.1938C16.8523 50.1694 18.6207 49.7884 18.6207 49.7884L19.9257 58.6415C19.9257 58.6415 19.9523 60.9751 20.5385 60.8334C21.1243 60.6923 24.922 59.5607 25.0609 58.9597C25.1996 58.3587 24.8003 55.4481 24.6669 53.4564C24.534 51.465 24.5872 48.495 24.2141 48.6367C23.8414 48.7779 21.5588 48.6885 21.5588 48.6885L23.0956 46.4094L25.8796 46.229L26.7049 46.7163Z" fill="white"/>
</mask>
<g mask="url(#mask7_7187_23107)">
<path fill-rule="evenodd" clip-rule="evenodd" d="M26.7049 46.7163L27.1522 48.7029L26.2905 60.0641L16.313 63.6484L8.47274 60.9429C8.47274 60.9429 8.43566 60.7013 8.3843 60.2166C8.38601 60.2248 8.48765 60.7633 8.75188 60.8159C9.01825 60.8688 15.7039 63.1314 15.8237 62.9903C15.9437 62.8488 16.0259 61.0082 16.0538 61.1278C16.0866 61.2661 16.1056 62.7637 16.2923 62.7637C16.4787 62.7637 17.8615 62.2832 17.8615 62.124C17.8615 61.965 16.8197 52.2182 16.8361 51.1938C16.8523 50.1694 18.6207 49.7884 18.6207 49.7884L19.9257 58.6415C19.9257 58.6415 19.9523 60.9751 20.5385 60.8334C21.1243 60.6923 24.922 59.5607 25.0609 58.9597C25.1996 58.3587 24.8003 55.4481 24.6669 53.4564C24.534 51.465 24.5872 48.495 24.2141 48.6367C23.8414 48.7779 21.5588 48.6885 21.5588 48.6885L23.0956 46.4094L25.8796 46.229L26.7049 46.7163Z" fill="url(#paint3_linear_7187_23107)"/>
</g>
<mask id="mask8_7187_23107" style="mask-type:alpha" maskUnits="userSpaceOnUse" x="8" y="46" width="19" height="6">
<path fill-rule="evenodd" clip-rule="evenodd" d="M26.0484 46.3287C26.1161 46.6477 26.212 47.3522 26.212 47.3522L15.9658 51.1939C13.6267 51.1744 9.71505 49.5221 8.44099 48.9556C8.48488 48.1311 8.51621 47.5966 8.51621 47.5966L11.967 46.5685L13.367 46.8236C13.367 46.8236 24.2075 46.2636 25.8021 46.1836L26.0484 46.3287Z" fill="white"/>
</mask>
<g mask="url(#mask8_7187_23107)">
<path fill-rule="evenodd" clip-rule="evenodd" d="M26.0484 46.3287C26.1161 46.6477 26.212 47.3522 26.212 47.3522L15.9658 51.1939C13.6267 51.1744 9.71505 49.5221 8.44099 48.9556C8.48488 48.1311 8.51621 47.5966 8.51621 47.5966L11.967 46.5685L13.367 46.8236C13.367 46.8236 24.2075 46.2636 25.8021 46.1836L26.0484 46.3287Z" fill="url(#paint4_linear_7187_23107)"/>
</g>
<mask id="mask9_7187_23107" style="mask-type:alpha" maskUnits="userSpaceOnUse" x="8" y="48" width="19" height="7">
<path fill-rule="evenodd" clip-rule="evenodd" d="M26.212 48.9724L15.7971 54.0633C15.7971 54.0633 13.6796 53.6739 11.6887 52.9408C10.8425 52.6294 8.30844 51.6593 8.30844 51.6593L8.33892 51.0583L15.1137 52.8673L26.0989 48.6367L26.212 48.9724Z" fill="white"/>
</mask>
<g mask="url(#mask9_7187_23107)">
<path fill-rule="evenodd" clip-rule="evenodd" d="M26.212 48.9724L15.7971 54.0633C15.7971 54.0633 13.6796 53.6739 11.6887 52.9408C10.8425 52.6294 8.30844 51.6593 8.30844 51.6593L8.33892 51.0583L15.1137 52.8673L26.0989 48.6367L26.212 48.9724Z" fill="url(#paint5_linear_7187_23107)"/>
</g>
<mask id="mask10_7187_23107" style="mask-type:alpha" maskUnits="userSpaceOnUse" x="8" y="52" width="19" height="6">
<path fill-rule="evenodd" clip-rule="evenodd" d="M26.212 52.2782L16.0747 57.6873C16.0747 57.6873 13.6261 57.2226 12.2813 56.8745C11.1892 56.5916 8.17122 55.449 8.17122 55.449L8.1987 54.5689L15.9481 56.403L25.981 52.2075L26.212 52.2782Z" fill="white"/>
</mask>
<g mask="url(#mask10_7187_23107)">
<path fill-rule="evenodd" clip-rule="evenodd" d="M26.212 52.2782L16.0747 57.6873C16.0747 57.6873 13.6261 57.2226 12.2813 56.8745C11.1892 56.5916 8.17122 55.449 8.17122 55.449L8.1987 54.5689L15.9481 56.403L25.981 52.2075L26.212 52.2782Z" fill="url(#paint6_linear_7187_23107)"/>
</g>
<mask id="mask11_7187_23107" style="mask-type:alpha" maskUnits="userSpaceOnUse" x="8" y="46" width="17" height="5">
<path fill-rule="evenodd" clip-rule="evenodd" d="M24.4197 47.5857L15.9571 50.4751C12.1481 50.1216 8.02376 47.0543 8.02376 47.0543L10.5231 46.4799L18.3066 46.2915L24.4197 47.5857Z" fill="white"/>
</mask>
<g mask="url(#mask11_7187_23107)">
<path fill-rule="evenodd" clip-rule="evenodd" d="M24.4197 47.5857L15.9571 50.4751C12.1481 50.1216 8.02376 47.0543 8.02376 47.0543L10.5231 46.4799L18.3066 46.2915L24.4197 47.5857Z" fill="url(#paint7_linear_7187_23107)"/>
</g>
<mask id="mask12_7187_23107" style="mask-type:alpha" maskUnits="userSpaceOnUse" x="26" y="55" width="3" height="7">
<path fill-rule="evenodd" clip-rule="evenodd" d="M28.5025 60.1502L27.2419 61.635L26.1453 60.4095V56.3614L26.3318 55.9725L28.7708 55.2114L28.5025 60.1502Z" fill="white"/>
</mask>
<g mask="url(#mask12_7187_23107)">
<path fill-rule="evenodd" clip-rule="evenodd" d="M28.5025 60.1502L27.2419 61.635L26.1453 60.4095V56.3614L26.3318 55.9725L28.7708 55.2114L28.5025 60.1502Z" fill="url(#paint8_linear_7187_23107)"/>
</g>
<mask id="mask13_7187_23107" style="mask-type:alpha" maskUnits="userSpaceOnUse" x="20" y="40" width="10" height="17">
<path fill-rule="evenodd" clip-rule="evenodd" d="M28.7702 41.0545C28.7702 41.0545 29.6579 41.6847 29.7073 43.4209C29.757 45.1575 29.4738 53.1494 29.7073 55.8719C29.7073 55.8719 29.2758 56.1946 27.81 56.4497C26.397 56.696 26.0158 56.5275 26.0158 56.5275C26.0158 56.5275 25.6081 50.6285 25.9278 47.0459C25.9278 47.0459 21.0165 48.571 20.5954 48.5155C20.1746 48.4598 20.5954 41.2367 20.5954 41.2367C20.5954 41.2367 23.3002 40.3636 25.7944 40.3633C26.9178 40.3633 27.9984 40.5406 28.7702 41.0545Z" fill="white"/>
</mask>
<g mask="url(#mask13_7187_23107)">
<path fill-rule="evenodd" clip-rule="evenodd" d="M28.7702 41.0545C28.7702 41.0545 29.6579 41.6847 29.7073 43.4209C29.757 45.1575 29.4738 53.1494 29.7073 55.8719C29.7073 55.8719 29.2758 56.1946 27.81 56.4497C26.397 56.696 26.0158 56.5275 26.0158 56.5275C26.0158 56.5275 25.6081 50.6285 25.9278 47.0459C25.9278 47.0459 21.0165 48.571 20.5954 48.5155C20.1746 48.4598 20.5954 41.2367 20.5954 41.2367C20.5954 41.2367 23.3002 40.3636 25.7944 40.3633C26.9178 40.3633 27.9984 40.5406 28.7702 41.0545Z" fill="url(#paint9_linear_7187_23107)"/>
</g>
<mask id="mask14_7187_23107" style="mask-type:alpha" maskUnits="userSpaceOnUse" x="25" y="59" width="8" height="7">
<path fill-rule="evenodd" clip-rule="evenodd" d="M29.4749 60.7806C29.7235 61.417 31.007 63.2706 32.3522 64.1013C33.6972 64.9322 32.3139 66.048 30.8073 65.8336C29.3006 65.6192 28.2652 64.2452 28.0414 64.1304C28.0414 64.1304 27.9323 64.5094 27.676 64.4752C27.42 64.4404 25.9629 63.845 25.8566 63.6567C25.7501 63.468 25.7575 62.5522 25.8374 62.0977C25.9171 61.6429 25.6733 60.0642 26.1986 60.2859C26.1986 60.2859 26.9419 61.1961 27.198 60.8968C27.4541 60.5979 27.455 59.5183 28.2362 59.4004C28.285 59.393 28.3316 59.3896 28.376 59.3896C29.0438 59.3896 29.242 60.1841 29.4749 60.7806Z" fill="white"/>
</mask>
<g mask="url(#mask14_7187_23107)">
<path fill-rule="evenodd" clip-rule="evenodd" d="M29.4749 60.7806C29.7235 61.417 31.007 63.2706 32.3522 64.1013C33.6972 64.9322 32.3139 66.048 30.8073 65.8336C29.3006 65.6192 28.2652 64.2452 28.0414 64.1304C28.0414 64.1304 27.9323 64.5094 27.676 64.4752C27.42 64.4404 25.9629 63.845 25.8566 63.6567C25.7501 63.468 25.7575 62.5522 25.8374 62.0977C25.9171 61.6429 25.6733 60.0642 26.1986 60.2859C26.1986 60.2859 26.9419 61.1961 27.198 60.8968C27.4541 60.5979 27.455 59.5183 28.2362 59.4004C28.285 59.393 28.3316 59.3896 28.376 59.3896C29.0438 59.3896 29.242 60.1841 29.4749 60.7806Z" fill="url(#paint10_linear_7187_23107)"/>
</g>
<mask id="mask15_7187_23107" style="mask-type:alpha" maskUnits="userSpaceOnUse" x="18" y="56" width="4" height="8">
<path fill-rule="evenodd" clip-rule="evenodd" d="M20.9289 61.7864L19.7158 63.3394L18.5819 62.1756L18.4551 58.1309L18.629 57.7321L21.0425 56.8369L20.9289 61.7864Z" fill="white"/>
</mask>
<g mask="url(#mask15_7187_23107)">
<path fill-rule="evenodd" clip-rule="evenodd" d="M20.9289 61.7864L19.7158 63.3394L18.5819 62.1756L18.4551 58.1309L18.629 57.7321L21.0425 56.8369L20.9289 61.7864Z" fill="url(#paint11_linear_7187_23107)"/>
</g>
<mask id="mask16_7187_23107" style="mask-type:alpha" maskUnits="userSpaceOnUse" x="9" y="38" width="14" height="22">
<path fill-rule="evenodd" clip-rule="evenodd" d="M16.3389 40.2557C16.3389 40.2557 20.4228 39.5509 22.1987 41.8135C22.1987 41.8135 22.5243 42.468 22.2995 44.4506C22.0745 46.4332 21.8701 56.8718 22.1367 59.4006C22.1367 59.4006 19.1975 60.2788 18.3987 59.1133C18.3987 59.1133 17.717 49.5497 17.8625 48.4393C17.8625 48.4393 13.9956 50.0288 11.4377 48.1302C9.34235 46.5746 9.46659 42.5678 10.4739 39.8603C10.7566 39.1 11.4029 38.8345 12.1673 38.8345C13.9364 38.8345 16.3389 40.2557 16.3389 40.2557Z" fill="white"/>
</mask>
<g mask="url(#mask16_7187_23107)">
<path fill-rule="evenodd" clip-rule="evenodd" d="M16.3389 40.2557C16.3389 40.2557 20.4228 39.5509 22.1987 41.8135C22.1987 41.8135 22.5243 42.468 22.2995 44.4506C22.0745 46.4332 21.8701 56.8718 22.1367 59.4006C22.1367 59.4006 19.1975 60.2788 18.3987 59.1133C18.3987 59.1133 17.717 49.5497 17.8625 48.4393C17.8625 48.4393 13.9956 50.0288 11.4377 48.1302C9.34235 46.5746 9.46659 42.5678 10.4739 39.8603C10.7566 39.1 11.4029 38.8345 12.1673 38.8345C13.9364 38.8345 16.3389 40.2557 16.3389 40.2557Z" fill="url(#paint12_linear_7187_23107)"/>
</g>
<path fill-rule="evenodd" clip-rule="evenodd" d="M18.292 14.945L18.7894 14.8508C18.7894 14.8508 20.565 13.248 19.4286 11.2447C18.292 9.24118 16.9781 10.3255 16.6052 10.9854C16.2323 11.6452 14.9537 10.7026 14.5453 11.6452C14.1368 12.5882 12.8761 11.0561 12.6451 14.5207C12.4144 17.9854 13.6752 18.9518 13.6752 18.9518L14.5629 18.3154L18.292 14.945Z" fill="#303D5C"/>
<path fill-rule="evenodd" clip-rule="evenodd" d="M21.0185 8.99478C21.4849 9.07061 21.7558 9.4235 21.7981 10.0188C21.8916 11.3556 20.7833 13.7296 19.5596 14.2363C19.0429 14.4503 18.5481 14.5594 18.1115 14.6537C17.4631 14.7937 16.9498 14.9031 16.7455 15.3096C16.6543 15.4935 16.6294 15.7329 16.672 16.0349C16.4577 15.8329 15.8128 15.3202 15.2965 16.0614C14.7691 16.8224 15.086 17.6214 15.1957 17.8475C15.0194 17.8621 14.4436 17.8808 13.8377 17.5707C12.6284 16.9503 12.2248 15.5098 12.0985 14.4137C11.9962 13.5235 12.1116 12.7969 12.4394 12.2588C12.8882 11.5205 13.6931 11.1942 14.5165 11.0295C14.9817 10.9363 15.453 10.8941 15.8677 10.8594C16.2018 10.8304 16.5202 10.8012 16.7656 10.7524C17.359 10.6338 17.8675 10.2801 18.4054 9.90719C19.1686 9.37854 19.956 8.83121 21.0185 8.99478Z" fill="#303D5C"/>
<mask id="mask17_7187_23107" style="mask-type:alpha" maskUnits="userSpaceOnUse" x="13" y="13" width="6" height="10">
<path fill-rule="evenodd" clip-rule="evenodd" d="M18.7895 14.8506C18.7895 14.8506 18.9668 16.689 18.7004 18.5274C18.434 20.3658 18.31 21.9923 17.6352 22.1572C16.9603 22.3221 15.2045 22.6434 15.2045 22.6434L13.5598 21.3147C13.5598 21.3147 13.7105 19.1403 13.6753 18.9516C13.6395 18.7633 13.0005 18.5509 13.1247 17.4668C13.2491 16.3827 13.6042 15.817 14.1548 16.5476C14.7052 17.2781 14.8825 17.1132 14.9183 16.0054C14.9539 14.8981 15.2645 15.1747 15.3843 14.4677C15.5043 13.7606 15.685 13.5657 15.978 13.3711C16.0274 13.3383 16.1116 13.3208 16.2222 13.3208C16.7649 13.3208 17.9446 13.7442 18.7895 14.8506Z" fill="white"/>
</mask>
<g mask="url(#mask17_7187_23107)">
<path fill-rule="evenodd" clip-rule="evenodd" d="M18.7895 14.8506C18.7895 14.8506 18.9668 16.689 18.7004 18.5274C18.434 20.3658 18.31 21.9923 17.6352 22.1572C16.9603 22.3221 15.2045 22.6434 15.2045 22.6434L13.5598 21.3147C13.5598 21.3147 13.7105 19.1403 13.6753 18.9516C13.6395 18.7633 13.0005 18.5509 13.1247 17.4668C13.2491 16.3827 13.6042 15.817 14.1548 16.5476C14.7052 17.2781 14.8825 17.1132 14.9183 16.0054C14.9539 14.8981 15.2645 15.1747 15.3843 14.4677C15.5043 13.7606 15.685 13.5657 15.978 13.3711C16.0274 13.3383 16.1116 13.3208 16.2222 13.3208C16.7649 13.3208 17.9446 13.7442 18.7895 14.8506Z" fill="url(#paint13_linear_7187_23107)"/>
</g>
<mask id="mask18_7187_23107" style="mask-type:alpha" maskUnits="userSpaceOnUse" x="18" y="61" width="8" height="7">
<path fill-rule="evenodd" clip-rule="evenodd" d="M21.936 62.6253C22.1846 63.2616 23.1702 65.1119 24.5152 65.9426C25.8604 66.7735 24.4771 67.8893 22.9705 67.6749C21.4637 67.4605 19.7846 66.3136 19.5611 66.1991C19.5611 66.1991 19.5023 66.4279 19.2461 66.3934C18.9902 66.3589 18.2335 65.7836 18.127 65.595C18.0204 65.4066 18.0471 64.4416 18.127 63.9874C18.2069 63.5329 18.16 61.1891 18.6584 61.8483C18.6584 61.8483 19.1051 63.0374 19.3612 62.7381C19.6173 62.4392 19.9828 61.5884 20.764 61.4702C20.8277 61.4606 20.8871 61.4561 20.9425 61.4561C21.5692 61.4561 21.7077 62.0407 21.936 62.6253Z" fill="white"/>
</mask>
<g mask="url(#mask18_7187_23107)">
<path fill-rule="evenodd" clip-rule="evenodd" d="M21.936 62.6253C22.1846 63.2616 23.1702 65.1119 24.5152 65.9426C25.8604 66.7735 24.4771 67.8893 22.9705 67.6749C21.4637 67.4605 19.7846 66.3136 19.5611 66.1991C19.5611 66.1991 19.5023 66.4279 19.2461 66.3934C18.9902 66.3589 18.2335 65.7836 18.127 65.595C18.0204 65.4066 18.0471 64.4416 18.127 63.9874C18.2069 63.5329 18.16 61.1891 18.6584 61.8483C18.6584 61.8483 19.1051 63.0374 19.3612 62.7381C19.6173 62.4392 19.9828 61.5884 20.764 61.4702C20.8277 61.4606 20.8871 61.4561 20.9425 61.4561C21.5692 61.4561 21.7077 62.0407 21.936 62.6253Z" fill="url(#paint14_linear_7187_23107)"/>
</g>
<mask id="mask19_7187_23107" style="mask-type:alpha" maskUnits="userSpaceOnUse" x="8" y="20" width="21" height="22">
<path fill-rule="evenodd" clip-rule="evenodd" d="M17.0489 22.1693L17.6882 23.5359C17.6882 23.5359 19.0626 23.3453 19.7394 23.8071C20.4158 24.2681 23.2724 27.5495 24.4402 27.6935C24.4402 27.6935 23.868 25.0677 23.8947 24.9322C23.9211 24.7967 25.5071 23.8906 25.6997 23.8546C25.8922 23.8187 28.1324 28.6149 28.1398 29.3927C28.1475 30.1708 28.0942 31.5846 27.2596 32.1268C26.4249 32.6687 20.824 30.9975 19.8777 30.4307C19.8777 30.4307 18.5644 36.6175 18.5576 40.1823C18.5576 40.1823 15.1885 40.4569 14.3736 41.0992C12.9412 41.1615 11.4543 40.9018 10.4736 39.8602C10.4736 39.8602 10.887 37.6371 9.73293 34.3869C8.57862 31.1369 8.44566 26.6555 8.47655 25.4433C8.50767 24.2311 10.177 23.1708 10.5322 23.0053C10.887 22.8404 12.8306 22.3534 12.8306 22.3534C12.8306 22.3534 13.3555 21.1907 13.4089 21.1672C13.4622 21.1434 14.3678 20.9551 14.3678 20.9551L17.0489 22.1693Z" fill="white"/>
</mask>
<g mask="url(#mask19_7187_23107)">
<path fill-rule="evenodd" clip-rule="evenodd" d="M17.0489 22.1693L17.6882 23.5359C17.6882 23.5359 19.0626 23.3453 19.7394 23.8071C20.4158 24.2681 23.2724 27.5495 24.4402 27.6935C24.4402 27.6935 23.868 25.0677 23.8947 24.9322C23.9211 24.7967 25.5071 23.8906 25.6997 23.8546C25.8922 23.8187 28.1324 28.6149 28.1398 29.3927C28.1475 30.1708 28.0942 31.5846 27.2596 32.1268C26.4249 32.6687 20.824 30.9975 19.8777 30.4307C19.8777 30.4307 18.5644 36.6175 18.5576 40.1823C18.5576 40.1823 15.1885 40.4569 14.3736 41.0992C12.9412 41.1615 11.4543 40.9018 10.4736 39.8602C10.4736 39.8602 10.887 37.6371 9.73293 34.3869C8.57862 31.1369 8.44566 26.6555 8.47655 25.4433C8.50767 24.2311 10.177 23.1708 10.5322 23.0053C10.887 22.8404 12.8306 22.3534 12.8306 22.3534C12.8306 22.3534 13.3555 21.1907 13.4089 21.1672C13.4622 21.1434 14.3678 20.9551 14.3678 20.9551L17.0489 22.1693Z" fill="url(#paint15_linear_7187_23107)"/>
<path fill-rule="evenodd" clip-rule="evenodd" d="M13.6494 32.1029C15.9239 31.9994 16.8352 24.212 16.8641 23.9643L15.2664 22.6698C15.2664 22.6698 13.9071 27.8183 13.0432 28.4998C12.3195 27.8807 11.0118 26.0259 11.0118 26.0259C10.3917 25.5284 9.58487 26.7554 9.30014 27.3604C9.11856 27.7461 9.07636 28.2676 9.26447 28.8124C9.58872 29.7514 11.375 32.2064 13.6494 32.1029Z" fill="url(#paint16_linear_7187_23107)"/>
</g>
<mask id="mask20_7187_23107" style="mask-type:alpha" maskUnits="userSpaceOnUse" x="17" y="16" width="7" height="5">
<path fill-rule="evenodd" clip-rule="evenodd" d="M19.2408 16.0054H19.3309L21.9434 16.3148L22.4896 16.5625C22.4896 16.5625 23.6215 16.7303 23.6215 17.9235C23.6215 18.9222 23.4063 19.093 23.4063 19.093L22.7197 20.036L21.1243 19.6471L19.7394 19.2404L18.1677 19.0223L17.5819 16.7362L18.1323 16.0054H19.2408Z" fill="white"/>
</mask>
<g mask="url(#mask20_7187_23107)">
<path fill-rule="evenodd" clip-rule="evenodd" d="M19.2408 16.0054H19.3309L21.9434 16.3148L22.4896 16.5625C22.4896 16.5625 23.6215 16.7303 23.6215 17.9235C23.6215 18.9222 23.4063 19.093 23.4063 19.093L22.7197 20.036L21.1243 19.6471L19.7394 19.2404L18.1677 19.0223L17.5819 16.7362L18.1323 16.0054H19.2408Z" fill="url(#paint17_linear_7187_23107)"/>
</g>
<path fill-rule="evenodd" clip-rule="evenodd" d="M18.1611 15.3212C18.2369 15.3062 18.3166 15.2912 18.381 15.3336C18.514 15.4221 18.6073 15.6518 18.7537 15.6518C18.9003 15.6518 19.3531 15.9171 19.2199 16.1117C19.2199 16.1117 18.221 16.0231 18.221 16.3413C18.221 16.6595 18.5807 18.6393 18.4074 19.3288C18.2344 20.0181 16.8506 24.026 16.8506 24.026L15.216 22.8309C15.216 22.8309 16.8092 19.647 16.7293 19.1343C16.6496 18.6218 16.0502 16.8716 16.1035 16.571C16.1568 16.2706 16.3566 16.041 16.4896 15.9524C16.623 15.8642 17.2222 15.3336 17.382 15.21C17.4332 15.1704 17.5009 15.1543 17.5723 15.1543C17.7236 15.1543 17.8913 15.2264 17.9546 15.2983C18.003 15.3534 18.0797 15.3373 18.1611 15.3212Z" fill="url(#paint18_linear_7187_23107)"/>
<mask id="mask21_7187_23107" style="mask-type:alpha" maskUnits="userSpaceOnUse" x="21" y="17" width="3" height="3">
<path fill-rule="evenodd" clip-rule="evenodd" d="M22.8501 17.1094C23.2228 17.2302 23.4323 17.8312 23.3181 18.4511C23.2039 19.0711 22.809 19.4758 22.4363 19.3548C22.0636 19.2337 21.8541 18.633 21.9684 18.013C22.0689 17.4669 22.3871 17.0879 22.7163 17.0879C22.7608 17.0879 22.8058 17.095 22.8501 17.1094Z" fill="white"/>
</mask>
<g mask="url(#mask21_7187_23107)">
<path fill-rule="evenodd" clip-rule="evenodd" d="M22.8501 17.1094C23.2228 17.2302 23.4323 17.8312 23.3181 18.4511C23.2039 19.0711 22.809 19.4758 22.4363 19.3548C22.0636 19.2337 21.8541 18.633 21.9684 18.013C22.0689 17.4669 22.3871 17.0879 22.7163 17.0879C22.7608 17.0879 22.8058 17.095 22.8501 17.1094Z" fill="url(#paint19_linear_7187_23107)"/>
</g>
<mask id="mask22_7187_23107" style="mask-type:alpha" maskUnits="userSpaceOnUse" x="18" y="16" width="3" height="3">
<path fill-rule="evenodd" clip-rule="evenodd" d="M19.5873 16.6128C19.96 16.7336 20.1694 17.3343 20.0552 17.9545C19.9408 18.5745 19.5459 18.9789 19.1735 18.8582C18.8006 18.7368 18.5909 18.1361 18.7053 17.5162C18.8061 16.97 19.124 16.5913 19.4532 16.5913C19.4978 16.5913 19.5427 16.5984 19.5873 16.6128Z" fill="white"/>
</mask>
<g mask="url(#mask22_7187_23107)">
<path fill-rule="evenodd" clip-rule="evenodd" d="M19.5873 16.6128C19.96 16.7336 20.1694 17.3343 20.0552 17.9545C19.9408 18.5745 19.5459 18.9789 19.1735 18.8582C18.8006 18.7368 18.5909 18.1361 18.7053 17.5162C18.8061 16.97 19.124 16.5913 19.4532 16.5913C19.4978 16.5913 19.5427 16.5984 19.5873 16.6128Z" fill="url(#paint20_linear_7187_23107)"/>
</g>
<mask id="mask23_7187_23107" style="mask-type:alpha" maskUnits="userSpaceOnUse" x="19" y="16" width="4" height="4">
<path fill-rule="evenodd" clip-rule="evenodd" d="M21.7016 16.286L21.9059 16.3103L22.008 16.3437L21.8921 16.4319C21.8921 16.4319 21.5906 16.5623 21.4307 17.0307C21.2709 17.499 21.2577 18.3122 21.4307 18.5506C21.6038 18.7896 21.8435 18.9926 21.8435 18.9926C21.8435 18.9926 21.9046 19.6109 22.2537 19.6819C22.4504 19.7218 22.3055 19.8151 22.1241 19.8903L21.3864 19.7105C21.1816 19.5408 20.9315 19.3233 20.7186 19.136L20.6983 19.4466L20.595 19.4913L19.7394 19.2401L19.3804 19.1903C20.1829 19.0156 20.3024 18.1122 20.3203 17.8206C20.322 17.7836 20.3233 17.7513 20.3237 17.7281C20.3271 17.5259 20.5251 16.8451 20.5251 16.8451L21.1831 16.2246L21.7016 16.286Z" fill="white"/>
</mask>
<g mask="url(#mask23_7187_23107)">
<path fill-rule="evenodd" clip-rule="evenodd" d="M21.7016 16.286L21.9059 16.3103L22.008 16.3437L21.8921 16.4319C21.8921 16.4319 21.5906 16.5623 21.4307 17.0307C21.2709 17.499 21.2577 18.3122 21.4307 18.5506C21.6038 18.7896 21.8435 18.9926 21.8435 18.9926C21.8435 18.9926 21.9046 19.6109 22.2537 19.6819C22.4504 19.7218 22.3055 19.8151 22.1241 19.8903L21.3864 19.7105C21.1816 19.5408 20.9315 19.3233 20.7186 19.136L20.6983 19.4466L20.595 19.4913L19.7394 19.2401L19.3804 19.1903C20.1829 19.0156 20.3024 18.1122 20.3203 17.8206C20.322 17.7836 20.3233 17.7513 20.3237 17.7281C20.3271 17.5259 20.5251 16.8451 20.5251 16.8451L21.1831 16.2246L21.7016 16.286Z" fill="#BB6906"/>
</g>
<mask id="mask24_7187_23107" style="mask-type:alpha" maskUnits="userSpaceOnUse" x="19" y="18" width="7" height="7">
<path fill-rule="evenodd" clip-rule="evenodd" d="M22.2963 19.6942C22.9268 19.8593 23.4063 19.0932 23.4063 19.0932L25.6998 23.8549L25.7004 23.9024C25.6616 24.6465 23.8947 24.9324 23.8947 24.9324C23.8947 24.9324 22.5627 21.5917 22.4163 21.2441C22.2697 20.8962 22.0832 20.8846 21.7105 20.7254C21.3374 20.5664 19.7394 19.2405 19.7394 19.2405C19.7394 19.2405 20.1121 19.2204 20.1812 19.1526C20.2419 19.0923 20.2587 18.728 20.2587 18.728C20.2587 18.728 21.6662 19.5293 22.2963 19.6942Z" fill="white"/>
</mask>
<g mask="url(#mask24_7187_23107)">
<path fill-rule="evenodd" clip-rule="evenodd" d="M22.2963 19.6942C22.9268 19.8593 23.4063 19.0932 23.4063 19.0932L25.6998 23.8549L25.7004 23.9024C25.6616 24.6465 23.8947 24.9324 23.8947 24.9324C23.8947 24.9324 22.5627 21.5917 22.4163 21.2441C22.2697 20.8962 22.0832 20.8846 21.7105 20.7254C21.3374 20.5664 19.7394 19.2405 19.7394 19.2405C19.7394 19.2405 20.1121 19.2204 20.1812 19.1526C20.2419 19.0923 20.2587 18.728 20.2587 18.728C20.2587 18.728 21.6662 19.5293 22.2963 19.6942Z" fill="url(#paint21_linear_7187_23107)"/>
</g>
<mask id="mask25_7187_23107" style="mask-type:alpha" maskUnits="userSpaceOnUse" x="19" y="15" width="4" height="3">
<path fill-rule="evenodd" clip-rule="evenodd" d="M21.071 15.3515C21.211 15.3868 21.464 15.608 21.5307 15.6872C21.5971 15.7669 21.6238 15.8289 21.9502 15.8996C22.2765 15.97 22.4896 16.5625 22.4896 16.5625C22.4896 16.5625 21.8835 16.3855 21.6037 16.4205C21.3242 16.4556 20.9779 17.0397 20.7782 17.4461C20.5784 17.8528 20.3237 17.7283 20.3237 17.7283C20.3608 17.3844 20.2221 16.8363 20.0488 16.571C19.9523 16.4228 19.4515 16.1734 19.3309 16.0054C19.2199 15.8509 19.8858 15.3251 20.1722 15.1543C20.23 15.1198 20.2954 15.106 20.3642 15.106C20.6359 15.106 20.9596 15.3232 21.071 15.3515Z" fill="white"/>
</mask>
<g mask="url(#mask25_7187_23107)">
<path fill-rule="evenodd" clip-rule="evenodd" d="M21.071 15.3515C21.211 15.3868 21.464 15.608 21.5307 15.6872C21.5971 15.7669 21.6238 15.8289 21.9502 15.8996C22.2765 15.97 22.4896 16.5625 22.4896 16.5625C22.4896 16.5625 21.8835 16.3855 21.6037 16.4205C21.3242 16.4556 20.9779 17.0397 20.7782 17.4461C20.5784 17.8528 20.3237 17.7283 20.3237 17.7283C20.3608 17.3844 20.2221 16.8363 20.0488 16.571C19.9523 16.4228 19.4515 16.1734 19.3309 16.0054C19.2199 15.8509 19.8858 15.3251 20.1722 15.1543C20.23 15.1198 20.2954 15.106 20.3642 15.106C20.6359 15.106 20.9596 15.3232 21.071 15.3515Z" fill="url(#paint22_linear_7187_23107)"/>
</g>
<path fill-rule="evenodd" clip-rule="evenodd" d="M40.4739 12.6287L35.2271 14.1553C34.8314 14.2704 34.6032 14.8225 34.7173 15.3886L37.6449 29.9118C37.759 30.4779 38.1722 30.8433 38.5679 30.7282L45.7805 28.6296C46.1763 28.5145 46.4046 27.9624 46.2905 27.3963L43.8735 15.4059L40.669 12.572L40.4739 12.6287Z" fill="#BEDCFC"/>
<mask id="mask26_7187_23107" style="mask-type:alpha" maskUnits="userSpaceOnUse" x="37" y="25" width="6" height="5">
<path fill-rule="evenodd" clip-rule="evenodd" d="M37.8929 26.3613L41.8289 25.286L42.4947 28.1418L38.5587 29.2171L37.8929 26.3613Z" fill="white"/>
</mask>
<g mask="url(#mask26_7187_23107)">
<path fill-rule="evenodd" clip-rule="evenodd" d="M40.0187 26.8935C40.0179 26.8998 40.017 26.9038 40.017 26.9078C40.0163 26.9648 40.0155 27.0218 40.0157 27.0787C40.0158 27.0859 40.0208 27.0952 40.0257 27.0989C40.0461 27.1142 40.0673 27.1278 40.0884 27.1417C40.0919 27.144 40.0964 27.1441 40.103 27.1459C40.1008 27.1331 40.1 27.1238 40.0975 27.1155C40.0904 27.0916 40.0818 27.0686 40.0753 27.0444C40.0666 27.012 40.0594 26.9788 40.0515 26.946C40.0462 26.9237 40.0354 26.9073 40.0187 26.8935ZM39.6015 28.319C39.6061 28.3197 39.6086 28.3211 39.6102 28.3201C39.6255 28.3109 39.6417 28.3034 39.6557 28.2916C39.7301 28.2283 39.8043 28.1646 39.8778 28.0996C39.9142 28.0674 39.9495 28.033 39.9843 27.998C40.0049 27.9774 40.0077 27.9495 39.9942 27.9229C39.9908 27.9161 39.9864 27.9094 39.9782 27.9184C39.9361 27.9645 39.8936 28.01 39.8517 28.0564C39.773 28.1434 39.6949 28.2312 39.6103 28.3092C39.6078 28.3114 39.6057 28.3143 39.6015 28.319ZM40.165 27.3108C40.1621 27.3041 40.159 27.2951 40.1547 27.2872C40.1456 27.2702 40.1362 27.2535 40.1264 27.2372C40.1227 27.2309 40.1184 27.2245 40.1131 27.2207C40.0849 27.2007 40.0564 27.1813 40.0278 27.1621C40.025 27.1602 40.0212 27.1605 40.0178 27.1598C40.017 27.165 40.015 27.1706 40.0156 27.1754C40.0195 27.2067 40.0229 27.2381 40.0284 27.2688C40.0338 27.2994 40.039 27.3308 40.0489 27.3587C40.0579 27.3842 40.0735 27.4052 40.0857 27.4287C40.1005 27.4574 40.1237 27.4567 40.1388 27.4265C40.1434 27.4174 40.1484 27.4084 40.1519 27.3986C40.1619 27.3715 40.1674 27.3433 40.165 27.3108ZM39.8953 26.8459C39.8751 26.8573 39.8599 26.864 39.8462 26.8741C39.8235 26.8906 39.8174 26.9162 39.8224 26.9454C39.8279 26.9782 39.8466 26.9949 39.8676 27.0067C39.9012 27.0256 39.9359 27.0414 39.9704 27.0578C39.9829 27.0637 39.9895 27.057 39.99 27.0396C39.9915 26.9845 39.9929 26.9294 39.9941 26.8743C39.9946 26.8502 39.9905 26.8412 39.9722 26.8409C39.9449 26.8404 39.9174 26.8443 39.8953 26.8459ZM39.61 26.1454C39.6252 26.1479 39.6342 26.1606 39.6395 26.1763C39.6457 26.1944 39.6504 26.2136 39.6541 26.233C39.6662 26.2959 39.6769 26.3594 39.6895 26.4222C39.7009 26.4795 39.7134 26.5365 39.7265 26.5932C39.745 26.6736 39.7645 26.7537 39.7837 26.8339C39.7872 26.8488 39.791 26.8637 39.7949 26.8785C39.7963 26.8838 39.7982 26.8887 39.8001 26.8946C39.8262 26.8708 39.8534 26.8538 39.882 26.8393C39.9155 26.8224 39.9486 26.8152 39.9831 26.8257C39.9986 26.8304 40.0011 26.8277 39.9989 26.8076C39.9944 26.7651 39.9886 26.723 39.9838 26.6806C39.9777 26.6253 39.972 26.5699 39.9664 26.5144C39.9657 26.5075 39.9659 26.5004 39.9659 26.4934C39.9659 26.4831 39.9682 26.4752 39.9779 26.4732C39.9871 26.4712 39.9952 26.4736 39.9979 26.4843C40.0016 26.4991 40.0042 26.5146 40.0054 26.5302C40.011 26.6066 40.022 26.6816 40.0328 26.7567C40.0524 26.8923 40.092 27.0186 40.1303 27.1457C40.1383 27.1725 40.1491 27.195 40.1683 27.2107C40.1949 27.2324 40.2058 27.2651 40.2074 27.3046C40.208 27.3193 40.2109 27.3339 40.214 27.3481C40.215 27.3527 40.2198 27.3558 40.2229 27.3596C40.2256 27.3544 40.2306 27.3491 40.2306 27.3441C40.2306 27.32 40.2302 27.2957 40.2282 27.2718C40.2155 27.1217 40.2022 26.9717 40.1892 26.8216C40.1883 26.8111 40.1879 26.8006 40.1878 26.79C40.1878 26.7824 40.1887 26.7751 40.1969 26.7729C40.2052 26.7706 40.2132 26.7698 40.217 26.7804C40.2202 26.7893 40.2222 26.7992 40.2236 26.809C40.2298 26.8533 40.2352 26.8977 40.2415 26.9419C40.2505 27.0055 40.2696 27.0634 40.3001 27.1144C40.3023 27.1181 40.3052 27.1216 40.3084 27.1237C40.3197 27.1307 40.3236 27.1281 40.3247 27.1119C40.3276 27.0683 40.33 27.0247 40.3326 26.9811C40.3329 26.9754 40.3329 26.9696 40.3337 26.9639C40.3364 26.9445 40.3523 26.9352 40.3649 26.9461C40.3713 26.9517 40.3766 26.9593 40.3826 26.9657C40.3953 26.9794 40.4078 26.9933 40.4211 27.0061C40.4239 27.0088 40.4295 27.0087 40.4334 27.0073C40.4348 27.0068 40.4355 26.999 40.4355 26.9945C40.4355 26.9792 40.434 26.9639 40.4351 26.9487C40.4363 26.9331 40.4443 26.922 40.4571 26.9191C40.4668 26.9169 40.4768 26.916 40.4866 26.9159C40.4936 26.9157 40.5005 26.9181 40.5075 26.9188C40.5236 26.9204 40.5257 26.9181 40.5334 26.9001C40.5416 26.881 40.5509 26.8626 40.5597 26.8439C40.5622 26.8385 40.5645 26.833 40.5687 26.8233C40.5611 26.8249 40.5563 26.8254 40.5517 26.8271C40.5377 26.8322 40.5239 26.8396 40.5096 26.843C40.4931 26.8469 40.4808 26.8352 40.4773 26.8173C40.475 26.8053 40.4788 26.796 40.4862 26.7892C40.5086 26.7689 40.5322 26.7509 40.5597 26.7449C40.5659 26.7436 40.573 26.7459 40.5791 26.7484C40.5891 26.7525 40.5985 26.7514 40.6078 26.745C40.6643 26.706 40.721 26.6676 40.777 26.6276C40.8617 26.5673 40.9453 26.5044 41.0305 26.4454C41.0989 26.398 41.1692 26.3551 41.2384 26.3098C41.3151 26.2597 41.3906 26.2062 41.4684 26.1593C41.6039 26.0776 41.7355 25.9848 41.8755 25.9162C41.912 25.8983 41.9492 25.8824 41.9867 25.8683C42.0303 25.8518 42.0745 25.8382 42.1186 25.8238C42.1243 25.822 42.1304 25.823 42.1363 25.8226L42.1387 25.8354C42.1359 25.8449 42.1299 25.8485 42.1226 25.8514C42.0674 25.8733 42.0113 25.8921 41.9574 25.9186C41.882 25.9559 41.8067 25.995 41.7341 26.0404C41.5651 26.1461 41.3976 26.2555 41.2298 26.3644C41.0684 26.4691 40.9111 26.5834 40.754 26.6984C40.7127 26.7285 40.6696 26.7544 40.6272 26.782C40.6157 26.7895 40.608 26.7999 40.6028 26.8149C40.5894 26.8542 40.5749 26.893 40.5612 26.9322C40.5514 26.9601 40.5382 26.9681 40.5128 26.9659C40.5007 26.9649 40.4889 26.96 40.4756 26.9565C40.4749 26.9624 40.4739 26.9678 40.4736 26.9733C40.4732 26.9821 40.4735 26.9909 40.473 26.9997C40.4704 27.0515 40.4282 27.0803 40.3934 27.0535C40.3845 27.0467 40.3772 27.0368 40.3707 27.03C40.3679 27.0635 40.3654 27.0994 40.3617 27.1352C40.3571 27.1788 40.3215 27.1981 40.2935 27.1727C40.2746 27.1556 40.2596 27.134 40.2464 27.1091C40.2482 27.1377 40.2497 27.1663 40.252 27.1948C40.2544 27.2231 40.2577 27.2512 40.2605 27.2794C40.2638 27.3111 40.2606 27.3426 40.2529 27.3738C40.246 27.4023 40.2269 27.4101 40.2083 27.4022C40.1928 27.3956 40.1922 27.3962 40.1843 27.4144C40.1801 27.4239 40.1762 27.4336 40.1717 27.4429C40.1429 27.5019 40.0738 27.513 40.0432 27.4524C40.024 27.4145 40.0128 27.3721 40.0042 27.3286C39.9955 27.2847 39.9898 27.2399 39.9896 27.1937C39.9896 27.1825 39.9868 27.1713 39.9842 27.1606C39.9833 27.1568 39.9796 27.1531 39.9764 27.1517C39.9401 27.1356 39.9036 27.1199 39.867 27.1043C39.8631 27.1026 39.8587 27.1024 39.8514 27.1009C39.8568 27.1239 39.8614 27.1432 39.8659 27.1626C39.8793 27.2196 39.8927 27.2766 39.906 27.3337C39.9275 27.4262 39.9492 27.5186 39.9702 27.6113C39.9805 27.6568 39.9885 27.7033 39.9989 27.7488C40.0104 27.7993 40.0231 27.8493 40.0358 27.8992C40.0401 27.9162 40.0417 27.9156 40.0534 27.9036C40.1276 27.8267 40.2031 27.752 40.2824 27.6836C40.3607 27.616 40.4384 27.5474 40.5178 27.4821C40.5833 27.4282 40.6511 27.379 40.7173 27.3266C40.751 27.2999 40.7833 27.2704 40.8165 27.2426C40.8237 27.2365 40.8319 27.2323 40.8394 27.2273C40.8484 27.243 40.84 27.2496 40.8325 27.2561C40.7848 27.2977 40.7371 27.339 40.6894 27.3805C40.5735 27.4815 40.4562 27.58 40.3421 27.6842C40.2527 27.7659 40.1668 27.8538 40.0804 27.9406C40.0452 27.9759 40.0494 27.9713 40.0615 28.0213C40.0795 28.0956 40.0985 28.1695 40.1175 28.2433C40.1373 28.3204 40.1548 28.3988 40.1862 28.4697C40.1913 28.4814 40.1984 28.4916 40.2034 28.5033C40.2087 28.5157 40.2132 28.5287 40.2168 28.5421C40.218 28.5463 40.2162 28.556 40.2141 28.5571C40.209 28.5595 40.2014 28.5612 40.1976 28.5581C40.1903 28.5521 40.1837 28.5436 40.1792 28.5343C40.1621 28.4995 40.1443 28.465 40.1301 28.4282C40.1177 28.3957 40.1092 28.3606 40.1 28.3261C40.0836 28.2649 40.0679 28.2034 40.0523 28.1419C40.0426 28.1039 40.0338 28.0656 40.0243 28.0276C40.0188 28.0057 40.014 28.0048 39.9988 28.0183C39.9158 28.0917 39.8327 28.165 39.7494 28.238C39.6841 28.2953 39.6143 28.3425 39.5418 28.3825C39.5223 28.3932 39.5006 28.3978 39.4797 28.4033C39.4745 28.4047 39.466 28.4006 39.4631 28.3954C39.4582 28.3862 39.4589 28.3745 39.4665 28.3651C39.4691 28.3619 39.4716 28.3584 39.4745 28.3558C39.5125 28.3216 39.551 28.2882 39.5885 28.2532C39.6234 28.2207 39.658 28.1875 39.6915 28.1528C39.77 28.0717 39.8477 27.9895 39.9256 27.9076C39.9417 27.8908 39.9575 27.8735 39.9732 27.8562C39.98 27.8488 39.981 27.84 39.9788 27.8297C39.9648 27.7628 39.9513 27.6959 39.9374 27.629C39.9292 27.589 39.9214 27.5488 39.9122 27.5092C39.8933 27.4275 39.8737 27.3461 39.8543 27.2647C39.8478 27.2377 39.8409 27.2109 39.8341 27.184C39.833 27.1797 39.8315 27.1756 39.8286 27.1722C39.8308 27.2105 39.8334 27.2487 39.835 27.2871C39.8362 27.3155 39.8366 27.3441 39.8364 27.3728C39.8363 27.3845 39.8346 27.3966 39.8321 27.4082C39.8229 27.4515 39.8107 27.4708 39.7632 27.4758C39.7532 27.4769 39.7427 27.4745 39.7331 27.4711C39.6911 27.4564 39.6505 27.4365 39.6173 27.4028C39.5938 27.3788 39.5764 27.3455 39.5566 27.316C39.5517 27.3087 39.5481 27.3 39.5423 27.2889C39.54 27.2971 39.5385 27.3015 39.5376 27.306C39.5167 27.4181 39.4633 27.5062 39.3952 27.5819C39.2993 27.6884 39.1882 27.7588 39.0667 27.801C39.0076 27.8215 38.948 27.8416 38.8879 27.8533C38.8123 27.8681 38.736 27.8813 38.6599 27.8716C38.6404 27.869 38.6206 27.8678 38.6008 27.8674C38.5205 27.8661 38.4439 27.8426 38.3675 27.8205C38.3289 27.8094 38.2917 27.7875 38.2576 27.7628C38.1902 27.7141 38.1239 27.6627 38.0648 27.599C38.0601 27.594 38.0554 27.5888 38.0509 27.5836C38.0432 27.5749 38.0434 27.5639 38.0464 27.5521C38.0492 27.541 38.057 27.5379 38.0642 27.5373C38.0768 27.5361 38.0898 27.5354 38.1021 27.5378C38.1225 27.5416 38.1424 27.5484 38.1627 27.5532C38.1847 27.5584 38.2071 27.5619 38.2289 27.5677C38.2378 27.5701 38.2478 27.5741 38.2538 27.5817C38.2633 27.5937 38.2618 27.6035 38.2491 27.606C38.2391 27.6079 38.2283 27.6092 38.2189 27.6064C38.193 27.5986 38.1669 27.5929 38.1397 27.5946C38.137 27.5948 38.1343 27.5952 38.1287 27.5959C38.1338 27.6018 38.1369 27.606 38.1405 27.6094C38.2097 27.6751 38.2849 27.7281 38.3682 27.7636C38.4202 27.7858 38.4746 27.7961 38.5292 27.8061C38.6441 27.8272 38.7601 27.8293 38.8771 27.8105C38.913 27.8047 38.9487 27.7933 38.9845 27.7846C39.043 27.7704 39.0997 27.7476 39.1547 27.7168C39.2252 27.6773 39.292 27.6292 39.355 27.5727C39.371 27.5583 39.384 27.5386 39.3978 27.5205C39.4098 27.5048 39.4205 27.4875 39.4325 27.4716C39.4979 27.3848 39.521 27.2855 39.5021 27.1738C39.4976 27.1469 39.4926 27.1202 39.488 27.0934C39.4867 27.0858 39.4856 27.078 39.4851 27.0701C39.484 27.0526 39.4878 27.0456 39.4996 27.0426C39.5113 27.0395 39.5156 27.0433 39.5193 27.0602C39.5281 27.1004 39.5355 27.1413 39.5461 27.1806C39.5708 27.2726 39.6157 27.3449 39.6852 27.3893C39.7087 27.4043 39.7348 27.4139 39.7607 27.4224C39.7704 27.4257 39.7835 27.4213 39.7935 27.4157C39.7989 27.4127 39.8023 27.4 39.8042 27.391C39.8103 27.3618 39.8102 27.3324 39.8088 27.3029C39.8064 27.249 39.8061 27.1948 39.8024 27.1411C39.7996 27.1012 39.7949 27.0616 39.7785 27.026C39.767 27.0011 39.7661 26.9721 39.768 26.9419C39.7692 26.9225 39.7642 26.9023 39.7597 26.8835C39.7434 26.8153 39.7267 26.7473 39.7092 26.6797C39.6895 26.6039 39.6688 26.5285 39.6486 26.453C39.647 26.4472 39.6454 26.4415 39.6442 26.4356C39.629 26.3583 39.6139 26.281 39.5988 26.2037C39.5971 26.1949 39.5962 26.1857 39.5952 26.1766C39.5938 26.1644 39.5965 26.1539 39.6058 26.1469L39.61 26.1454Z" fill="white"/>
</g>
<path fill-rule="evenodd" clip-rule="evenodd" d="M40.7497 26.3455C40.7517 26.353 40.7532 26.3576 40.7542 26.3624C40.7623 26.4004 40.7815 26.4258 40.8049 26.4435C40.8394 26.4695 40.8752 26.4882 40.913 26.4883C40.9151 26.4883 40.9173 26.4878 40.9191 26.489C40.9222 26.491 40.9251 26.4941 40.928 26.4968C40.9261 26.5005 40.9249 26.5065 40.9223 26.5075C40.9126 26.5111 40.9026 26.5163 40.8926 26.5151C40.8465 26.5098 40.8015 26.4943 40.762 26.4496C40.7353 26.4193 40.7133 26.3828 40.6995 26.3381C40.6945 26.3219 40.6953 26.3077 40.6999 26.2926C40.7102 26.259 40.7272 26.2348 40.7484 26.2162C40.7694 26.1977 40.7885 26.1739 40.8144 26.1672C40.837 26.1614 40.8599 26.1558 40.8831 26.1543C40.9139 26.1523 40.9399 26.1766 40.953 26.215C40.9541 26.2182 40.9555 26.2215 40.9558 26.2247C40.9563 26.2302 40.956 26.2357 40.956 26.2412C40.952 26.2394 40.9471 26.2392 40.944 26.2356C40.9023 26.1865 40.8598 26.1857 40.8203 26.215C40.7948 26.2338 40.7727 26.2615 40.751 26.2881C40.7409 26.3005 40.7452 26.3223 40.7487 26.3413C40.7492 26.3437 40.7498 26.346 40.7497 26.3455Z" fill="white"/>
<path fill-rule="evenodd" clip-rule="evenodd" d="M35.9818 16.6505L40.6049 15.279L40.4833 14.6642L35.8603 16.0356L35.9818 16.6505Z" fill="white"/>
<path fill-rule="evenodd" clip-rule="evenodd" d="M36.1722 17.7452L40.7953 16.3737L40.6737 15.7589L36.0507 17.1304L36.1722 17.7452Z" fill="white"/>
<path fill-rule="evenodd" clip-rule="evenodd" d="M44.9061 27.2985L43.9434 27.5781C43.7913 27.6223 43.6326 27.4821 43.5887 27.2651L43.2 25.3402C43.1562 25.1232 43.2439 24.9115 43.396 24.8673L44.3587 24.5877C44.5107 24.5435 44.6694 24.6837 44.7133 24.9007L45.102 26.8256C45.1458 27.0426 45.0581 27.2543 44.9061 27.2985Z" fill="white"/>
<path fill-rule="evenodd" clip-rule="evenodd" d="M37.1785 23.5303L41.8015 22.1588L41.68 21.544L37.0569 22.9155L37.1785 23.5303Z" fill="white"/>
<path fill-rule="evenodd" clip-rule="evenodd" d="M36.7588 21.1161L43.7545 19.0236L43.6327 18.4027L36.637 20.4951L36.7588 21.1161Z" fill="white"/>
<path fill-rule="evenodd" clip-rule="evenodd" d="M36.9611 22.2796L43.9568 20.1872L43.8351 19.5662L36.8394 21.6587L36.9611 22.2796Z" fill="white"/>
<mask id="mask27_7187_23107" style="mask-type:alpha" maskUnits="userSpaceOnUse" x="41" y="12" width="4" height="4">
<path fill-rule="evenodd" clip-rule="evenodd" d="M41.5721 15.1839C41.6818 15.7151 42.0708 16.0603 42.4411 15.9549L44.2728 15.434L41.0311 12.565L41.5721 15.1839Z" fill="white"/>
</mask>
<g mask="url(#mask27_7187_23107)">
<path fill-rule="evenodd" clip-rule="evenodd" d="M41.5721 15.1839C41.6818 15.7151 42.0708 16.0603 42.4411 15.9549L44.2728 15.434L41.0311 12.565L41.5721 15.1839Z" fill="url(#paint23_linear_7187_23107)"/>
</g>
<path fill-rule="evenodd" clip-rule="evenodd" d="M45.3308 11.8179H39.6293C39.1994 11.8179 38.8508 12.2805 38.8508 12.8513V27.4961C38.8508 28.0669 39.1994 28.5295 39.6293 28.5295H47.467C47.897 28.5295 48.2457 28.0669 48.2457 27.4961V15.4053L45.5428 11.8179H45.3308Z" fill="#84B3E6"/>
<mask id="mask28_7187_23107" style="mask-type:alpha" maskUnits="userSpaceOnUse" x="40" y="24" width="5" height="4">
<path fill-rule="evenodd" clip-rule="evenodd" d="M40.1294 24.4233H44.3768V27.1564H40.1294V24.4233Z" fill="white"/>
</mask>
<g mask="url(#mask28_7187_23107)">
<path fill-rule="evenodd" clip-rule="evenodd" d="M42.1434 25.3861C42.1416 25.392 42.1401 25.3956 42.1394 25.3995C42.1292 25.4552 42.1187 25.5108 42.1094 25.5667C42.1082 25.5737 42.1115 25.5847 42.1156 25.5901C42.1325 25.6126 42.1505 25.6338 42.1684 25.6551C42.1714 25.6587 42.1757 25.6604 42.1817 25.6646C42.1817 25.6512 42.1825 25.6419 42.1816 25.6328C42.1788 25.6068 42.1744 25.581 42.1723 25.5549C42.1694 25.5199 42.1681 25.4847 42.1661 25.4496C42.1647 25.4258 42.1571 25.4058 42.1434 25.3861ZM41.4957 26.653C41.4999 26.6554 41.5021 26.6577 41.5038 26.6573C41.5202 26.6534 41.5371 26.6515 41.5526 26.6443C41.6355 26.6058 41.7183 26.5668 41.8006 26.5262C41.8414 26.5061 41.8815 26.4833 41.9213 26.4597C41.9447 26.4458 41.9524 26.4178 41.9442 26.3851C41.9421 26.3767 41.9391 26.3681 41.9296 26.3745C41.8809 26.407 41.8318 26.4387 41.7832 26.4715C41.692 26.5332 41.6012 26.5959 41.5058 26.646C41.503 26.6474 41.5005 26.6496 41.4957 26.653ZM42.214 25.8439C42.2124 25.8363 42.2109 25.8262 42.2081 25.8168C42.2023 25.7967 42.1961 25.7767 42.1895 25.757C42.187 25.7494 42.1839 25.7415 42.1795 25.7359C42.1559 25.7056 42.1318 25.676 42.1076 25.6465C42.1052 25.6435 42.1015 25.6425 42.0985 25.6405C42.0968 25.6454 42.0939 25.6502 42.0937 25.6552C42.092 25.6875 42.09 25.7198 42.09 25.7522C42.09 25.7844 42.0896 25.8173 42.0944 25.8486C42.0988 25.8771 42.1101 25.9036 42.1178 25.9313C42.1271 25.9651 42.1495 25.973 42.1692 25.9487C42.1751 25.9413 42.1814 25.9342 42.1865 25.9259C42.2007 25.9028 42.2108 25.877 42.214 25.8439ZM42.0318 25.3002C42.0103 25.3042 41.9946 25.3054 41.9797 25.3104C41.955 25.3187 41.9447 25.3422 41.9444 25.3735C41.944 25.4085 41.9591 25.4322 41.9772 25.4518C42.0062 25.4832 42.0369 25.512 42.0672 25.5412C42.0781 25.5517 42.0857 25.5474 42.0892 25.5301C42.1002 25.4751 42.111 25.4202 42.1218 25.3652C42.1265 25.3412 42.1241 25.3305 42.1065 25.3235C42.0804 25.3129 42.0533 25.3067 42.0318 25.3002ZM41.8895 24.4233C41.9036 24.4315 41.91 24.448 41.9123 24.4664C41.915 24.4875 41.9161 24.5092 41.9162 24.5307C41.9166 24.6007 41.9156 24.6707 41.9164 24.7407C41.9171 24.8046 41.919 24.8685 41.9214 24.9324C41.9249 25.0229 41.9293 25.1134 41.9333 25.204C41.9341 25.2208 41.9351 25.2377 41.9362 25.2546C41.9366 25.2605 41.9375 25.2664 41.9383 25.2732C41.9676 25.2581 41.9969 25.2504 42.027 25.2459C42.0622 25.2406 42.0953 25.2453 42.1266 25.2689C42.1407 25.2796 42.1436 25.2776 42.1451 25.2559C42.1483 25.2101 42.1502 25.1641 42.1533 25.1182C42.1573 25.0584 42.1617 24.9986 42.1662 24.9388C42.1667 24.9314 42.1683 24.924 42.1695 24.9167C42.1713 24.906 42.175 24.8987 42.1847 24.9001C42.1939 24.9015 42.2012 24.9069 42.2019 24.9191C42.2028 24.9358 42.2026 24.953 42.2009 24.9696C42.1926 25.0512 42.1898 25.1333 42.1868 25.2155C42.1814 25.3638 42.1969 25.5099 42.2109 25.6562C42.2139 25.6871 42.2202 25.7145 42.2359 25.738C42.2576 25.7704 42.2622 25.8084 42.2567 25.8501C42.2546 25.8657 42.2548 25.8819 42.2553 25.8978C42.2554 25.903 42.2595 25.908 42.2618 25.9131C42.2653 25.9087 42.271 25.905 42.2719 25.8998C42.2762 25.8747 42.2802 25.8493 42.2825 25.8237C42.2971 25.6627 42.3112 25.5016 42.3256 25.3406C42.3266 25.3294 42.328 25.3183 42.3299 25.3073C42.3312 25.2993 42.3334 25.2921 42.3417 25.2928C42.3501 25.2935 42.3579 25.2956 42.3597 25.308C42.3611 25.3185 42.3613 25.3295 42.3609 25.3402C42.3589 25.3886 42.3562 25.4369 42.3543 25.4852C42.3516 25.5547 42.3596 25.6219 42.3799 25.6863C42.3813 25.691 42.3834 25.6957 42.3862 25.699C42.3958 25.7105 42.4 25.7092 42.4039 25.6928C42.4145 25.6485 42.4246 25.604 42.4349 25.5596C42.4363 25.5537 42.4373 25.5477 42.4391 25.5421C42.4452 25.5228 42.4621 25.519 42.4723 25.535C42.4775 25.5433 42.4812 25.5531 42.4858 25.562C42.4955 25.5809 42.5051 25.5999 42.5156 25.6182C42.5178 25.622 42.5232 25.624 42.5272 25.624C42.5287 25.624 42.5307 25.6161 42.5315 25.6115C42.5343 25.5955 42.5355 25.579 42.5394 25.5636C42.5433 25.5479 42.5529 25.5392 42.5658 25.5409C42.5755 25.5422 42.5852 25.545 42.5947 25.5484C42.6014 25.5508 42.6077 25.5558 42.6143 25.5591C42.6295 25.5667 42.6319 25.5651 42.6425 25.5493C42.6539 25.5324 42.6661 25.5167 42.6779 25.5005C42.6813 25.4958 42.6844 25.4908 42.6902 25.4823C42.6826 25.4812 42.6779 25.4799 42.6732 25.48C42.6588 25.4802 42.6442 25.4827 42.6299 25.481C42.6133 25.479 42.6036 25.4623 42.6034 25.4425C42.6033 25.4291 42.6086 25.4207 42.6169 25.4165C42.6422 25.4035 42.6681 25.3936 42.6956 25.3974C42.7018 25.3983 42.7082 25.4034 42.7136 25.4082C42.7225 25.4162 42.7317 25.4185 42.7419 25.4152C42.8031 25.3954 42.8645 25.3764 42.9255 25.3555C43.0178 25.3239 43.1094 25.2892 43.202 25.2592C43.2762 25.2352 43.3514 25.2164 43.4261 25.1948C43.5088 25.1709 43.591 25.143 43.6742 25.1229C43.8191 25.0878 43.9623 25.0397 44.1092 25.0199C44.1475 25.0148 44.1862 25.0119 44.2247 25.011C44.2696 25.01 44.3146 25.0121 44.3595 25.0134C44.3653 25.0136 44.371 25.0169 44.3768 25.0187V25.0328C44.3724 25.0417 44.366 25.0433 44.3584 25.0436C44.3014 25.046 44.2441 25.0449 44.1875 25.0527C44.1084 25.0636 44.029 25.0766 43.951 25.0971C43.7696 25.1448 43.5889 25.1969 43.4081 25.2484C43.2342 25.2979 43.0624 25.3589 42.8907 25.4206C42.8457 25.4368 42.7995 25.4479 42.7539 25.4609C42.7415 25.4644 42.7322 25.4725 42.7245 25.4862C42.7046 25.5222 42.6837 25.5572 42.6635 25.593C42.6492 25.6184 42.635 25.6218 42.611 25.6102C42.5995 25.6046 42.5891 25.5952 42.5769 25.5867C42.5751 25.5926 42.5732 25.5978 42.572 25.6034C42.57 25.6124 42.5687 25.6217 42.5667 25.6307C42.5548 25.6836 42.5092 25.698 42.4805 25.6573C42.4732 25.6469 42.4678 25.634 42.4628 25.6245C42.4541 25.6583 42.4453 25.6947 42.4353 25.7306C42.4232 25.7744 42.3855 25.7813 42.3631 25.7446C42.348 25.7198 42.3374 25.6918 42.3291 25.661C42.3258 25.6914 42.3221 25.7218 42.3193 25.7522C42.3165 25.7826 42.3146 25.813 42.3123 25.8434C42.3097 25.8777 42.301 25.9093 42.2881 25.9389C42.2763 25.966 42.2565 25.9671 42.2401 25.9521C42.2264 25.9395 42.2257 25.9398 42.2148 25.9559C42.2091 25.9643 42.2036 25.9729 42.1976 25.9809C42.1594 26.0317 42.091 26.0178 42.0723 25.9434C42.0607 25.8969 42.0575 25.8487 42.057 25.8002C42.0564 25.7512 42.059 25.7025 42.0671 25.6544C42.069 25.6427 42.0683 25.6301 42.0678 25.6179C42.0675 25.6137 42.0647 25.6084 42.0619 25.6058C42.0298 25.5756 41.9975 25.5458 41.9652 25.5162C41.9617 25.513 41.9575 25.5111 41.9508 25.5068C41.9518 25.5327 41.9528 25.5546 41.9537 25.5764C41.9563 25.6407 41.959 25.705 41.9616 25.7693C41.9657 25.8735 41.9701 25.9777 41.9737 26.0819C41.9755 26.1331 41.9749 26.1844 41.9767 26.2356C41.9787 26.2924 41.982 26.3491 41.9853 26.4057C41.9864 26.425 41.9881 26.425 42.0014 26.4167C42.0865 26.3641 42.1725 26.3142 42.261 26.2722C42.3484 26.2308 42.4354 26.188 42.5235 26.1492C42.5961 26.1173 42.6701 26.0911 42.7432 26.0609C42.7803 26.0456 42.8167 26.0268 42.8535 26.0101C42.8616 26.0065 42.8702 26.005 42.8783 26.0026C42.8842 26.0223 42.8749 26.0261 42.8665 26.0301C42.8133 26.0558 42.7599 26.0812 42.7066 26.1068C42.5771 26.1691 42.4467 26.2284 42.3184 26.2949C42.2178 26.3469 42.1194 26.4068 42.0208 26.4652C41.9806 26.489 41.9854 26.4858 41.9882 26.5423C41.9922 26.6263 41.9972 26.7101 42.0023 26.794C42.0076 26.8815 42.0104 26.9696 42.0279 27.055C42.0308 27.069 42.0357 27.0823 42.0384 27.0963C42.0413 27.1111 42.0433 27.1264 42.0444 27.1416C42.0448 27.1465 42.0414 27.1559 42.0392 27.1562C42.0338 27.1569 42.0261 27.1558 42.023 27.1511C42.0171 27.1423 42.0123 27.131 42.0096 27.1197C41.9995 27.0771 41.9884 27.0346 41.9814 26.991C41.9752 26.9527 41.9734 26.913 41.9707 26.8737C41.9659 26.804 41.9618 26.7342 41.9577 26.6644C41.9552 26.6213 41.9537 26.5782 41.9513 26.5351C41.9499 26.5104 41.9454 26.5076 41.9285 26.516C41.8355 26.5619 41.7424 26.6075 41.6493 26.6528C41.5762 26.6883 41.5007 26.7117 41.4238 26.7266C41.4031 26.7306 41.3815 26.7274 41.3604 26.7254C41.3551 26.7249 41.3476 26.7175 41.3458 26.7111C41.3427 26.6997 41.3455 26.6877 41.3545 26.6807C41.3576 26.6784 41.3606 26.6757 41.3638 26.6741C41.4065 26.6525 41.4495 26.6319 41.4918 26.6093C41.5312 26.5883 41.5704 26.5665 41.6089 26.5428C41.6988 26.4872 41.7883 26.4304 41.8779 26.3739C41.8963 26.3623 41.9146 26.3501 41.9328 26.3379C41.9406 26.3327 41.9432 26.3239 41.9429 26.3124C41.9415 26.2376 41.9404 26.1629 41.939 26.0882C41.9382 26.0435 41.9379 25.9988 41.9362 25.9543C41.9326 25.8623 41.9284 25.7703 41.9242 25.6784C41.9228 25.6479 41.921 25.6174 41.9193 25.587C41.919 25.5821 41.9182 25.5773 41.9161 25.5727C41.9113 25.6133 41.907 25.6541 41.9017 25.6946C41.8978 25.7246 41.893 25.7546 41.8877 25.7843C41.8855 25.7965 41.8817 25.8084 41.8773 25.8196C41.8606 25.8613 41.8455 25.8768 41.7988 25.8646C41.789 25.862 41.7793 25.8556 41.7707 25.8486C41.733 25.8178 41.6975 25.7821 41.6716 25.7347C41.6533 25.7011 41.6425 25.6601 41.6287 25.6221C41.6253 25.6127 41.6234 25.6023 41.6199 25.5886C41.6162 25.5963 41.6139 25.6003 41.6123 25.6047C41.5721 25.7136 41.505 25.7857 41.4259 25.8393C41.3147 25.9148 41.1952 25.9471 41.0709 25.9462C41.0104 25.9458 40.9494 25.9448 40.8896 25.9348C40.8142 25.9223 40.7385 25.908 40.6671 25.8697C40.6487 25.8599 40.6299 25.8513 40.6109 25.8437C40.534 25.8127 40.4645 25.76 40.3949 25.7088C40.3599 25.683 40.328 25.6465 40.2996 25.6083C40.2435 25.5327 40.1889 25.4547 40.1434 25.3667C40.1398 25.3597 40.1363 25.3526 40.1328 25.3456C40.127 25.3337 40.1292 25.3223 40.1342 25.3111C40.1388 25.3005 40.1469 25.3002 40.1539 25.3022C40.1663 25.3056 40.1789 25.3097 40.1903 25.3167C40.2092 25.3282 40.2272 25.3426 40.2459 25.3551C40.2661 25.3686 40.2869 25.3805 40.3069 25.3946C40.315 25.4004 40.3239 25.4083 40.3283 25.4184C40.3353 25.4343 40.3321 25.444 40.3194 25.4419C40.3095 25.4402 40.2989 25.4376 40.2904 25.4312C40.2668 25.4135 40.2428 25.3979 40.2163 25.3897C40.2137 25.3889 40.211 25.3883 40.2055 25.387C40.2093 25.395 40.2115 25.4005 40.2144 25.4054C40.2692 25.4993 40.332 25.5821 40.4058 25.6499C40.4518 25.6921 40.5024 25.7229 40.553 25.7534C40.6598 25.8177 40.771 25.8627 40.8868 25.8862C40.9224 25.8935 40.9587 25.8947 40.9947 25.8989C41.0536 25.9057 41.1122 25.9028 41.1706 25.8911C41.2454 25.8759 41.3183 25.8505 41.389 25.8149C41.4069 25.8058 41.423 25.7901 41.4395 25.7764C41.4538 25.7644 41.4672 25.7504 41.4816 25.7383C41.56 25.672 41.6 25.5772 41.6018 25.4539C41.6023 25.4243 41.6022 25.3947 41.6026 25.3651C41.6027 25.3566 41.6031 25.3481 41.604 25.3398C41.6061 25.3211 41.611 25.3153 41.6229 25.3165C41.6346 25.3176 41.6381 25.3231 41.6386 25.342C41.64 25.3871 41.6397 25.4324 41.6428 25.4772C41.6502 25.5821 41.6804 25.6739 41.7393 25.7458C41.7592 25.7701 41.7827 25.7897 41.806 25.8081C41.8148 25.815 41.8281 25.8153 41.8388 25.8132C41.8444 25.812 41.8501 25.8001 41.8535 25.7914C41.8646 25.7633 41.8697 25.7326 41.8737 25.7014C41.881 25.6444 41.8904 25.5879 41.8964 25.5307C41.9009 25.4881 41.9035 25.4451 41.894 25.402C41.8874 25.3718 41.8917 25.3413 41.899 25.3106C41.9036 25.2909 41.9024 25.268 41.9014 25.2467C41.898 25.1698 41.8941 25.0929 41.8893 25.0161C41.884 24.9299 41.8775 24.8438 41.8715 24.7577C41.8711 24.7511 41.8705 24.7446 41.8705 24.738C41.8697 24.652 41.8689 24.5659 41.8683 24.4799C41.8682 24.4701 41.869 24.4602 41.8696 24.4504C41.8705 24.4371 41.875 24.4272 41.8852 24.4233H41.8895Z" fill="white"/>
</g>
<path fill-rule="evenodd" clip-rule="evenodd" d="M42.9428 25.0764C42.9432 25.0839 42.9437 25.0886 42.9436 25.0933C42.9432 25.1307 42.9573 25.1594 42.9775 25.182C43.0072 25.2152 43.04 25.242 43.0791 25.2519C43.0812 25.2524 43.0836 25.2525 43.0852 25.2541C43.088 25.2568 43.0902 25.2605 43.0927 25.2638C43.0899 25.2667 43.0872 25.2719 43.0843 25.2722C43.0735 25.273 43.062 25.2753 43.0518 25.2715C43.0054 25.2546 42.9623 25.2285 42.9317 25.1765C42.911 25.1413 42.8966 25.1017 42.8926 25.0565C42.8911 25.04 42.8951 25.027 42.9034 25.0142C42.9217 24.9856 42.9448 24.9675 42.971 24.9556C42.997 24.9439 43.0222 24.9267 43.0505 24.9273C43.0753 24.9277 43.1002 24.9284 43.1246 24.9331C43.157 24.9392 43.1783 24.9687 43.1831 25.0078C43.1835 25.0111 43.1841 25.0145 43.1837 25.0176C43.1829 25.0228 43.1814 25.0279 43.1802 25.033C43.1764 25.0303 43.1713 25.0288 43.169 25.0247C43.1371 24.9681 43.0933 24.9563 43.0457 24.9732C43.015 24.9841 42.9859 25.0042 42.9572 25.0233C42.9439 25.0322 42.9435 25.0536 42.9428 25.0722C42.9427 25.0745 42.9428 25.0769 42.9428 25.0764Z" fill="white"/>
<path fill-rule="evenodd" clip-rule="evenodd" d="M39.9226 14.1963H44.6917V13.6191H39.9226V14.1963Z" fill="white"/>
<path fill-rule="evenodd" clip-rule="evenodd" d="M39.9226 15.3199H44.6917V14.7427H39.9226V15.3199Z" fill="white"/>
<path fill-rule="evenodd" clip-rule="evenodd" d="M46.8287 27.198H45.7854C45.6206 27.198 45.4871 27.0207 45.4871 26.8022V24.8631C45.4871 24.6445 45.6206 24.4673 45.7854 24.4673H46.8287C46.9933 24.4673 47.1269 24.6445 47.1269 24.8631V26.8022C47.1269 27.0207 46.9933 27.198 46.8287 27.198Z" fill="white"/>
<path fill-rule="evenodd" clip-rule="evenodd" d="M39.9226 21.2569H44.6917V20.6797H39.9226V21.2569Z" fill="white"/>
<path fill-rule="evenodd" clip-rule="evenodd" d="M39.9226 18.7794H47.1269V18.2021H39.9226V18.7794Z" fill="white"/>
<path fill-rule="evenodd" clip-rule="evenodd" d="M39.9226 19.9732H47.1269V19.396H39.9226V19.9732Z" fill="white"/>
<mask id="mask29_7187_23107" style="mask-type:alpha" maskUnits="userSpaceOnUse" x="45" y="11" width="4" height="5">
<path fill-rule="evenodd" clip-rule="evenodd" d="M45.5413 14.4376C45.5408 14.9689 45.865 15.4003 46.2654 15.401L48.2457 15.4053L45.5428 11.8179L45.5413 14.4376Z" fill="white"/>
</mask>
<g mask="url(#mask29_7187_23107)">
<path fill-rule="evenodd" clip-rule="evenodd" d="M45.5413 14.4376C45.5408 14.9689 45.865 15.4003 46.2654 15.401L48.2457 15.4053L45.5428 11.8179L45.5413 14.4376Z" fill="url(#paint24_linear_7187_23107)"/>
</g>
<path fill-rule="evenodd" clip-rule="evenodd" d="M49.9903 11.8246L44.7627 9.75007C44.3685 9.59362 43.9368 9.91547 43.7984 10.4691L40.248 24.6731C40.1096 25.2268 40.317 25.8023 40.7113 25.9587L47.8975 28.8106C48.2919 28.9671 48.7237 28.6453 48.8621 28.0916L51.7933 16.3648L50.1848 11.9018L49.9903 11.8246Z" fill="#6094CC"/>
<mask id="mask30_7187_23107" style="mask-type:alpha" maskUnits="userSpaceOnUse" x="41" y="22" width="6" height="5">
<path fill-rule="evenodd" clip-rule="evenodd" d="M42.2857 22.0181L46.1864 23.5098L45.4233 26.2799L41.5226 24.7882L42.2857 22.0181Z" fill="white"/>
</mask>
<g mask="url(#mask30_7187_23107)">
<path fill-rule="evenodd" clip-rule="evenodd" d="M43.8367 23.7236C43.8337 23.7282 43.8314 23.7308 43.8299 23.7341C43.808 23.7811 43.786 23.8279 43.765 23.8755C43.7624 23.8815 43.7634 23.8933 43.7663 23.9003C43.7787 23.9294 43.7924 23.9578 43.8059 23.9863C43.8082 23.991 43.8121 23.9947 43.8173 24.0015C43.8201 23.9891 43.8228 23.9807 43.8238 23.9718C43.8264 23.9462 43.8273 23.9201 43.8306 23.8947C43.835 23.8608 43.841 23.8273 43.8462 23.7936C43.8498 23.7707 43.8463 23.7484 43.8367 23.7236ZM42.9399 24.6549C42.9436 24.6588 42.9452 24.6619 42.947 24.6623C42.9636 24.6662 42.9804 24.6721 42.9969 24.6728C43.0849 24.6764 43.1729 24.6796 43.2608 24.6812C43.3044 24.6819 43.3478 24.68 43.391 24.6774C43.4165 24.6758 43.4296 24.655 43.4282 24.6231C43.4279 24.6149 43.4267 24.6061 43.4162 24.6074C43.3625 24.6138 43.3086 24.6193 43.2549 24.6261C43.1542 24.6388 43.0536 24.6525 42.9512 24.6533C42.9482 24.6533 42.9453 24.6541 42.9399 24.6549ZM43.8081 24.1896C43.8081 24.1817 43.8087 24.1717 43.8079 24.1618C43.8062 24.1404 43.8042 24.119 43.8017 24.0977C43.8007 24.0895 43.7993 24.0807 43.7961 24.0735C43.7788 24.0343 43.7609 23.9955 43.743 23.9568C43.7413 23.9529 43.7378 23.9502 43.7352 23.9469C43.7325 23.9507 43.7287 23.9537 43.7274 23.9582C43.7191 23.9872 43.7104 24.0161 43.7038 24.0459C43.6972 24.0757 43.69 24.1059 43.6883 24.137C43.6868 24.1654 43.6926 24.1952 43.6945 24.2244C43.6969 24.26 43.7175 24.278 43.742 24.2649C43.7495 24.2609 43.7572 24.2574 43.7639 24.2521C43.7828 24.2375 43.7981 24.2185 43.8081 24.1896ZM43.7486 23.6016C43.7267 23.5952 43.7111 23.5889 43.6954 23.5865C43.6695 23.5826 43.6547 23.599 43.648 23.627C43.6405 23.6584 43.6505 23.6868 43.6643 23.7128C43.6863 23.7546 43.7105 23.7947 43.7343 23.8351C43.7429 23.8497 43.7512 23.8493 43.7581 23.8353C43.78 23.7909 43.8019 23.7464 43.8235 23.7019C43.833 23.6824 43.8328 23.6717 43.8171 23.6572C43.7936 23.6356 43.7683 23.6174 43.7486 23.6016ZM43.776 22.8034C43.7881 22.8169 43.791 22.834 43.7896 22.8509C43.7879 22.8704 43.7846 22.8897 43.7804 22.9084C43.7668 22.9692 43.7517 23.0293 43.7385 23.0903C43.7264 23.146 43.7154 23.2021 43.705 23.2585C43.6901 23.3385 43.6763 23.4188 43.6621 23.499C43.6594 23.514 43.657 23.529 43.6547 23.5441C43.6538 23.5494 43.6536 23.5549 43.653 23.5612C43.6844 23.5612 43.7144 23.5676 43.7444 23.5771C43.7796 23.5882 43.8108 23.6071 43.8363 23.6415C43.8478 23.657 43.851 23.6566 43.8568 23.6385C43.8691 23.6002 43.8802 23.5613 43.8924 23.5229C43.9082 23.4729 43.9246 23.4231 43.9409 23.3733C43.9429 23.3671 43.9458 23.3614 43.9485 23.3556C43.9524 23.3472 43.9574 23.3425 43.9666 23.3481C43.9752 23.3533 43.9812 23.3613 43.9794 23.3721C43.9769 23.387 43.9733 23.4018 43.9683 23.4154C43.9439 23.4824 43.9247 23.5522 43.9053 23.6221C43.8704 23.7481 43.8561 23.8815 43.8404 24.0145C43.8371 24.0426 43.8377 24.0691 43.8482 24.0964C43.8628 24.1342 43.8596 24.1691 43.8459 24.2028C43.8408 24.2154 43.8377 24.2295 43.835 24.2435C43.8341 24.248 43.837 24.2542 43.8382 24.2596C43.8425 24.2574 43.8488 24.2567 43.8507 24.2527C43.8599 24.2328 43.8689 24.2126 43.8762 24.1915C43.9227 24.0586 43.9686 23.9254 44.0148 23.7924C44.018 23.7831 44.0216 23.7741 44.0256 23.7654C44.0285 23.7591 44.0321 23.7539 44.04 23.7582C44.048 23.7625 44.0551 23.7678 44.0543 23.7793C44.0537 23.7891 44.0516 23.7987 44.0491 23.8078C44.0375 23.8488 44.0252 23.8894 44.0137 23.9304C43.9971 23.9893 43.9914 24.0512 43.9981 24.116C43.9986 24.1206 43.9997 24.1257 44.0017 24.1297C44.0086 24.1439 44.013 24.1448 44.0201 24.1323C44.0393 24.0987 44.058 24.0646 44.0769 24.0307C44.0793 24.0263 44.0815 24.0215 44.0844 24.0175C44.0942 24.0035 44.1114 24.0078 44.118 24.0262C44.1213 24.0356 44.123 24.0458 44.1257 24.0555C44.1313 24.0762 44.1368 24.097 44.1433 24.1175C44.1446 24.1218 44.1495 24.1259 44.1534 24.1277C44.1548 24.1284 44.1584 24.1224 44.1601 24.1188C44.1659 24.1062 44.1704 24.0924 44.1773 24.0808C44.1842 24.069 44.1953 24.0657 44.2074 24.073C44.2166 24.0784 44.2254 24.0852 44.2339 24.0923C44.24 24.0975 44.245 24.1046 44.2508 24.1104C44.264 24.1238 44.2666 24.1234 44.2801 24.1145C44.2944 24.1049 44.3095 24.0968 44.3241 24.088C44.3284 24.0854 44.3324 24.0826 44.3397 24.0778C44.3326 24.0734 44.3283 24.0702 44.3237 24.0682C44.3097 24.0619 44.2951 24.0576 44.2816 24.0497C44.2659 24.0406 44.2598 24.0218 44.2636 24.0045C44.2662 23.9929 44.273 23.988 44.2819 23.988C44.309 23.9881 44.3361 23.991 44.3619 24.0067C44.3678 24.0102 44.373 24.0174 44.3773 24.0241C44.3843 24.0349 44.3927 24.041 44.4032 24.0427C44.4665 24.0529 44.5299 24.0638 44.5932 24.0729C44.6889 24.0867 44.7847 24.0976 44.8804 24.1129C44.9571 24.1252 45.0338 24.1425 45.1105 24.1571C45.1955 24.1733 45.2807 24.1859 45.3654 24.2056C45.5128 24.2398 45.6612 24.2621 45.8075 24.3105C45.8457 24.3231 45.8837 24.3379 45.9212 24.3544C45.965 24.3735 46.0081 24.3954 46.0514 24.4165C46.0569 24.4193 46.0619 24.4247 46.0671 24.4289L46.0642 24.4411C46.0582 24.4468 46.0516 24.4453 46.0443 24.4422C45.9886 24.4189 45.9333 24.3923 45.8769 24.3738C45.7979 24.348 45.7184 24.3238 45.6387 24.3067C45.4534 24.2671 45.2678 24.2316 45.0823 24.1955C44.9038 24.1608 44.7251 24.137 44.5464 24.1138C44.4995 24.1077 44.4526 24.0967 44.4057 24.0876C44.393 24.0851 44.3824 24.0879 44.3722 24.0964C44.3457 24.1187 44.3184 24.1397 44.2917 24.1617C44.2727 24.1773 44.2582 24.1739 44.2373 24.1531C44.2273 24.1432 44.2191 24.1304 44.209 24.1176C44.2061 24.1219 44.2032 24.1256 44.2009 24.1298C44.1971 24.1367 44.194 24.1442 44.1903 24.1511C44.1682 24.1917 44.121 24.1838 44.1014 24.1357C44.0964 24.1234 44.0938 24.1099 44.0909 24.0995C44.0757 24.1248 44.0598 24.1524 44.043 24.1791C44.0224 24.2115 43.9845 24.2007 43.9702 24.1589C43.9605 24.1307 43.9559 24.1018 43.954 24.0714C43.9447 24.0962 43.935 24.1208 43.9261 24.146C43.9174 24.171 43.9095 24.1965 43.9011 24.2218C43.8917 24.2503 43.877 24.2738 43.8585 24.2937C43.8417 24.3119 43.8223 24.304 43.8094 24.2837C43.7986 24.2667 43.7978 24.2667 43.7841 24.2757C43.7769 24.2804 43.7699 24.2855 43.7625 24.2897C43.7152 24.3166 43.6517 24.274 43.6485 24.2013C43.6466 24.1558 43.6532 24.1127 43.6624 24.0705C43.6717 24.0278 43.6839 23.9868 43.7014 23.9487C43.7056 23.9395 43.7075 23.9282 43.7093 23.9175C43.71 23.9137 43.7083 23.9079 43.7061 23.9043C43.6811 23.8639 43.6557 23.8237 43.6303 23.7836C43.6276 23.7792 43.6239 23.7757 43.6182 23.769C43.6141 23.792 43.6106 23.8113 43.6071 23.8306C43.5968 23.8874 43.5865 23.9443 43.5761 24.0011C43.5592 24.0932 43.5426 24.1854 43.5252 24.2772C43.5167 24.3224 43.5058 24.3665 43.4973 24.4117C43.4879 24.4617 43.4797 24.5123 43.4715 24.5629C43.4687 24.58 43.4704 24.5808 43.485 24.5796C43.578 24.572 43.6713 24.5671 43.7655 24.5703C43.8585 24.5733 43.9514 24.5752 44.0445 24.5809C44.1213 24.5856 44.1982 24.596 44.2751 24.6024C44.3142 24.6057 44.3531 24.6057 44.3922 24.6077C44.4007 24.6081 44.4094 24.6107 44.4178 24.6123C44.4195 24.6319 44.4097 24.631 44.4008 24.6308C44.344 24.6292 44.2872 24.6275 44.2305 24.6259C44.0925 24.622 43.9542 24.6152 43.8165 24.6154C43.7086 24.6156 43.6013 24.6236 43.494 24.6302C43.4503 24.6329 43.4556 24.6323 43.4469 24.6824C43.434 24.7569 43.4221 24.8318 43.4102 24.9066C43.3978 24.9848 43.3828 25.0623 43.3827 25.1441C43.3827 25.1575 43.3848 25.1712 43.3846 25.1846C43.3844 25.1987 43.3833 25.2128 43.3813 25.2264C43.3807 25.2308 43.3755 25.2375 43.3733 25.2367C43.368 25.235 43.3608 25.2306 43.3587 25.2252C43.3548 25.2148 43.3523 25.203 43.352 25.1919C43.3507 25.1505 43.3485 25.1088 43.3504 25.068C43.3522 25.032 43.3583 24.9968 43.3636 24.9616C43.3729 24.8991 43.3829 24.8368 43.393 24.7746C43.3992 24.7362 43.4063 24.6981 43.4126 24.6597C43.4163 24.6377 43.4125 24.6333 43.3943 24.633C43.2951 24.6312 43.1957 24.6292 43.0964 24.6269C43.0184 24.625 42.9406 24.6116 42.8631 24.5902C42.8422 24.5844 42.8219 24.572 42.8018 24.5609C42.7968 24.5581 42.7911 24.5483 42.7906 24.5419C42.7899 24.5307 42.795 24.5216 42.8051 24.5195C42.8086 24.5189 42.812 24.5179 42.8155 24.5179C42.8612 24.5182 42.9069 24.5196 42.9525 24.519C42.9949 24.5183 43.0372 24.517 43.0793 24.5136C43.1776 24.5056 43.2757 24.4963 43.3738 24.4873C43.394 24.4855 43.4141 24.4831 43.4343 24.4807C43.4429 24.4797 43.4471 24.4732 43.4492 24.4631C43.4627 24.3977 43.4767 24.3325 43.4904 24.2672C43.4985 24.2282 43.5072 24.1894 43.5144 24.15C43.5294 24.0687 43.5437 23.9872 43.5581 23.9057C43.5629 23.8787 43.5672 23.8515 43.5717 23.8244C43.5724 23.82 43.5726 23.8155 43.5714 23.8106C43.5587 23.8437 43.5463 23.877 43.5331 23.9097C43.5232 23.934 43.5126 23.9578 43.5015 23.9812C43.497 23.9907 43.4909 23.9994 43.4843 24.0071C43.4599 24.0358 43.4421 24.0425 43.3993 24.011C43.3903 24.0044 43.3822 23.9946 43.3753 23.9846C43.3449 23.9412 43.3176 23.8944 43.3021 23.8419C43.291 23.8045 43.2888 23.7642 43.2831 23.7252C43.2817 23.7155 43.2819 23.7056 43.2812 23.6922C43.2761 23.6973 43.2731 23.6997 43.2706 23.7027C43.2099 23.7791 43.1303 23.8116 43.043 23.8228C42.9201 23.8385 42.7978 23.8132 42.6775 23.7569C42.619 23.7296 42.5601 23.7015 42.5041 23.6661C42.4336 23.6217 42.3631 23.5755 42.3015 23.5105C42.2857 23.4938 42.2692 23.478 42.2523 23.4629C42.184 23.4018 42.1272 23.3251 42.0701 23.2498C42.0412 23.2118 42.0177 23.1659 41.9979 23.1202C41.9586 23.0296 41.9213 22.9378 41.8949 22.8412C41.8928 22.8336 41.8908 22.8259 41.8889 22.8182C41.8857 22.8054 41.89 22.7965 41.8971 22.789C41.9037 22.7819 41.9116 22.7853 41.918 22.7901C41.9293 22.7985 41.9407 22.8077 41.9503 22.8188C41.9664 22.8373 41.9809 22.8578 41.9965 22.8769C42.0134 22.8976 42.0312 22.9173 42.0477 22.9384C42.0544 22.947 42.0615 22.9578 42.0637 22.9685C42.0673 22.9854 42.0622 22.9923 42.0504 22.9849C42.0411 22.9791 42.0314 22.972 42.0244 22.9627C42.0051 22.9368 41.9849 22.9126 41.9609 22.8937C41.9585 22.8918 41.956 22.8902 41.951 22.8865C41.9531 22.8952 41.9541 22.901 41.9559 22.9064C41.9902 23.0122 42.0345 23.112 42.0924 23.2036C42.1285 23.2606 42.1713 23.3099 42.2143 23.3589C42.3049 23.4622 42.4036 23.5508 42.5112 23.6229C42.5442 23.645 42.5791 23.6623 42.6132 23.682C42.6689 23.7141 42.7263 23.7378 42.7852 23.7536C42.8607 23.7739 42.9365 23.7844 43.0121 23.7851C43.0313 23.7853 43.05 23.7789 43.0687 23.7743C43.0851 23.7704 43.1009 23.7642 43.1172 23.7601C43.2065 23.7377 43.2642 23.6735 43.2907 23.5676C43.2971 23.5421 43.303 23.5164 43.3092 23.4909C43.311 23.4837 43.3131 23.4765 43.3157 23.4697C43.3214 23.4544 43.3274 23.4516 43.3387 23.4579C43.3498 23.4641 43.3521 23.4704 43.3488 23.4871C43.341 23.5267 43.3317 23.5658 43.3258 23.606C43.3119 23.7001 43.3228 23.7931 43.3655 23.8816C43.3798 23.9115 43.3987 23.939 43.4176 23.9653C43.4247 23.9752 43.4376 23.9815 43.4483 23.9843C43.454 23.9859 43.4619 23.978 43.4669 23.9721C43.4833 23.9527 43.4944 23.9284 43.5045 23.9031C43.523 23.857 43.5435 23.8123 43.5608 23.7654C43.5737 23.7305 43.5848 23.6945 43.5843 23.653C43.5839 23.6239 43.5942 23.5993 43.6074 23.576C43.6158 23.561 43.6192 23.5407 43.6226 23.5218C43.6346 23.4536 43.6463 23.3853 43.6571 23.3166C43.6692 23.2396 43.6801 23.1622 43.6916 23.085C43.6925 23.0791 43.6933 23.0732 43.6946 23.0675C43.711 22.9926 43.7275 22.9178 43.7442 22.843C43.7461 22.8344 43.7488 22.8262 43.7514 22.818C43.7549 22.8069 43.7612 22.8004 43.7719 22.8015L43.776 22.8034Z" fill="white"/>
</g>
<path fill-rule="evenodd" clip-rule="evenodd" d="M44.6771 23.7368C44.6755 23.7444 44.6748 23.7492 44.6735 23.7538C44.6632 23.7907 44.6684 23.8239 44.6807 23.8533C44.6988 23.8966 44.7215 23.9345 44.7542 23.958C44.756 23.9593 44.7581 23.9602 44.7592 23.9623C44.761 23.966 44.762 23.9704 44.7634 23.9745C44.7601 23.9764 44.7563 23.9806 44.7536 23.9799C44.7436 23.9769 44.7326 23.9751 44.7244 23.9678C44.6868 23.9348 44.6547 23.8939 44.6408 23.8318C44.6313 23.7898 44.6287 23.7456 44.637 23.6995C44.64 23.6828 44.6471 23.6714 44.6579 23.6616C44.6821 23.6397 44.7077 23.6299 44.7345 23.6274C44.7612 23.6249 44.7885 23.6168 44.814 23.6273C44.8362 23.6364 44.8586 23.6458 44.8794 23.659C44.9071 23.6764 44.9186 23.7129 44.9126 23.7533C44.9121 23.7567 44.9118 23.7603 44.9106 23.7632C44.9085 23.7681 44.9058 23.7725 44.9034 23.7772C44.9007 23.7731 44.8965 23.7699 44.8955 23.765C44.8815 23.698 44.845 23.671 44.7975 23.671C44.7668 23.671 44.7352 23.6806 44.7042 23.6894C44.6899 23.6935 44.6838 23.7146 44.6783 23.7327C44.6776 23.735 44.677 23.7373 44.6771 23.7368Z" fill="white"/>
<path fill-rule="evenodd" clip-rule="evenodd" d="M44.1798 12.191L48.7222 14.0076L48.8675 13.4216L44.3251 11.605L44.1798 12.191Z" fill="white"/>
<path fill-rule="evenodd" clip-rule="evenodd" d="M43.9323 13.2657L48.4747 15.0823L48.62 14.4963L44.0776 12.6797L43.9323 13.2657Z" fill="white"/>
<path fill-rule="evenodd" clip-rule="evenodd" d="M47.8694 27.2783L46.911 26.8984C46.7596 26.8384 46.68 26.6177 46.7331 26.4055L47.2041 24.5233C47.2572 24.3112 47.4229 24.1878 47.5743 24.2478L48.5327 24.6277C48.684 24.6877 48.7636 24.9084 48.7105 25.1205L48.2395 27.0027C48.1864 27.2148 48.0207 27.3383 47.8694 27.2783Z" fill="white"/>
<path fill-rule="evenodd" clip-rule="evenodd" d="M42.6244 18.9435L47.1668 20.7601L47.3122 20.174L42.7698 18.3574L42.6244 18.9435Z" fill="white"/>
<path fill-rule="evenodd" clip-rule="evenodd" d="M43.1702 16.5769L50.0413 19.3354L50.1868 18.7463L43.3158 15.9878L43.1702 16.5769Z" fill="white"/>
<path fill-rule="evenodd" clip-rule="evenodd" d="M42.9072 17.719L49.7782 20.4775L49.9238 19.8884L43.0527 17.1299L42.9072 17.719Z" fill="white"/>
<mask id="mask31_7187_23107" style="mask-type:alpha" maskUnits="userSpaceOnUse" x="49" y="12" width="3" height="5">
<path fill-rule="evenodd" clip-rule="evenodd" d="M49.5281 14.6229C49.3951 15.1419 49.5848 15.6803 49.9519 15.8254L51.7675 16.5436L50.1835 12.064L49.5281 14.6229Z" fill="white"/>
</mask>
<g mask="url(#mask31_7187_23107)">
<path fill-rule="evenodd" clip-rule="evenodd" d="M49.5281 14.6229C49.3951 15.1419 49.5848 15.6803 49.9519 15.8254L51.7675 16.5436L50.1835 12.064L49.5281 14.6229Z" fill="url(#paint25_linear_7187_23107)"/>
</g>
</g>
<defs>
<linearGradient id="paint0_linear_7187_23107" x1="55.5892" y1="43.8641" x2="28.9042" y2="99.7384" gradientUnits="userSpaceOnUse">
<stop stop-color="#3E9BD7"/>
<stop offset="1" stop-color="#1D62AE"/>
</linearGradient>
<linearGradient id="paint1_linear_7187_23107" x1="24.3057" y1="45.0302" x2="37.7323" y2="61.5157" gradientUnits="userSpaceOnUse">
<stop stop-color="#C6E4F9"/>
<stop offset="1" stop-color="#319EF9"/>
</linearGradient>
<linearGradient id="paint2_linear_7187_23107" x1="35.8367" y1="67.8456" x2="7.94599" y2="76.9257" gradientUnits="userSpaceOnUse">
<stop stop-color="#C6E4F9"/>
<stop offset="1" stop-color="#319EF9"/>
</linearGradient>
<linearGradient id="paint3_linear_7187_23107" x1="8.25549" y1="67.0882" x2="8.83784" y2="50.3993" gradientUnits="userSpaceOnUse">
<stop stop-color="#C6E4F9"/>
<stop offset="1" stop-color="#319EF9"/>
</linearGradient>
<linearGradient id="paint4_linear_7187_23107" x1="-6.05291" y1="53.9732" x2="-5.71951" y2="42.0696" gradientUnits="userSpaceOnUse">
<stop stop-color="#C6E4F9"/>
<stop offset="1" stop-color="#319EF9"/>
</linearGradient>
<linearGradient id="paint5_linear_7187_23107" x1="-28.9792" y1="58.8289" x2="-28.399" y2="32.0621" gradientUnits="userSpaceOnUse">
<stop stop-color="#C6E4F9"/>
<stop offset="1" stop-color="#319EF9"/>
</linearGradient>
<linearGradient id="paint6_linear_7187_23107" x1="-11.3545" y1="56.8628" x2="-9.29764" y2="43.2437" gradientUnits="userSpaceOnUse">
<stop stop-color="#C6E4F9"/>
<stop offset="1" stop-color="#319EF9"/>
</linearGradient>
<linearGradient id="paint7_linear_7187_23107" x1="-6.43038" y1="50.645" x2="-6.14599" y2="39.7744" gradientUnits="userSpaceOnUse">
<stop stop-color="#C6E4F9"/>
<stop offset="1" stop-color="#319EF9"/>
</linearGradient>
<linearGradient id="paint8_linear_7187_23107" x1="28.7708" y1="55.2114" x2="28.7708" y2="61.635" gradientUnits="userSpaceOnUse">
<stop stop-color="#E2AD32"/>
<stop offset="1" stop-color="#DC8F30"/>
</linearGradient>
<linearGradient id="paint9_linear_7187_23107" x1="28.0001" y1="36.9686" x2="37.0767" y2="49.4081" gradientUnits="userSpaceOnUse">
<stop stop-color="#1D62AE"/>
<stop offset="1" stop-color="#124781"/>
</linearGradient>
<linearGradient id="paint10_linear_7187_23107" x1="31.5866" y1="58.0354" x2="34.1135" y2="64.6787" gradientUnits="userSpaceOnUse">
<stop stop-color="#1D62AE"/>
<stop offset="1" stop-color="#124781"/>
</linearGradient>
<linearGradient id="paint11_linear_7187_23107" x1="21.0425" y1="56.8369" x2="21.0425" y2="63.3394" gradientUnits="userSpaceOnUse">
<stop stop-color="#E2AD32"/>
<stop offset="1" stop-color="#DC8F30"/>
</linearGradient>
<linearGradient id="paint12_linear_7187_23107" x1="20.0572" y1="34.4639" x2="31.5488" y2="51.039" gradientUnits="userSpaceOnUse">
<stop stop-color="#1D62AE"/>
<stop offset="1" stop-color="#3E9BD7"/>
</linearGradient>
<linearGradient id="paint13_linear_7187_23107" x1="18.8473" y1="13.3208" x2="18.8473" y2="22.6434" gradientUnits="userSpaceOnUse">
<stop stop-color="#EFD6D4"/>
<stop offset="1" stop-color="#D7C1B9"/>
</linearGradient>
<linearGradient id="paint14_linear_7187_23107" x1="23.7712" y1="60.1489" x2="26.1758" y2="66.5913" gradientUnits="userSpaceOnUse">
<stop stop-color="#1D62AE"/>
<stop offset="1" stop-color="#124781"/>
</linearGradient>
<linearGradient id="paint15_linear_7187_23107" x1="24.5192" y1="16.7374" x2="33.0987" y2="36.7413" gradientUnits="userSpaceOnUse">
<stop stop-color="#3E9BD7"/>
<stop offset="1" stop-color="#1D62AE"/>
</linearGradient>
<linearGradient id="paint16_linear_7187_23107" x1="7.56322" y1="31.0497" x2="13.6602" y2="33.9202" gradientUnits="userSpaceOnUse">
<stop stop-color="#3C98D5"/>
<stop offset="1" stop-color="#1D62AE"/>
</linearGradient>
<linearGradient id="paint17_linear_7187_23107" x1="23.6215" y1="16.0054" x2="23.6215" y2="20.036" gradientUnits="userSpaceOnUse">
<stop stop-color="#E2AD32"/>
<stop offset="1" stop-color="#DC8F30"/>
</linearGradient>
<linearGradient id="paint18_linear_7187_23107" x1="19.2441" y1="15.1543" x2="19.2441" y2="24.026" gradientUnits="userSpaceOnUse">
<stop stop-color="#D7C1B9"/>
<stop offset="1" stop-color="#EFD6D4"/>
</linearGradient>
<linearGradient id="paint19_linear_7187_23107" x1="23.0893" y1="16.609" x2="24.3385" y2="18.4508" gradientUnits="userSpaceOnUse">
<stop stop-color="#3E9BD7"/>
<stop offset="1" stop-color="#1D62AE"/>
</linearGradient>
<linearGradient id="paint20_linear_7187_23107" x1="19.8264" y1="16.1124" x2="21.0755" y2="17.9544" gradientUnits="userSpaceOnUse">
<stop stop-color="#3E9BD7"/>
<stop offset="1" stop-color="#1D62AE"/>
</linearGradient>
<linearGradient id="paint21_linear_7187_23107" x1="25.7004" y1="18.728" x2="25.7004" y2="24.9324" gradientUnits="userSpaceOnUse">
<stop stop-color="#EFD6D4"/>
<stop offset="1" stop-color="#D7C1B9"/>
</linearGradient>
<linearGradient id="paint22_linear_7187_23107" x1="22.4896" y1="15.106" x2="22.4896" y2="17.7463" gradientUnits="userSpaceOnUse">
<stop stop-color="#EFD6D4"/>
<stop offset="1" stop-color="#D7C1B9"/>
</linearGradient>
<linearGradient id="paint23_linear_7187_23107" x1="41.3345" y1="11.6829" x2="40.3074" y2="15.3672" gradientUnits="userSpaceOnUse">
<stop stop-color="#3E9BD7"/>
<stop offset="1" stop-color="#1D62AE"/>
</linearGradient>
<linearGradient id="paint24_linear_7187_23107" x1="46.0392" y1="11.0671" x2="44.25" y2="14.2896" gradientUnits="userSpaceOnUse">
<stop stop-color="#3E9BD7"/>
<stop offset="1" stop-color="#1D62AE"/>
</linearGradient>
<linearGradient id="paint25_linear_7187_23107" x1="50.8263" y1="11.5095" x2="48.1856" y2="13.7868" gradientUnits="userSpaceOnUse">
<stop stop-color="#3E9BD7"/>
<stop offset="1" stop-color="#1D62AE"/>
</linearGradient>
</defs>
</svg>
