<svg width="100" height="100" viewBox="0 0 100 100" fill="none" xmlns="http://www.w3.org/2000/svg">
<mask id="mask0_7187_23352" style="mask-type:alpha" maskUnits="userSpaceOnUse" x="0" y="0" width="100" height="100">
<rect width="100" height="100" fill="white"/>
</mask>
<g mask="url(#mask0_7187_23352)">
<mask id="mask1_7187_23352" style="mask-type:alpha" maskUnits="userSpaceOnUse" x="1" y="8" width="99" height="92">
<path fill-rule="evenodd" clip-rule="evenodd" d="M31.5561 19.8934C23.2544 19.2952 17.6787 18.6973 10.3269 28.3084C-8.01399 52.2857 8.13374 78.3684 13.9551 86.993C24.4063 101.476 38.2357 104.351 51.493 90.1782C69.5241 70.1681 77.2149 76.5569 77.2149 76.5569C79.2064 79.1035 86.7984 83.0116 88.8259 77.2334C90.7254 71.8198 89.1432 59.5934 94.4104 50.755C103.479 35.5372 102.359 8.16278 82.7458 8.16504C78.4122 8.16532 73.1736 9.50225 66.9452 12.6023C49.9914 21.0405 39.5195 20.4667 31.5561 19.8934Z" fill="white"/>
</mask>
<g mask="url(#mask1_7187_23352)">
<path fill-rule="evenodd" clip-rule="evenodd" d="M10.327 28.3084C24.7313 9.47738 32.6704 31.0368 66.9452 12.6026C101.22 -5.83183 104.247 34.4732 94.2406 50.9568C88.7828 59.9479 90.7254 71.8198 88.8259 77.2337C86.7984 83.0119 79.2066 79.1032 77.2149 76.5572C77.2149 76.5572 69.524 70.1681 51.493 90.1782C38.2356 104.351 24.4063 101.476 13.9551 86.993C8.13371 78.3684 -8.01423 52.286 10.327 28.3084Z" fill="#E8F4FF"/>
</g>
<path fill-rule="evenodd" clip-rule="evenodd" d="M13.481 45.2387C14.1785 44.5517 16.0324 42.2704 14.9946 38.2056C14.9946 38.2056 12.2337 40.5 13.0883 44.8438C12.7136 46.5699 11.5783 49.1773 10.1286 52.0511C10.3738 50.4188 10.3426 47.4174 7.66269 44.8395C7.66269 44.8395 6.11691 49.5024 9.6218 53.0422C8.19782 55.7919 6.54109 58.7149 5.02168 61.3013C5.73566 59.1102 6.34833 55.2484 3.88595 51.2964C3.88595 51.2964 0.494981 56.6621 4.08767 62.8788C3.80894 63.346 3.53821 63.7967 3.27811 64.2272C3.30422 64.3402 3.37997 64.6273 3.42649 64.8035C3.43854 64.8492 3.44863 64.8874 3.45539 64.9133C4.63686 62.9659 6.05853 60.571 7.46081 58.0826C8.36019 59.2107 11.5894 62.5559 16.076 59.1519C16.076 59.1519 12.6474 54.2868 7.94043 57.2262C9.48135 54.4578 10.9624 51.6245 12.0332 49.2034C12.7135 50.0081 14.7316 51.8753 17.487 49.7846C17.487 49.7846 15.3235 46.7147 12.3403 48.4935C12.8631 47.2555 13.2608 46.1468 13.481 45.2387ZM4.14069 67.296C5.78398 68.1837 8.53015 68.7443 11.4854 65.5303C11.4854 65.5303 7.68095 61.6716 3.52117 65.1654C3.61477 65.5417 4.09721 67.1988 4.14069 67.296Z" fill="#AAC6DA"/>
<path opacity="0.640671" fill-rule="evenodd" clip-rule="evenodd" d="M98.8998 36.4572C97.5481 33.2724 94.7783 29.681 89.103 28.2935C89.103 28.2935 86.0728 38.8012 94.0862 45.6281C94.7125 46.1616 95.4063 46.6727 96.1743 47.1546C98.3954 41.4829 98.7365 37.5624 98.8998 36.4572Z" fill="#84B3E6"/>
<path opacity="0.763951" fill-rule="evenodd" clip-rule="evenodd" d="M92.9046 53.5257C90.7497 53.3838 87.2378 52.5204 85.1089 48.6861C85.1089 48.6861 91.0402 40.1362 96.8571 44.2999C96.9943 46.9157 93.6465 51.5716 92.9046 53.5257Z" fill="#BED4EE"/>
<path opacity="0.802758" fill-rule="evenodd" clip-rule="evenodd" d="M93.2403 22.9188C93.7919 22.4431 95.2033 20.8934 94.6029 17.8711C94.6029 17.8711 92.5314 19.3392 92.9361 22.5169C92.3752 21.7902 91.859 21.2041 91.4152 20.8203C91.1952 20.0621 90.3355 17.8105 87.9255 18.0192C87.9255 18.0192 88.6351 21.0873 91.1506 21.0819C92.0077 21.7783 93.1885 23.3524 94.4503 25.269C93.6332 24.7199 92.0011 24.1346 90.0839 26.2013C90.0839 26.2013 92.2939 28.5543 94.8621 25.9022C96.0862 27.8053 97.3606 29.9702 98.4714 31.9251C97.4711 30.8196 95.4927 29.3723 92.8241 30.9945C92.8241 30.9945 95.0326 35.2323 99.0675 32.9817C99.1077 33.0533 99.1475 33.1245 99.1871 33.1953C99.1937 33.0584 99.1979 32.9699 99.2008 32.9054C99.2019 32.9047 99.2029 32.9041 99.204 32.9035C99.204 32.9035 99.203 32.9018 99.2011 32.8984C99.2037 32.8414 99.2052 32.8035 99.2068 32.7665C99.2091 32.7119 99.2113 32.6593 99.2164 32.5506C98.5766 31.4101 97.8647 30.1663 97.1269 28.9229C97.53 28.5959 98.4037 27.7661 98.9918 26.3287C98.8204 24.919 98.6285 23.6804 98.2587 22.1057C97.379 23.254 96.3542 25.3033 96.7782 28.3385C95.5824 26.3463 94.3391 24.3968 93.2403 22.9188Z" fill="#BED7EE"/>
<path opacity="0.113746" fill-rule="evenodd" clip-rule="evenodd" d="M31.443 63.8676C19.4901 60.1999 8.63384 65.5496 4.39996 68.1077C7.16523 76.5456 11.4878 83.338 13.9551 86.9933C24.4063 101.476 38.2356 104.351 51.493 90.1785C69.524 70.1684 77.2149 76.5572 77.2149 76.5572C79.2064 79.1038 86.7984 83.0119 88.8259 77.2338C90.7254 71.8201 89.1432 59.5938 94.4104 50.7554C83.256 61.1892 74.2761 77.012 31.443 63.8676Z" fill="url(#paint0_linear_7187_23352)"/>
<mask id="mask2_7187_23352" style="mask-type:alpha" maskUnits="userSpaceOnUse" x="16" y="0" width="54" height="18">
<path fill-rule="evenodd" clip-rule="evenodd" d="M16.8427 0.585938H69.1608V17.2507H16.8427V0.585938Z" fill="white"/>
</mask>
<g mask="url(#mask2_7187_23352)">
<path fill-rule="evenodd" clip-rule="evenodd" d="M19.0823 13.6309C32.6553 21.9582 68.8795 14.7761 69.158 3.65953C69.4182 -6.72875 51.8029 13.2698 39.8807 4.5988C27.4467 -4.44463 10.7516 8.51993 19.0823 13.6309Z" fill="#E8F4FF"/>
</g>
<mask id="mask3_7187_23352" style="mask-type:alpha" maskUnits="userSpaceOnUse" x="81" y="2" width="10" height="13">
<path fill-rule="evenodd" clip-rule="evenodd" d="M81.6073 8.91858C81.6073 12.2036 83.6138 14.8667 86.0888 14.8667C88.5634 14.8667 90.5701 12.2036 90.5701 8.91858C90.5701 5.63353 88.5634 2.9707 86.0888 2.9707C83.6138 2.9707 81.6073 5.63353 81.6073 8.91858Z" fill="white"/>
</mask>
<g mask="url(#mask3_7187_23352)">
<path fill-rule="evenodd" clip-rule="evenodd" d="M81.6073 8.91858C81.6073 12.2036 83.6138 14.8667 86.0888 14.8667C88.5634 14.8667 90.5701 12.2036 90.5701 8.91858C90.5701 5.63353 88.5634 2.9707 86.0888 2.9707C83.6138 2.9707 81.6073 5.63353 81.6073 8.91858Z" fill="#C4D4DB"/>
</g>
<mask id="mask4_7187_23352" style="mask-type:alpha" maskUnits="userSpaceOnUse" x="0" y="24" width="15" height="19">
<path fill-rule="evenodd" clip-rule="evenodd" d="M0.507874 33.6277C0.507874 38.6086 3.55016 42.6465 7.30288 42.6465C11.0556 42.6465 14.0979 38.6086 14.0979 33.6277C14.0979 28.6465 11.0556 24.6089 7.30288 24.6089C3.55016 24.6089 0.507874 28.6465 0.507874 33.6277Z" fill="white"/>
</mask>
<g mask="url(#mask4_7187_23352)">
<path fill-rule="evenodd" clip-rule="evenodd" d="M0.507874 33.6277C0.507874 38.6086 3.55016 42.6465 7.30288 42.6465C11.0556 42.6465 14.0979 38.6086 14.0979 33.6277C14.0979 28.6465 11.0556 24.6089 7.30288 24.6089C3.55016 24.6089 0.507874 28.6465 0.507874 33.6277Z" fill="#C4D4DB"/>
</g>
<mask id="mask5_7187_23352" style="mask-type:alpha" maskUnits="userSpaceOnUse" x="31" y="22" width="5" height="4">
<path fill-rule="evenodd" clip-rule="evenodd" d="M32.4339 22.514L32.1921 23.7166C32.083 24.3263 32.2911 24.4652 32.5138 24.5548L34.1841 25.2267C34.2005 25.2336 34.2159 25.2393 34.2319 25.2442C34.3632 25.2857 34.4765 25.2719 34.5679 25.2018C34.6812 25.1149 34.7622 24.9416 34.8076 24.6871L34.9689 23.8282L35.1464 23.903L34.944 24.9912C34.9111 25.175 34.8251 25.3281 34.7022 25.4229C34.5788 25.517 34.4362 25.5394 34.2998 25.4864L32.3217 24.7088C32.0608 24.606 31.9058 24.2501 31.9687 23.8985L32.2564 22.4395L32.4339 22.514Z" fill="white"/>
</mask>
<g mask="url(#mask5_7187_23352)">
<path fill-rule="evenodd" clip-rule="evenodd" d="M32.4339 22.514L32.1921 23.7166C32.083 24.3263 32.2911 24.4652 32.5138 24.5548L34.1841 25.2267C34.2005 25.2336 34.2159 25.2393 34.2319 25.2442C34.3632 25.2857 34.4765 25.2719 34.5679 25.2018C34.6812 25.1149 34.7622 24.9416 34.8076 24.6871L34.9689 23.8282L35.1464 23.903L34.944 24.9912C34.9111 25.175 34.8251 25.3281 34.7022 25.4229C34.5788 25.517 34.4362 25.5394 34.2998 25.4864L32.3217 24.7088C32.0608 24.606 31.9058 24.2501 31.9687 23.8985L32.2564 22.4395L32.4339 22.514Z" fill="url(#paint1_linear_7187_23352)"/>
</g>
<mask id="mask6_7187_23352" style="mask-type:alpha" maskUnits="userSpaceOnUse" x="29" y="15" width="13" height="12">
<path fill-rule="evenodd" clip-rule="evenodd" d="M39.7377 15.4224C39.786 15.4226 39.8337 15.43 39.8805 15.4449C40.2865 15.5729 40.6467 16.222 40.9021 17.1934C41.1576 18.1645 41.3099 19.4587 41.3002 20.8739C41.2911 22.3318 41.1133 23.6997 40.8001 24.7262C40.4909 25.7384 40.0888 26.294 39.6679 26.2891C39.5962 26.2883 39.5255 26.2715 39.4553 26.2389L39.4555 26.238L39.4475 26.2346C39.4112 26.2172 39.3756 26.1931 39.3401 26.1673C39.3544 26.185 39.3688 26.2059 39.3831 26.2212L29.4905 21.2557V20.9765L39.4547 15.5088L39.5001 15.4803L39.5009 15.4797C39.5768 15.4415 39.6546 15.4224 39.7331 15.4224C39.7347 15.4224 39.7363 15.4224 39.7377 15.4224Z" fill="white"/>
</mask>
<g mask="url(#mask6_7187_23352)">
<path fill-rule="evenodd" clip-rule="evenodd" d="M39.8805 15.4449C40.2865 15.5729 40.6467 16.222 40.9021 17.1934C41.1576 18.1645 41.3099 19.4587 41.3002 20.8739C41.2911 22.3318 41.1133 23.6997 40.8001 24.7262C40.4909 25.7384 40.0888 26.294 39.6679 26.2891C39.5962 26.2883 39.5255 26.2715 39.4553 26.2389L39.4475 26.2346C39.4112 26.2172 39.3756 26.1931 39.3401 26.1673C39.3544 26.185 39.3688 26.2059 39.3831 26.2212L29.4905 21.2557V20.9765L39.4547 15.5088L39.5001 15.4803C39.5768 15.4415 39.6546 15.4224 39.7331 15.4224C39.7347 15.4224 39.7363 15.4224 39.7377 15.4224C39.786 15.4226 39.8337 15.43 39.8805 15.4449Z" fill="url(#paint2_linear_7187_23352)"/>
</g>
<mask id="mask7_7187_23352" style="mask-type:alpha" maskUnits="userSpaceOnUse" x="41" y="21" width="12" height="10">
<path fill-rule="evenodd" clip-rule="evenodd" d="M52.3339 28.2239L51.1554 30.9596L41.6259 21.6807L52.3339 28.2239Z" fill="white"/>
</mask>
<g mask="url(#mask7_7187_23352)">
<path fill-rule="evenodd" clip-rule="evenodd" d="M52.3339 28.2239L51.1554 30.9596L41.6259 21.6807L52.3339 28.2239Z" fill="url(#paint3_linear_7187_23352)"/>
</g>
<mask id="mask8_7187_23352" style="mask-type:alpha" maskUnits="userSpaceOnUse" x="41" y="20" width="13" height="4">
<path fill-rule="evenodd" clip-rule="evenodd" d="M53.5624 23.2547L41.8812 20.8674L53.6556 20.106L53.5624 23.2547Z" fill="white"/>
</mask>
<g mask="url(#mask8_7187_23352)">
<path fill-rule="evenodd" clip-rule="evenodd" d="M53.5624 23.2547L41.8812 20.8674L53.6556 20.106L53.5624 23.2547Z" fill="url(#paint4_linear_7187_23352)"/>
</g>
<mask id="mask9_7187_23352" style="mask-type:alpha" maskUnits="userSpaceOnUse" x="41" y="12" width="12" height="8">
<path fill-rule="evenodd" clip-rule="evenodd" d="M52.0366 12.3379L52.9617 15.24L41.6259 19.6782L52.0366 12.3379Z" fill="white"/>
</mask>
<g mask="url(#mask9_7187_23352)">
<path fill-rule="evenodd" clip-rule="evenodd" d="M52.0366 12.3379L52.9617 15.24L41.6259 19.6782L52.0366 12.3379Z" fill="url(#paint5_linear_7187_23352)"/>
</g>
<mask id="mask10_7187_23352" style="mask-type:alpha" maskUnits="userSpaceOnUse" x="38" y="16" width="3" height="10">
<path fill-rule="evenodd" clip-rule="evenodd" d="M39.846 16.2076C40.1782 16.3124 40.4689 16.8644 40.6716 17.6943C40.8742 18.5238 40.9899 19.6317 40.9721 20.8458C40.9543 22.0961 40.7988 23.2713 40.5345 24.1553C40.2736 25.0274 39.9399 25.5089 39.5946 25.51C39.536 25.5102 39.4779 25.4965 39.4207 25.4697L39.4208 25.4689L39.4144 25.4661C39.1391 25.3296 38.8876 24.8783 38.6938 24.1615C38.5425 23.6028 38.4443 22.9197 38.3928 22.1819C39.1152 22.1585 39.6949 21.5733 39.6949 20.8501C39.6949 20.1392 39.1342 19.5635 38.4291 19.5218C38.5863 17.9297 38.9679 16.6872 39.4327 16.3105L39.5338 16.2428L39.5344 16.2421C39.5981 16.208 39.6633 16.1904 39.7289 16.1899C39.7302 16.1899 39.7315 16.1899 39.7326 16.1899C39.7709 16.1899 39.8086 16.1957 39.846 16.2076Z" fill="white"/>
</mask>
<g mask="url(#mask10_7187_23352)">
<path fill-rule="evenodd" clip-rule="evenodd" d="M39.846 16.2076C40.1782 16.3124 40.4689 16.8644 40.6716 17.6943C40.8742 18.5238 40.9899 19.6317 40.9721 20.8458C40.9543 22.0961 40.7988 23.2713 40.5345 24.1553C40.2736 25.0274 39.9399 25.5089 39.5946 25.51C39.536 25.5102 39.4779 25.4965 39.4207 25.4697L39.4208 25.4689L39.4144 25.4661C39.1391 25.3296 38.8876 24.8783 38.6938 24.1615C38.5425 23.6028 38.4443 22.9197 38.3928 22.1819C39.1152 22.1585 39.6949 21.5733 39.6949 20.8501C39.6949 20.1392 39.1342 19.5635 38.4291 19.5218C38.5863 17.9297 38.9679 16.6872 39.4327 16.3105L39.5338 16.2428L39.5344 16.2421C39.5981 16.208 39.6633 16.1904 39.7289 16.1899C39.7302 16.1899 39.7315 16.1899 39.7326 16.1899C39.7709 16.1899 39.8086 16.1957 39.846 16.2076Z" fill="url(#paint6_linear_7187_23352)"/>
</g>
<mask id="mask11_7187_23352" style="mask-type:alpha" maskUnits="userSpaceOnUse" x="38" y="19" width="2" height="4">
<path fill-rule="evenodd" clip-rule="evenodd" d="M39.4764 20.8502C39.4764 21.5735 39.1152 22.1587 38.3928 22.1821C38.3627 21.7543 38.3444 21.313 38.3511 20.8545C38.3577 20.3894 38.3872 19.946 38.4291 19.522C39.1343 19.5637 39.4764 20.1394 39.4764 20.8502Z" fill="white"/>
</mask>
<g mask="url(#mask11_7187_23352)">
<path fill-rule="evenodd" clip-rule="evenodd" d="M39.4764 20.8502C39.4764 21.5735 39.1152 22.1587 38.3928 22.1821C38.3627 21.7543 38.3444 21.313 38.3511 20.8545C38.3577 20.3894 38.3872 19.946 38.4291 19.522C39.1343 19.5637 39.4764 20.1394 39.4764 20.8502Z" fill="url(#paint7_linear_7187_23352)"/>
</g>
<mask id="mask12_7187_23352" style="mask-type:alpha" maskUnits="userSpaceOnUse" x="25" y="76" width="3" height="4">
<path fill-rule="evenodd" clip-rule="evenodd" d="M27.7563 76.3648C27.803 76.9722 27.8557 78.1863 27.912 78.5247C27.4427 78.9155 26.8687 79.6864 26.3285 79.4973C26.0215 79.3898 25.8728 79.0124 25.7035 79.2234C25.6775 78.9981 25.6794 78.8454 25.6794 78.8388L25.5522 76.3135L27.7563 76.3648Z" fill="white"/>
</mask>
<g mask="url(#mask12_7187_23352)">
<path fill-rule="evenodd" clip-rule="evenodd" d="M27.7563 76.3648C27.803 76.9722 27.8557 78.1863 27.912 78.5247C27.4427 78.9155 26.8687 79.6864 26.3285 79.4973C26.0215 79.3898 25.8728 79.0124 25.7035 79.2234C25.6775 78.9981 25.6794 78.8454 25.6794 78.8388L25.5522 76.3135L27.7563 76.3648Z" fill="url(#paint8_linear_7187_23352)"/>
</g>
<mask id="mask13_7187_23352" style="mask-type:alpha" maskUnits="userSpaceOnUse" x="17" y="74" width="4" height="5">
<path fill-rule="evenodd" clip-rule="evenodd" d="M20.0764 75.3092C20.013 75.9136 19.8474 77.1098 19.8418 77.4563C19.3163 77.6884 18.6209 78.2568 18.1298 77.9031C17.8508 77.7018 17.7739 77.2885 17.5716 77.4403C17.5863 77.2133 17.6157 77.0657 17.6168 77.0593L17.9441 74.5659L20.0764 75.3092Z" fill="white"/>
</mask>
<g mask="url(#mask13_7187_23352)">
<path fill-rule="evenodd" clip-rule="evenodd" d="M20.0764 75.3092C20.013 75.9136 19.8474 77.1098 19.8418 77.4563C19.3163 77.6884 18.6209 78.2568 18.1298 77.9031C17.8508 77.7018 17.7739 77.2885 17.5716 77.4403C17.5863 77.2133 17.6157 77.0657 17.6168 77.0593L17.9441 74.5659L20.0764 75.3092Z" fill="url(#paint9_linear_7187_23352)"/>
</g>
<mask id="mask14_7187_23352" style="mask-type:alpha" maskUnits="userSpaceOnUse" x="17" y="76" width="7" height="5">
<path fill-rule="evenodd" clip-rule="evenodd" d="M20.9644 77.2342C21.9435 78.7639 22.5777 79.0108 23.0211 79.7223C23.1826 79.9819 23.4305 81.0026 22.3316 80.7107C21.2327 80.4185 17.4793 79.1852 17.4793 79.1852C17.4793 79.1852 17.1894 79.1121 17.1852 78.4008V78.3706C17.1875 77.9843 17.2722 77.4165 17.5247 76.5838C17.5247 76.5838 17.6579 76.3157 17.7807 76.5755C17.9512 76.9365 18.3111 77.6525 18.8735 77.099C19.3863 76.594 19.6679 76.2324 19.9654 76.2324C20.2287 76.2324 20.5045 76.5157 20.9644 77.2342Z" fill="white"/>
</mask>
<g mask="url(#mask14_7187_23352)">
<path fill-rule="evenodd" clip-rule="evenodd" d="M20.9644 77.2342C21.9435 78.7639 22.5777 79.0108 23.0211 79.7223C23.1826 79.9819 23.4305 81.0026 22.3316 80.7107C21.2327 80.4185 17.4793 79.1852 17.4793 79.1852C17.4793 79.1852 17.1894 79.1121 17.1852 78.4008V78.3706C17.1875 77.9843 17.2722 77.4165 17.5247 76.5838C17.5247 76.5838 17.6579 76.3157 17.7807 76.5755C17.9512 76.9365 18.3111 77.6525 18.8735 77.099C19.3863 76.594 19.6679 76.2324 19.9654 76.2324C20.2287 76.2324 20.5045 76.5157 20.9644 77.2342Z" fill="url(#paint10_linear_7187_23352)"/>
</g>
<mask id="mask15_7187_23352" style="mask-type:alpha" maskUnits="userSpaceOnUse" x="17" y="44" width="8" height="32">
<path fill-rule="evenodd" clip-rule="evenodd" d="M20.6473 75.6749L17.415 74.8343L18.6112 45.0298C20.747 45.0134 22.2002 44.9795 24.1595 44.9795L20.6473 75.6749Z" fill="white"/>
</mask>
<g mask="url(#mask15_7187_23352)">
<path fill-rule="evenodd" clip-rule="evenodd" d="M20.6473 75.6749L17.415 74.8343L18.6112 45.0298C20.747 45.0134 22.2002 44.9795 24.1595 44.9795L20.6473 75.6749Z" fill="url(#paint11_linear_7187_23352)"/>
</g>
<mask id="mask16_7187_23352" style="mask-type:alpha" maskUnits="userSpaceOnUse" x="19" y="44" width="10" height="33">
<path fill-rule="evenodd" clip-rule="evenodd" d="M28.2209 76.4203L25.1325 76.4201L19.6807 45.0019C21.7594 45.0019 24.3162 44.96 26.2954 44.96L28.2209 76.4203Z" fill="white"/>
</mask>
<g mask="url(#mask16_7187_23352)">
<path fill-rule="evenodd" clip-rule="evenodd" d="M28.2209 76.4203L25.1325 76.4201L19.6807 45.0019C21.7594 45.0019 24.3162 44.96 26.2954 44.96L28.2209 76.4203Z" fill="url(#paint12_linear_7187_23352)"/>
</g>
<mask id="mask17_7187_23352" style="mask-type:alpha" maskUnits="userSpaceOnUse" x="18" y="22" width="9" height="24">
<path fill-rule="evenodd" clip-rule="evenodd" d="M25.997 23.8042C25.997 23.8042 26.1565 29.7768 26.2423 36.8932C26.2737 39.5078 26.2954 42.276 26.2954 44.96L19.7625 45.0189L18.6111 45.0296C19.2645 29.4548 22.5053 22.5762 22.6603 22.333C23.5988 22.98 25.7471 23.6572 25.997 23.8042Z" fill="white"/>
</mask>
<g mask="url(#mask17_7187_23352)">
<path fill-rule="evenodd" clip-rule="evenodd" d="M26.2423 36.8933C26.2737 39.5078 26.2954 42.276 26.2954 44.96L26.291 45.12C26.291 45.12 17.9564 60.8103 18.6098 45.2355C19.2632 29.6607 22.5053 22.5762 22.6603 22.333C23.5988 22.98 25.7471 23.6572 25.997 23.8042C25.997 23.8042 26.1565 29.7768 26.2423 36.8933Z" fill="url(#paint13_linear_7187_23352)"/>
</g>
<mask id="mask18_7187_23352" style="mask-type:alpha" maskUnits="userSpaceOnUse" x="18" y="27" width="9" height="19">
<path fill-rule="evenodd" clip-rule="evenodd" d="M26.2423 36.8935C26.2737 39.5081 26.2954 42.2762 26.2954 44.9602L18.9038 45.0299C18.9038 38.8042 21.2966 27.165 21.2966 27.165C21.2966 27.165 24.8056 33.6296 26.2423 36.8935Z" fill="white"/>
</mask>
<g mask="url(#mask18_7187_23352)">
<path fill-rule="evenodd" clip-rule="evenodd" d="M26.2954 44.9602L18.9038 45.0299C18.9038 38.8042 21.2966 27.165 21.2966 27.165C21.2966 27.165 24.8056 33.6296 26.2423 36.8935C26.2737 39.5081 26.2954 42.2762 26.2954 44.9602Z" fill="url(#paint14_linear_7187_23352)"/>
</g>
<mask id="mask19_7187_23352" style="mask-type:alpha" maskUnits="userSpaceOnUse" x="32" y="43" width="4" height="5">
<path fill-rule="evenodd" clip-rule="evenodd" d="M35.6207 46.6453C35.6327 46.8029 35.6045 46.9367 35.5422 47.0382C35.5361 47.0461 35.4516 47.188 35.2502 47.1933H35.242C35.0084 47.1933 34.6297 47.0061 34.058 46.2258C34.0598 46.2258 34.0598 46.223 34.0598 46.223L34.0539 46.2202C33.9351 46.0573 33.8082 45.8676 33.6712 45.6484L33.633 45.6912C33.762 45.8997 33.8827 46.0786 33.9975 46.2364C33.9754 46.2792 33.931 46.3484 33.8443 46.3646C33.6653 46.394 33.2404 46.1934 32.3643 44.5497L33.3814 43.165C33.5807 43.3816 35.5341 45.5149 35.6207 46.6453Z" fill="white"/>
</mask>
<g mask="url(#mask19_7187_23352)">
<path fill-rule="evenodd" clip-rule="evenodd" d="M35.6207 46.6453C35.6327 46.8029 35.6045 46.9367 35.5422 47.0382C35.5361 47.0461 35.4516 47.188 35.2502 47.1933H35.242C35.0084 47.1933 34.6297 47.0061 34.058 46.2258C34.0598 46.2258 34.0598 46.223 34.0598 46.223L34.0539 46.2202C33.9351 46.0573 33.8082 45.8676 33.6712 45.6484L33.633 45.6912C33.762 45.8997 33.8827 46.0786 33.9975 46.2364C33.9754 46.2792 33.931 46.3484 33.8443 46.3646C33.6653 46.394 33.2404 46.1934 32.3643 44.5497L33.3814 43.165C33.5807 43.3816 35.5341 45.5149 35.6207 46.6453Z" fill="url(#paint15_linear_7187_23352)"/>
</g>
<path fill-rule="evenodd" clip-rule="evenodd" d="M21.3854 27.9897C22.054 29.1285 23.2096 31.1761 24.1943 33.2208C25.1549 35.2176 26.2038 37.6611 26.9671 40.2619C28.113 40.8874 31.984 44.5033 32.2758 44.7787L33.6191 42.9504C27.1365 32.6784 22.2151 28.6152 21.3854 27.9897Z" fill="url(#paint16_linear_7187_23352)"/>
<mask id="mask20_7187_23352" style="mask-type:alpha" maskUnits="userSpaceOnUse" x="32" y="24" width="3" height="4">
<path fill-rule="evenodd" clip-rule="evenodd" d="M32.8105 24.6654C32.9483 24.0877 33.1996 24.1407 33.4794 24.1635C33.8332 24.257 34.1416 24.3155 34.3369 24.9099C34.5158 25.9453 33.4518 27.408 33.4414 27.4374L32.0166 26.7325C32.0363 26.2533 32.2566 24.6147 32.3826 24.2806C32.4309 24.1522 32.5265 24.0693 32.6162 24.0693C32.7423 24.0693 32.8566 24.2335 32.8105 24.6654Z" fill="white"/>
</mask>
<g mask="url(#mask20_7187_23352)">
<path fill-rule="evenodd" clip-rule="evenodd" d="M32.8105 24.6654C32.9483 24.0877 33.1996 24.1407 33.4794 24.1635C33.8332 24.257 34.1416 24.3155 34.3369 24.9099C34.5158 25.9453 33.4518 27.408 33.4414 27.4374L32.0166 26.7325C32.0363 26.2533 32.2566 24.6147 32.3826 24.2806C32.4309 24.1522 32.5265 24.0693 32.6162 24.0693C32.7423 24.0693 32.8566 24.2335 32.8105 24.6654Z" fill="url(#paint17_linear_7187_23352)"/>
</g>
<mask id="mask21_7187_23352" style="mask-type:alpha" maskUnits="userSpaceOnUse" x="21" y="25" width="13" height="16">
<path fill-rule="evenodd" clip-rule="evenodd" d="M23.188 25.6185C24.1901 25.7818 24.9489 27.1286 24.9738 27.1706L28.5444 33.7274L31.8683 26.5132L33.6429 27.5324C33.6133 28.0569 33.0361 36.9344 30.0246 40.0848C29.4569 40.679 28.8329 40.906 28.17 40.7657C26.0143 40.305 23.9121 36.0785 23.0121 34.2734C22.8346 33.9146 21.6943 31.6054 21.3601 30.114C21.0794 28.8556 20.9291 27.1646 21.8069 26.2463C22.185 25.851 22.5919 25.6042 23.0127 25.604C23.071 25.604 23.1292 25.6089 23.188 25.6185Z" fill="white"/>
</mask>
<g mask="url(#mask21_7187_23352)">
<path fill-rule="evenodd" clip-rule="evenodd" d="M23.188 25.6185C24.1901 25.7818 24.9489 27.1286 24.9738 27.1706L28.5444 33.7274L31.8683 26.5132L33.6429 27.5324C33.6133 28.0569 33.0361 36.9344 30.0246 40.0848C29.4569 40.679 28.8329 40.906 28.17 40.7657C26.0143 40.305 23.9121 36.0785 23.0121 34.2734C22.8346 33.9146 21.6943 31.6054 21.3601 30.114C21.0794 28.8556 20.9291 27.1646 21.8069 26.2463C22.185 25.851 22.5919 25.6042 23.0127 25.604C23.071 25.604 23.1292 25.6089 23.188 25.6185Z" fill="url(#paint18_linear_7187_23352)"/>
</g>
<mask id="mask22_7187_23352" style="mask-type:alpha" maskUnits="userSpaceOnUse" x="23" y="17" width="5" height="7">
<path fill-rule="evenodd" clip-rule="evenodd" d="M27.5499 21.3502C27.4332 21.7197 27.1962 22.1516 26.7248 22.1516C26.3952 22.1516 26.3197 22.1475 26.0828 22.128L25.6283 23.6969L23.2131 22.6949L23.9958 19.5159C24.3732 19.6105 24.6601 19.5715 24.6681 19.57L24.7121 19.5638L24.6842 19.5153C24.6689 19.4887 24.2842 18.8119 24.7366 18.1559C25.1877 17.5026 25.7671 18.1702 25.7924 18.1975L25.8516 18.2692L25.8337 18.1649C25.7852 17.9014 25.7969 17.7017 25.8701 17.5573C26.014 17.2662 26.3994 17.1803 26.8843 17.0747C27.6015 18.0226 27.9306 20.1357 27.5499 21.3502Z" fill="white"/>
</mask>
<g mask="url(#mask22_7187_23352)">
<path fill-rule="evenodd" clip-rule="evenodd" d="M27.5499 21.3502C27.4332 21.7197 27.1962 22.1516 26.7248 22.1516C26.3952 22.1516 26.3197 22.1475 26.0828 22.128L25.6283 23.6969L23.2131 22.6949L23.9958 19.5159C24.3732 19.6105 24.6601 19.5715 24.6681 19.57L24.7121 19.5638L24.6842 19.5153C24.6689 19.4887 24.2842 18.8119 24.7366 18.1559C25.1877 17.5026 25.7671 18.1702 25.7924 18.1975L25.8516 18.2692L25.8337 18.1649C25.7852 17.9014 25.7969 17.7017 25.8701 17.5573C26.014 17.2662 26.3994 17.1803 26.8843 17.0747C27.6015 18.0226 27.9306 20.1357 27.5499 21.3502Z" fill="url(#paint19_linear_7187_23352)"/>
</g>
<path fill-rule="evenodd" clip-rule="evenodd" d="M29.3119 12.8512C29.6751 12.9106 29.886 13.1873 29.9189 13.6537C29.9917 14.7015 29.1288 16.5621 28.176 16.9593C27.7736 17.1269 27.3882 17.2125 27.0483 17.2862C26.5434 17.3959 26.1437 17.4819 25.9847 17.8003C25.9136 17.9445 25.8944 18.1321 25.9274 18.3689C25.7605 18.2105 25.2585 17.8086 24.8564 18.3896C24.4458 18.9861 24.6926 19.6122 24.7779 19.7896C24.6407 19.8011 24.1923 19.8156 23.7205 19.5726C22.7788 19.0862 22.4647 17.9573 22.3663 17.0984C22.2867 16.4007 22.3764 15.831 22.6319 15.4094C22.9812 14.8307 23.6079 14.575 24.2491 14.4459C24.6114 14.3731 24.9783 14.3396 25.3012 14.3126C25.5613 14.29 25.8092 14.267 26.0004 14.2287C26.4624 14.1358 26.8584 13.8585 27.2771 13.5661C27.8715 13.1519 28.4844 12.723 29.3119 12.8512Z" fill="#243838"/>
<mask id="mask23_7187_23352" style="mask-type:alpha" maskUnits="userSpaceOnUse" x="25" y="77" width="7" height="4">
<path fill-rule="evenodd" clip-rule="evenodd" d="M28.8868 77.9555C30.1112 79.1334 30.7713 79.1739 31.329 79.7259C31.5323 79.9271 31.9554 80.8412 30.8356 80.9029C30.1391 80.9413 28.3794 80.9489 27.1491 80.9494H26.9264C26.2943 80.9491 25.8492 80.947 25.8492 80.947C25.8492 80.947 25.1468 80.9956 25.429 78.4053C25.429 78.4053 25.5104 78.1031 25.6763 78.3169C25.9064 78.6138 26.3837 79.1967 26.831 78.4817C27.293 77.744 27.4998 77.2778 27.8563 77.2778C28.0937 77.2778 28.3972 77.4846 28.8868 77.9555Z" fill="white"/>
</mask>
<g mask="url(#mask23_7187_23352)">
<path fill-rule="evenodd" clip-rule="evenodd" d="M28.8868 77.9555C30.1112 79.1334 30.7713 79.1739 31.329 79.7259C31.5323 79.9271 31.9554 80.8412 30.8356 80.9029C30.1391 80.9413 28.3794 80.9489 27.1491 80.9494H26.9264C26.2943 80.9491 25.8492 80.947 25.8492 80.947C25.8492 80.947 25.1468 80.9956 25.429 78.4053C25.429 78.4053 25.5104 78.1031 25.6763 78.3169C25.9064 78.6138 26.3837 79.1967 26.831 78.4817C27.293 77.744 27.4998 77.2778 27.8563 77.2778C28.0937 77.2778 28.3972 77.4846 28.8868 77.9555Z" fill="url(#paint20_linear_7187_23352)"/>
</g>
<mask id="mask24_7187_23352" style="mask-type:alpha" maskUnits="userSpaceOnUse" x="72" y="12" width="18" height="81">
<path fill-rule="evenodd" clip-rule="evenodd" d="M72.7029 92.45L74.3312 92.773C76.7935 93.3677 79.006 91.3737 79.4979 88.1167L89.7427 20.2504C90.2454 16.9206 88.5993 13.6886 86.0842 13.0665L83.793 12.4995L72.7029 92.45Z" fill="white"/>
</mask>
<g mask="url(#mask24_7187_23352)">
<path fill-rule="evenodd" clip-rule="evenodd" d="M72.7029 92.45L74.3312 92.773C76.7935 93.3677 79.006 91.3737 79.4979 88.1167L89.7427 20.2504C90.2454 16.9206 88.5993 13.6886 86.0842 13.0665L83.793 12.4995L72.7029 92.45Z" fill="#124781"/>
</g>
<mask id="mask25_7187_23352" style="mask-type:alpha" maskUnits="userSpaceOnUse" x="51" y="7" width="38" height="86">
<path fill-rule="evenodd" clip-rule="evenodd" d="M66.4306 7.95264C64.3023 7.97031 62.4021 9.96263 61.9652 12.8419L51.6495 80.7814C51.1465 84.0933 52.7707 87.316 55.2689 87.9635L72.2372 92.3617C74.7128 93.0034 77.1147 90.8732 77.6154 87.5918L87.9519 19.8329C88.4547 16.5367 86.8497 13.3232 84.3668 12.6543L67.3773 8.07554C67.0795 7.99506 66.7822 7.95508 66.4892 7.95264H66.4306Z" fill="white"/>
</mask>
<g mask="url(#mask25_7187_23352)">
<path fill-rule="evenodd" clip-rule="evenodd" d="M66.4306 7.95264C64.3023 7.97031 62.4021 9.96263 61.9652 12.8419L51.6495 80.7814C51.1465 84.0933 52.7707 87.316 55.2689 87.9635L72.2372 92.3617C74.7128 93.0034 77.1147 90.8732 77.6154 87.5918L87.9519 19.8329C88.4547 16.5367 86.8497 13.3232 84.3668 12.6543L67.3773 8.07554C67.0795 7.99506 66.7822 7.95508 66.4892 7.95264H66.4306Z" fill="#1D62AE"/>
</g>
<path fill-rule="evenodd" clip-rule="evenodd" d="M85.9866 22.2131L76.7841 82.9482L53.8444 77.2592L63.1189 16.2808L85.9866 22.2131Z" fill="#84B3E6"/>
<path fill-rule="evenodd" clip-rule="evenodd" d="M68.4726 56.5566C67.7262 56.3761 66.9798 56.1946 66.2335 56.0132C64.0574 55.4839 61.8815 54.9548 59.7019 54.4467C59.2359 54.338 59.0886 54.1396 59.2094 53.4397C60.5048 45.9315 61.7763 38.4178 63.0589 30.9065C63.274 29.6469 63.6652 29.2946 64.5721 29.5139C70.0697 30.8432 75.5669 32.1747 81.0643 33.5071C81.8623 33.7005 82.1797 34.3648 81.9894 35.4838C80.7307 42.8877 79.469 50.2908 78.2032 57.6933C78.0193 58.7689 77.9283 58.8442 77.1835 58.6644C74.2798 57.963 71.3765 57.259 68.4726 56.5566Z" fill="#1D62AE"/>
<path fill-rule="evenodd" clip-rule="evenodd" d="M66.2812 36.4514C66.1755 37.073 66.064 37.6935 65.9658 38.3167C65.892 38.7831 65.7186 38.9873 65.3701 38.8986C64.4662 38.6688 63.5604 38.4488 62.6527 38.2414C62.3532 38.1729 62.2721 37.9633 62.3439 37.5573C62.5722 36.2618 62.7948 34.9648 63.0061 33.6654C63.0775 33.2259 63.2639 33.0157 63.559 33.0802C64.5064 33.2866 65.4492 33.5246 66.3941 33.7471C66.6923 33.8175 66.6845 34.0966 66.6271 34.4247C66.5091 35.0996 66.396 35.7757 66.2812 36.4514Z" fill="#FFA800"/>
<path fill-rule="evenodd" clip-rule="evenodd" d="M61.656 42.5946C61.7569 41.9992 61.8712 41.406 61.956 40.8075C62.0231 40.3348 62.1672 40.1369 62.5308 40.2352C63.4338 40.4787 64.342 40.6949 65.2522 40.8973C65.5868 40.9718 65.6527 41.2005 65.574 41.6378C65.3504 42.8799 65.137 44.125 64.9379 45.3728C64.8634 45.8404 64.7305 46.046 64.3642 45.947C63.4616 45.7023 62.5532 45.4873 61.643 45.285C61.3075 45.2105 61.2376 44.9769 61.321 44.5424C61.4447 43.8967 61.5456 43.2443 61.656 42.5946Z" fill="#E3E8EF"/>
<path fill-rule="evenodd" clip-rule="evenodd" d="M60.6046 49.7744C60.7058 49.1783 60.82 48.5846 60.9051 47.9856C60.9728 47.51 61.1217 47.3176 61.4831 47.4146C62.3872 47.6575 63.297 47.869 64.207 48.0783C64.4984 48.1453 64.6038 48.3361 64.53 48.7539C64.3056 50.0252 64.0892 51.2986 63.8779 52.5732C63.7961 53.0663 63.5911 53.1969 63.2605 53.1124C62.3734 52.8862 61.4852 52.6666 60.5938 52.4671C60.2614 52.3929 60.185 52.1621 60.2693 51.724C60.3938 51.0778 60.4943 50.4248 60.6046 49.7744Z" fill="#E3E8EF"/>
<path fill-rule="evenodd" clip-rule="evenodd" d="M72.2548 33.5709C70.4594 33.1219 68.6638 32.6733 66.8684 32.2241C66.4699 32.1242 65.908 32.0156 66.0233 31.3359C66.1441 30.6252 66.6956 30.7284 67.1369 30.84C70.7063 31.742 74.2778 32.6309 77.8489 33.524C77.9686 33.5539 78.0885 33.5831 78.2068 33.6205C78.5271 33.7215 78.6186 34.0808 78.5689 34.4783C78.5165 34.8965 78.2646 35.0331 77.9959 34.9939C77.7334 34.9556 77.4755 34.8759 77.2163 34.8111C75.5625 34.3981 73.9087 33.9844 72.2548 33.5709Z" fill="#EBEBE7"/>
<path fill-rule="evenodd" clip-rule="evenodd" d="M70.7525 53.7116C68.9533 53.2566 67.1534 52.8059 65.356 52.3401C65.3194 52.3306 65.2772 52.3259 65.2335 52.3209C65.0638 52.3019 64.8725 52.2771 64.9146 51.9407C64.9677 51.5153 65.2254 51.582 65.4362 51.6369C65.4495 51.6403 65.4625 51.6438 65.4754 51.6471C69.0943 52.5586 72.7128 53.4731 76.3304 54.3935C76.3569 54.4002 76.3856 54.4056 76.4148 54.4111C76.5901 54.4445 76.7907 54.4842 76.7263 54.8603C76.663 55.2302 76.4693 55.1689 76.2994 55.1136C76.2687 55.1037 76.2389 55.0941 76.2109 55.087C74.7993 54.7361 73.3888 54.3791 71.978 54.0218C71.5696 53.9183 71.1611 53.815 70.7525 53.7116Z" fill="#84B3E6"/>
<path fill-rule="evenodd" clip-rule="evenodd" d="M72.9216 39.5175C71.1405 39.0671 69.3583 38.6225 67.5795 38.1578C67.3902 38.1084 67.0344 38.2034 67.1182 37.708C67.1925 37.2692 67.4874 37.4143 67.6985 37.4676C71.2816 38.3689 74.8642 39.2753 78.4458 40.1852C78.638 40.234 78.932 40.2402 78.8855 40.6193C78.8271 41.0988 78.5295 40.929 78.3263 40.8789C76.5236 40.4325 74.723 39.9733 72.9216 39.5175Z" fill="#84B3E6"/>
<path fill-rule="evenodd" clip-rule="evenodd" d="M72.1483 44.7195C73.9472 45.1739 75.7467 45.6248 77.544 46.0887C77.7272 46.1358 78.0451 46.0936 77.9955 46.481C77.9429 46.8885 77.6479 46.8362 77.4246 46.7798C73.8262 45.8729 70.2287 44.9629 66.6309 44.0546C66.3933 43.9948 66.1401 43.8512 66.2242 43.4637C66.3162 43.0377 70.3493 44.2651 72.1483 44.7195Z" fill="#84B3E6"/>
<path fill-rule="evenodd" clip-rule="evenodd" d="M70.9395 52.441C69.1611 51.9912 67.3822 51.5447 65.6048 51.087C65.4195 51.0391 65.1047 51.0709 65.1548 50.6887C65.208 50.2816 65.5039 50.3357 65.7266 50.3918C69.3438 51.3044 72.9608 52.2197 76.5771 53.1378C76.7528 53.1823 76.9886 53.2091 76.9139 53.5893C76.828 54.0261 76.5804 53.856 76.3967 53.8103C74.577 53.3579 72.759 52.8949 70.9405 52.435L70.9395 52.441Z" fill="#84B3E6"/>
<path fill-rule="evenodd" clip-rule="evenodd" d="M70.7564 54.3052C72.5365 54.7551 74.3172 55.201 76.0955 55.662C76.1317 55.6715 76.1736 55.6763 76.2168 55.6814C76.387 55.7012 76.5794 55.7267 76.536 56.0639C76.4819 56.4854 76.2278 56.4185 76.0221 56.3639C76.0053 56.3593 75.9888 56.3549 75.9726 56.3511C72.4117 55.456 68.8518 54.5547 65.2916 53.6532C65.1323 53.6129 64.9648 53.5842 64.8594 53.3853C64.729 53.14 64.7499 52.9301 64.9929 52.8945C65.1227 52.8754 65.2556 52.9117 65.3863 52.9474C65.4163 52.9557 65.4461 52.9638 65.4757 52.9713C67.2363 53.4139 68.9961 53.86 70.7564 54.3052Z" fill="#84B3E6"/>
<path fill-rule="evenodd" clip-rule="evenodd" d="M71.6682 47.8187C69.8876 47.3692 68.1063 46.9234 66.3278 46.4618C66.15 46.4155 65.8333 46.4833 65.889 46.0575C65.949 45.5998 66.2379 45.7187 66.4517 45.7725C70.0133 46.6683 73.5744 47.5691 77.1353 48.4694C77.2953 48.5098 77.4623 48.5403 77.5679 48.7374C77.7001 48.9837 77.6742 49.1928 77.433 49.2281C77.2731 49.2516 77.1092 49.1918 76.9499 49.1518C75.1889 48.7093 73.4288 48.2631 71.6682 47.8187Z" fill="#84B3E6"/>
<path fill-rule="evenodd" clip-rule="evenodd" d="M73.0861 38.2368C71.3278 37.7934 69.5684 37.3568 67.8135 36.8936C67.6127 36.8408 67.2203 36.9674 67.3105 36.4181C67.3811 35.9895 67.6847 36.1411 67.8946 36.1939C71.4312 37.0834 74.9673 37.978 78.5026 38.8768C78.7131 38.9303 79.0412 38.9383 78.9743 39.361C78.8881 39.9043 78.5652 39.6084 78.3617 39.559C76.6009 39.1323 74.844 38.6804 73.0861 38.2368Z" fill="#84B3E6"/>
<path fill-rule="evenodd" clip-rule="evenodd" d="M72.8497 40.091C74.628 40.5396 76.4068 40.9851 78.1832 41.4455C78.3613 41.4913 78.6766 41.4266 78.6176 41.853C78.5547 42.3083 78.2653 42.1856 78.0531 42.1325C74.4962 41.2379 70.9399 40.3388 67.3846 39.4349C67.1733 39.3812 66.8575 39.358 66.9395 38.9185C67.0292 38.4359 67.3241 38.706 67.5138 38.7524C69.2944 39.1866 71.0716 39.6422 72.8497 40.091Z" fill="#84B3E6"/>
<path fill-rule="evenodd" clip-rule="evenodd" d="M71.9894 46.0039C73.7687 46.4546 75.5485 46.9007 77.3258 47.363C77.501 47.4084 77.8299 47.3373 77.7515 47.7715C77.6576 48.2914 77.4017 47.9603 77.2016 47.9085C74.9445 47.3257 72.6901 46.7263 70.4268 46.1824C69.1678 45.8797 65.9817 45.174 66.0946 44.7433C66.1789 44.4206 66.4245 44.5939 66.5923 44.6359C68.3925 45.0846 70.1913 45.5428 71.9903 45.9986L71.9894 46.0039Z" fill="#84B3E6"/>
<path fill-rule="evenodd" clip-rule="evenodd" d="M67.888 50.0661C67.1942 49.8951 66.4988 49.7326 65.8075 49.5479C65.5942 49.491 65.3307 49.4219 65.3825 48.9958C65.439 48.5293 65.7205 48.5033 65.9634 48.5604C67.314 48.8781 68.6615 49.2149 70.0092 49.5512C70.27 49.6163 70.4903 49.792 70.3994 50.2301C70.3044 50.6896 70.0305 50.6221 69.7868 50.563C69.152 50.4091 68.5178 50.2509 67.8834 50.0945L67.888 50.0661Z" fill="#84B3E6"/>
<path fill-rule="evenodd" clip-rule="evenodd" d="M68.604 41.7579C69.1192 41.8841 69.6345 42.0083 70.1491 42.1379C70.3856 42.1975 70.5919 42.3331 70.5201 42.7414C70.4519 43.1309 70.2231 43.2078 69.983 43.1502C68.9321 42.8986 67.8821 42.6416 66.8335 42.3762C66.5759 42.3112 66.3623 42.1381 66.4437 41.6955C66.5238 41.2585 66.7846 41.3238 66.9986 41.3695C67.5359 41.4844 68.0691 41.6267 68.604 41.7579Z" fill="#84B3E6"/>
<path fill-rule="evenodd" clip-rule="evenodd" d="M64.3083 30.4797C64.2642 30.6513 64.1854 30.7649 64.0506 30.7487C63.9115 30.7317 63.858 30.6084 63.886 30.4197C63.9139 30.2325 64.0103 30.1377 64.1369 30.1483C64.2749 30.1595 64.3219 30.2953 64.3083 30.4797Z" fill="#D7B47D"/>
<path fill-rule="evenodd" clip-rule="evenodd" d="M64.5963 30.5761C64.6484 30.3812 64.7447 30.3058 64.8731 30.3441C65.0042 30.3834 65.0614 30.5152 65.0187 30.6969C64.9779 30.8688 64.8829 30.9661 64.7494 30.919C64.622 30.8738 64.5676 30.7534 64.5963 30.5761Z" fill="#4BB37E"/>
<path fill-rule="evenodd" clip-rule="evenodd" d="M63.5236 30.4345C63.5082 30.5084 63.412 30.5916 63.278 30.5453C63.1728 30.5087 63.1205 30.391 63.1464 30.2361C63.1796 30.0384 63.2819 29.9596 63.4152 30.0045C63.5208 30.0403 63.5729 30.1483 63.5236 30.4345Z" fill="#A74D59"/>
<path fill-rule="evenodd" clip-rule="evenodd" d="M71.0804 35.094C72.0183 35.3272 72.9571 35.5554 73.8937 35.7968C74.1448 35.8615 74.4923 35.8747 74.3972 36.4182C74.3078 36.9319 73.9777 36.8393 73.7249 36.7775C71.7883 36.3022 69.8535 35.8162 67.9203 35.3214C67.6892 35.2622 67.3929 35.2104 67.4796 34.7046C67.5664 34.1959 67.8546 34.3094 68.085 34.3636C69.0845 34.5996 70.0813 34.8546 71.0789 35.1026L71.0804 35.094Z" fill="#84B3E6"/>
<path fill-rule="evenodd" clip-rule="evenodd" d="M71.8183 15.1283L77.0164 16.3777C77.0637 16.3892 77.109 16.3473 77.1176 16.2845L77.1923 15.7358C77.201 15.6729 77.1696 15.6129 77.1223 15.6014L71.9244 14.352C71.8769 14.3406 71.8314 14.3822 71.8228 14.4453L71.748 14.9937C71.7394 15.0568 71.7709 15.1169 71.8183 15.1283Z" fill="white"/>
<mask id="mask26_7187_23352" style="mask-type:alpha" maskUnits="userSpaceOnUse" x="62" y="81" width="5" height="7">
<path fill-rule="evenodd" clip-rule="evenodd" d="M64.1163 81.7002C63.0157 81.8329 62.2135 83.2534 62.3241 84.8726C62.4347 86.4922 63.4164 87.6975 64.5172 87.5651C65.6177 87.4324 66.4202 86.0122 66.3094 84.3927C66.2043 82.855 65.3135 81.6904 64.2816 81.6904C64.2267 81.6904 64.1718 81.6937 64.1163 81.7002Z" fill="white"/>
</mask>
<g mask="url(#mask26_7187_23352)">
<path fill-rule="evenodd" clip-rule="evenodd" d="M64.1163 81.7002C63.0157 81.8329 62.2135 83.2534 62.3241 84.8726C62.4347 86.4922 63.4164 87.6975 64.5172 87.5651C65.6177 87.4324 66.4202 86.0122 66.3094 84.3927C66.2043 82.855 65.3135 81.6904 64.2816 81.6904C64.2267 81.6904 64.1718 81.6937 64.1163 81.7002Z" fill="white"/>
</g>
<path fill-rule="evenodd" clip-rule="evenodd" d="M57.1543 25.4594L88.3396 33.9034C89.4303 34.1987 90.4952 33.267 90.7155 31.8251L91.3572 28.1974C91.5787 26.7505 90.8663 25.3422 89.77 25.0599L58.5237 17.0129C57.4387 16.7335 56.3858 17.6637 56.1665 19.0962L55.5862 22.3273C55.3662 23.7643 56.0677 25.1652 57.1543 25.4594Z" fill="#1F96FF"/>
<rect width="8.95685" height="12.3483" transform="matrix(0.967222 0.234714 -0.166797 0.982317 81.3278 19.8013)" fill="#D8D8D8" fill-opacity="0.01"/>
<path d="M84.0672 22.8733C84.5072 22.5543 85.0021 22.4212 85.4899 22.5357C86.7105 22.8222 87.4248 24.5512 87.0853 26.3973L86.8943 27.4362C86.6642 28.6878 86.6527 29.9423 87.0263 30.9843L81.1023 29.5935C81.812 28.8059 82.2439 27.6501 82.4741 26.3985L82.6651 25.3596C82.716 25.0828 82.7877 24.8192 82.8769 24.5719" stroke="white" stroke-width="2.13647" stroke-linecap="round" stroke-linejoin="round"/>
<path d="M84.5049 30.4415C84.5234 30.5247 84.526 30.6183 84.5084 30.714C84.4579 30.9875 84.2625 31.1731 84.0721 31.1285C83.8817 31.0839 83.7681 30.826 83.8185 30.5524C83.8355 30.4603 83.8689 30.3781 83.913 30.3114" stroke="white" stroke-width="2.67059" stroke-linecap="round" stroke-linejoin="round"/>
<path d="M86.5953 27.0567C87.288 27.2248 87.9135 26.9657 88.3544 26.5534C88.796 26.1404 89.1034 25.5371 89.2195 24.8533C89.3356 24.1696 89.2494 23.4707 88.9774 22.8845C88.7059 22.2994 88.2143 21.7692 87.5217 21.6011C86.829 21.433 86.2034 21.6921 85.7625 22.1044C85.3209 22.5174 85.0135 23.1208 84.8974 23.8045C84.7813 24.4882 84.8676 25.1871 85.1396 25.7733C85.4111 26.3584 85.9026 26.8886 86.5953 27.0567Z" fill="#FFA800" stroke="white" stroke-width="1.60235"/>
<path fill-rule="evenodd" clip-rule="evenodd" d="M53.2946 56.1094L45.5363 69.4854L66.4005 62.6015L54.7796 55.6134C54.258 55.2997 53.6422 55.5053 53.2946 56.1094Z" fill="#1D62AE"/>
<path fill-rule="evenodd" clip-rule="evenodd" d="M49.4142 85.3906C48.9466 85.5449 48.4732 85.1669 48.357 84.5462L45.5363 69.4855L66.4729 62.5776L69.2936 77.6383C69.4099 78.259 69.1251 78.8872 68.6575 79.0415L49.4142 85.3906Z" fill="#1D62AE"/>
<path fill-rule="evenodd" clip-rule="evenodd" d="M65.1839 63.4024L57.9306 73.2386L46.9646 69.9634L45.7102 62.2453C45.5657 61.4172 45.9485 60.5883 46.5701 60.3831L62.4296 55.1504C63.0584 54.9429 63.6948 55.4513 63.8511 56.2859L65.1839 63.4024Z" fill="#FFFFFE"/>
<path fill-rule="evenodd" clip-rule="evenodd" d="M56.9348 72.4647L48.3219 84.4121C48.4499 85.0948 48.9706 85.5106 49.485 85.3408L68.5802 79.0374C69.0947 78.8676 69.408 78.1764 69.28 77.4936L69.2622 77.3984L57.9996 72.1275C57.6255 71.9525 57.209 72.0844 56.9348 72.4647Z" fill="#107CB3"/>
<path fill-rule="evenodd" clip-rule="evenodd" d="M62.3219 62.1084L48.5555 66.6528L48.3776 65.7031L62.144 61.1587L62.3219 62.1084ZM54.3408 62.3654L48.136 64.4137L47.9783 63.5725L54.1832 61.5242L54.3408 62.3654ZM48.9906 68.9744L62.757 64.4299L62.579 63.4802L48.8126 68.0246L48.9906 68.9744ZM62.8691 66.5534L62.4381 67.1259L50.8816 71.136L49.3714 70.667L49.3144 70.4496L63.0362 65.92L63.0951 66.2348L62.8691 66.5534ZM54.7066 72.2687L59.9131 70.5501L60.896 69.2171L53.1151 71.7856L54.7066 72.2687Z" fill="#1D62AE"/>
<path fill-rule="evenodd" clip-rule="evenodd" d="M56.6206 72.9009C56.6211 72.9016 56.6144 72.9124 56.6008 72.9328C56.5854 72.9553 56.565 72.9849 56.5392 73.0226C56.4825 73.1031 56.4021 73.2175 56.2993 73.3635C56.0878 73.6606 55.7849 74.0858 55.4114 74.6103C54.6601 75.6612 53.6216 77.112 52.466 78.7036C51.3102 80.2958 50.2527 81.723 49.48 82.7463C49.0939 83.2582 48.7799 83.6703 48.5612 83.9529C48.4531 84.0921 48.3685 84.2011 48.309 84.2778C48.2811 84.3128 48.2592 84.3403 48.2425 84.3612C48.2275 84.3798 48.2194 84.3889 48.2189 84.3881C48.2183 84.3874 48.2253 84.3768 48.2394 84.3568C48.2552 84.335 48.2761 84.306 48.3026 84.2693C48.3608 84.1907 48.4434 84.0791 48.549 83.9366C48.7653 83.6461 49.0753 83.2298 49.4576 82.7167C50.2244 81.6859 51.2781 80.2544 52.4337 78.6622C53.5868 77.0698 54.6307 75.628 55.3885 74.5812C55.7663 74.0622 56.0727 73.6414 56.2867 73.3476C56.3921 73.2048 56.4745 73.093 56.5326 73.0143C56.5599 72.9784 56.5812 72.95 56.5974 72.9286C56.6123 72.9096 56.6201 72.9002 56.6206 72.9009Z" fill="#FAF9F6"/>
<path fill-rule="evenodd" clip-rule="evenodd" d="M69.262 77.3984C69.258 77.4138 66.8562 76.3074 63.8983 74.9273C60.9393 73.5469 58.5447 72.4155 58.5488 72.4001C58.5528 72.3846 60.9542 73.4907 63.9131 74.8713C66.8711 76.2513 69.2661 77.3829 69.262 77.3984Z" fill="#FAF9F6"/>
<path fill-rule="evenodd" clip-rule="evenodd" d="M65.5291 62.9288C65.5297 62.9294 65.5243 62.9385 65.5133 62.9557C65.5006 62.9751 65.4843 62.9998 65.4639 63.0308C65.4176 63.0989 65.3529 63.1942 65.2705 63.3154C65.0986 63.5635 64.8534 63.917 64.5513 64.3526C63.9412 65.2251 63.0917 66.4221 62.1401 67.7272C61.188 69.0326 60.3139 70.1982 59.6761 71.0352C59.3576 71.4494 59.0991 71.7857 58.9176 72.0216C58.8289 72.1345 58.7591 72.2234 58.7092 72.287C58.6866 72.315 58.6684 72.3373 58.6542 72.3549C58.6417 72.3699 58.6349 72.3773 58.6344 72.3765C58.6339 72.3759 58.6396 72.367 58.651 72.3506C58.6644 72.3318 58.6815 72.3082 58.7029 72.2784C58.7514 72.213 58.8192 72.1215 58.9053 72.0052C59.0844 71.766 59.3395 71.4253 59.6538 71.0054C60.2857 70.161 61.1561 68.9909 62.1079 67.6858C63.0593 66.3811 63.9123 65.1889 64.5282 64.3239C64.8345 63.8939 65.0833 63.5447 65.2578 63.2997C65.3428 63.1818 65.4095 63.089 65.4573 63.0225C65.479 62.9933 65.4964 62.97 65.51 62.9516C65.5221 62.9358 65.5286 62.928 65.5291 62.9288Z" fill="#FAF9F6"/>
<path fill-rule="evenodd" clip-rule="evenodd" d="M56.6206 72.9007C56.6204 72.9016 56.6106 72.8993 56.5916 72.8939C56.5704 72.8873 56.5426 72.8787 56.5075 72.868C56.4312 72.8433 56.3232 72.8081 56.1855 72.7634C55.9063 72.6704 55.5013 72.5404 55.0002 72.3839C53.9984 72.0691 52.6093 71.6637 51.074 71.2222C49.538 70.7807 48.1495 70.3686 47.1492 70.0432C46.6489 69.8814 46.245 69.7451 45.967 69.6451C45.8302 69.5958 45.723 69.5571 45.6471 69.5297C45.6124 69.5165 45.5851 69.5062 45.5642 69.4982C45.5455 69.4909 45.5361 69.4865 45.5363 69.4856C45.5365 69.4846 45.5463 69.4869 45.5653 69.4924C45.5866 69.4989 45.6143 69.5074 45.6494 69.5181C45.7257 69.543 45.8337 69.5781 45.9714 69.6227C46.2506 69.7158 46.6554 69.8458 47.1566 70.0023C48.1583 70.3171 49.5476 70.7225 51.0835 71.1641C52.6189 71.6056 54.0074 72.0176 55.0077 72.343C55.5079 72.5048 55.9118 72.6411 56.1899 72.741C56.3267 72.7904 56.4339 72.8291 56.5098 72.8565C56.5445 72.8696 56.5718 72.88 56.5928 72.8879C56.6114 72.8954 56.6208 72.8996 56.6206 72.9007Z" fill="#FAF9F6"/>
<path fill-rule="evenodd" clip-rule="evenodd" d="M65.1839 63.4022C65.1839 63.4022 65.1759 63.3671 65.1622 63.2982C65.1484 63.2277 65.1285 63.1254 65.1024 62.9917C65.0507 62.7204 64.9747 62.323 64.8771 61.8116C64.6831 60.7847 64.4027 59.3014 64.0563 57.4687C64.0131 57.2393 63.969 57.0047 63.9237 56.7647C63.9012 56.6447 63.8783 56.5235 63.8553 56.4009C63.8439 56.3395 63.8325 56.2776 63.8179 56.2182C63.8058 56.1571 63.7876 56.0987 63.7684 56.0404C63.6936 55.806 63.5655 55.5994 63.4085 55.4382C63.2488 55.2826 63.0568 55.1702 62.8514 55.1413C62.7493 55.1209 62.6446 55.1301 62.541 55.1468C62.4384 55.1705 62.334 55.2084 62.2291 55.2425C62.0191 55.3121 61.8059 55.3827 61.5896 55.4543C61.1566 55.5975 60.7113 55.745 60.2545 55.8961C58.427 56.4998 56.4182 57.1634 54.3095 57.86C52.1999 58.5552 50.1902 59.2174 48.3623 59.8198C47.9053 59.9702 47.4597 60.1169 47.0267 60.2592C46.9184 60.2948 46.8109 60.3302 46.7043 60.3652C46.5975 60.4019 46.4915 60.4303 46.3948 60.4899C46.297 60.5452 46.2054 60.6179 46.1251 60.707C46.0426 60.7928 45.9727 60.8969 45.9127 61.0075C45.8505 61.1172 45.8072 61.2415 45.7693 61.3657C45.736 61.4925 45.7119 61.6227 45.7034 61.7544C45.6795 62.0192 45.7344 62.274 45.7736 62.5267C45.8551 63.0311 45.9334 63.5153 46.0079 63.9774C46.3052 65.8252 46.5457 67.3207 46.7122 68.356C46.7943 68.8722 46.8581 69.2733 46.9016 69.5471C46.9226 69.6824 46.9386 69.7858 46.9497 69.8571C46.9602 69.9271 46.9646 69.9632 46.9646 69.9632C46.9646 69.9632 46.9573 69.928 46.9452 69.8584C46.9331 69.7874 46.9157 69.6844 46.8928 69.5497C46.8474 69.2765 46.7809 68.8761 46.6953 68.3609C46.5255 67.3267 46.2801 65.8325 45.9771 63.9865C45.9015 63.5246 45.8224 63.0408 45.7399 62.5367C45.7007 62.2872 45.6435 62.0236 45.6676 61.7501C45.6762 61.6143 45.7008 61.4798 45.735 61.3489C45.7739 61.2206 45.8185 61.0924 45.8824 60.9791C45.9442 60.8646 46.0162 60.7571 46.1013 60.6682C46.1841 60.576 46.2787 60.5006 46.3797 60.4433C46.4798 60.3813 46.5895 60.3516 46.6949 60.3152C46.8015 60.2799 46.909 60.2443 47.0171 60.2085C47.45 60.0653 47.8955 59.9178 48.3523 59.7667C50.1801 59.1629 52.1894 58.4991 54.2988 57.8024C56.4077 57.1074 58.4169 56.4453 60.2445 55.843C60.7015 55.6926 61.147 55.546 61.58 55.4036C61.7965 55.3324 62.0098 55.2623 62.2198 55.1932C62.325 55.1592 62.4278 55.1218 62.5353 55.0972C62.6424 55.0803 62.7504 55.0713 62.8559 55.0924C63.0678 55.1228 63.2657 55.2392 63.4302 55.4001C63.5917 55.5667 63.7233 55.7802 63.8001 56.0219C63.8197 56.082 63.8383 56.1422 63.8506 56.205C63.8657 56.2671 63.8769 56.3288 63.8881 56.39C63.9109 56.5126 63.9336 56.634 63.9559 56.7541C64.0007 56.9942 64.0444 57.2291 64.0871 57.4585C64.4276 59.293 64.7032 60.778 64.8941 61.8059C64.9881 62.3185 65.0612 62.7169 65.1112 62.9888C65.1354 63.1231 65.1539 63.2259 65.1666 63.2967C65.1788 63.3663 65.1839 63.4022 65.1839 63.4022Z" fill="#D4D5CF"/>
<path fill-rule="evenodd" clip-rule="evenodd" d="M53.6708 49.2429L51.2542 51.6861L51.3718 56.3526L49.1579 54.0197L47.936 55.4086L43.2903 47.7969L53.6708 49.2429Z" fill="#84B3E6"/>
<mask id="mask27_7187_23352" style="mask-type:alpha" maskUnits="userSpaceOnUse" x="49" y="52" width="3" height="5">
<path fill-rule="evenodd" clip-rule="evenodd" d="M51.3718 56.3525L49.158 54.0196L50.3455 52.6797C50.3489 52.8225 51.3718 56.3525 51.3718 56.3525Z" fill="white"/>
</mask>
<g mask="url(#mask27_7187_23352)">
<path fill-rule="evenodd" clip-rule="evenodd" d="M49.158 56.3525H51.3718V52.6797H49.158V56.3525Z" fill="#107CB3"/>
</g>
<path fill-rule="evenodd" clip-rule="evenodd" d="M51.3718 56.3526L50.3454 52.6798L43.2903 47.7969L51.2542 51.6861L51.3718 56.3526Z" fill="#1F96FF"/>
<path fill-rule="evenodd" clip-rule="evenodd" d="M50.3455 52.6797C50.3489 52.8225 51.3718 56.3525 51.3718 56.3525L49.158 54.0196L50.3455 52.6797Z" fill="#092F58"/>
<path fill-rule="evenodd" clip-rule="evenodd" d="M43.2903 47.7969L50.3454 52.6798L51.3718 56.3526L51.2542 51.6861L43.2903 47.7969Z" fill="#1D62AE"/>
<path fill-rule="evenodd" clip-rule="evenodd" d="M57.0469 59.8597C57.0433 59.8756 56.9489 59.8511 56.834 59.8159C56.7191 59.7803 56.6262 59.7472 56.6282 59.7307C56.6301 59.7147 56.7275 59.7219 56.8441 59.758C56.9607 59.7937 57.0505 59.8442 57.0469 59.8597ZM57.8355 60.3087C57.8291 60.3231 57.7417 60.27 57.6362 60.2C57.5308 60.1298 57.4463 60.0686 57.4512 60.0532C57.4559 60.0383 57.5494 60.0756 57.6563 60.1469C57.7633 60.2178 57.8418 60.2948 57.8355 60.3087ZM58.3465 60.8261C58.4359 60.9282 58.5105 61.0088 58.5193 60.9971C58.528 60.9857 58.4666 60.8848 58.3757 60.7811C58.285 60.677 58.2009 60.611 58.1937 60.624C58.1862 60.6374 58.2572 60.7236 58.3465 60.8261ZM59.0407 61.9002C59.0298 61.9082 58.9753 61.8031 58.9104 61.6727C58.8457 61.5421 58.7944 61.4343 58.8043 61.424C58.8138 61.414 58.8819 61.5071 58.9478 61.64C59.0139 61.7728 59.0515 61.8925 59.0407 61.9002ZM59.2646 62.6982C59.2968 62.8484 59.3245 62.9705 59.3368 62.9674C59.3488 62.9645 59.3404 62.8351 59.3077 62.682C59.2751 62.5288 59.2311 62.4128 59.2198 62.4186C59.208 62.4246 59.2326 62.5478 59.2646 62.6982ZM59.3806 64.1034C59.3681 64.1014 59.369 63.974 59.3716 63.8178C59.3745 63.6616 59.3784 63.5342 59.391 63.5332C59.4031 63.532 59.4193 63.6601 59.4164 63.8192C59.4137 63.9783 59.3927 64.1052 59.3806 64.1034ZM59.2183 64.9267C59.1787 65.0736 59.1464 65.1935 59.1578 65.2007C59.1687 65.2077 59.2199 65.0968 59.2605 64.9468C59.3012 64.7969 59.3153 64.6683 59.3036 64.6644C59.2914 64.6601 59.2583 64.7798 59.2183 64.9267ZM58.6604 66.1238C58.6524 66.1122 58.7078 66.028 58.7783 65.9209L58.7928 65.8988L58.8129 65.8682C58.8808 65.7652 58.9333 65.6856 58.9427 65.6942C58.9528 65.7032 58.9058 65.8178 58.8265 65.9378C58.7475 66.0582 58.6686 66.1358 58.6604 66.1238ZM58.1238 66.5929C58.0206 66.6649 57.9366 66.7235 57.9412 66.7389C57.9457 66.7539 58.04 66.7184 58.1463 66.6444C58.2529 66.5706 58.3287 66.4879 58.3219 66.4746C58.315 66.4608 58.2317 66.5183 58.129 66.5893L58.1256 66.5916L58.1238 66.5929ZM57.105 66.9775C57.1048 66.9618 57.1877 66.9483 57.2934 66.9312L57.3166 66.9274L57.328 66.9256C57.4395 66.9079 57.5287 66.8937 57.5314 66.9095C57.5341 66.9251 57.4414 66.9675 57.3221 66.9864C57.2027 67.0058 57.105 66.9935 57.105 66.9775ZM56.4246 66.8166L56.4246 66.8166C56.3362 66.7808 56.2703 66.7541 56.266 66.767C56.2607 66.7817 56.3459 66.8473 56.4614 66.8935C56.5767 66.9402 56.6749 66.9482 56.6769 66.9326C56.6787 66.9184 56.6123 66.8919 56.5234 66.8563L56.4743 66.8366L56.4246 66.8166ZM55.6708 65.9837C55.6772 65.9811 55.6903 66.0111 55.711 66.0582C55.73 66.1017 55.7554 66.1596 55.7876 66.2197C55.8138 66.27 55.8399 66.315 55.8612 66.3518L55.8612 66.3519L55.8612 66.3519L55.8612 66.3519C55.8935 66.4077 55.9149 66.4447 55.9096 66.4524C55.902 66.4641 55.8206 66.3871 55.7507 66.2536C55.6796 66.1204 55.659 65.9874 55.6708 65.9837ZM55.9864 65.1371C56.0157 65.1179 56.0341 65.1058 56.0325 65.0978C56.0312 65.0832 55.9276 65.0955 55.8251 65.1928C55.7215 65.2901 55.6858 65.4247 55.697 65.4291C55.7018 65.4325 55.713 65.4159 55.731 65.3891C55.7567 65.351 55.7963 65.2922 55.8513 65.241C55.9015 65.1929 55.9516 65.16 55.9863 65.1371L55.9864 65.1371ZM56.7694 65.5038C56.7638 65.5079 56.7482 65.484 56.7237 65.4462C56.6987 65.4076 56.6642 65.3545 56.6214 65.3022C56.5757 65.2455 56.5287 65.2043 56.4963 65.1759C56.4695 65.1525 56.4527 65.1378 56.4549 65.1304C56.4576 65.1156 56.5596 65.145 56.6518 65.2585C56.7431 65.3705 56.7801 65.4976 56.7694 65.5038ZM56.8102 66.4915C56.7981 66.5592 56.7901 66.6039 56.7971 66.6081C56.8077 66.6151 56.8584 66.4999 56.8808 66.3404C56.9041 66.1811 56.8889 66.0494 56.8771 66.0506C56.8694 66.051 56.8644 66.0967 56.8569 66.166L56.8569 66.166C56.8519 66.2121 56.8457 66.2687 56.8368 66.3293C56.8283 66.3902 56.8183 66.4461 56.8102 66.4915ZM56.239 67.4573C56.2326 67.4448 56.2909 67.3787 56.3667 67.2925L56.3947 67.2606C56.4137 67.2392 56.4318 67.2184 56.4486 67.1991L56.4487 67.199L56.4488 67.1989L56.4488 67.1989C56.5111 67.1274 56.556 67.0759 56.5635 67.0845C56.5728 67.0949 56.5157 67.2019 56.4239 67.3058C56.3325 67.4099 56.2457 67.4705 56.239 67.4573ZM55.6628 67.8365C55.5551 67.9021 55.4718 67.9674 55.4768 67.9825C55.4817 67.9975 55.5734 67.9563 55.6818 67.8904C55.79 67.8244 55.8733 67.7591 55.8677 67.7445C55.8621 67.7298 55.7704 67.771 55.6628 67.8365ZM54.7109 68.4996C54.704 68.4861 54.7817 68.4088 54.8845 68.327C54.988 68.2473 55.0806 68.2055 55.0853 68.2187C55.0913 68.235 55.0084 68.3003 54.9064 68.3788C54.8053 68.4593 54.7178 68.5133 54.7109 68.4996ZM54.1944 69.016C54.1089 69.1273 54.0524 69.2329 54.0615 69.2436C54.071 69.2545 54.1417 69.168 54.2258 69.0584C54.3098 68.9486 54.3763 68.8565 54.3681 68.8438C54.3603 68.8314 54.2798 68.9046 54.1944 69.016ZM53.5693 70.1765C53.5585 70.169 53.5946 70.0487 53.6574 69.9135C53.72 69.7781 53.7845 69.6809 53.7944 69.6904C53.8045 69.7001 53.7572 69.8112 53.6955 69.9446C53.6337 70.0778 53.5804 70.1841 53.5693 70.1765ZM53.295 70.9537C53.2579 71.1047 53.2441 71.2328 53.256 71.2367C53.268 71.2407 53.3011 71.1208 53.3376 70.972C53.3741 70.8232 53.4006 70.7004 53.389 70.6943C53.3777 70.6881 53.332 70.8025 53.295 70.9537ZM53.1439 72.3653C53.1317 72.3655 53.121 72.2367 53.1294 72.0784C53.1374 71.9199 53.1611 71.7944 53.1732 71.7967C53.1856 71.799 53.182 71.9264 53.174 72.0824C53.1659 72.2383 53.1565 72.3652 53.1439 72.3653ZM53.1885 73.2207C53.2139 73.376 53.2443 73.4983 53.2562 73.4937C53.268 73.4893 53.2575 73.3616 53.2324 73.2089L53.2249 73.1678C53.2008 73.035 53.1822 72.9326 53.171 72.9344C53.1588 72.9362 53.1603 73.0659 53.1885 73.2207ZM53.5881 74.5436C53.5776 74.5518 53.5196 74.4476 53.4664 74.3054C53.413 74.1632 53.3855 74.0389 53.3968 74.0327C53.4084 74.0264 53.4539 74.1388 53.5065 74.2789C53.5589 74.4191 53.5989 74.5352 53.5881 74.5436ZM53.9422 75.2618C54.0195 75.3831 54.0944 75.4661 54.1032 75.4547C54.1121 75.4431 54.0526 75.3429 53.9764 75.2234C53.9 75.1041 53.8352 75.0098 53.8252 75.0196C53.8153 75.0292 53.8648 75.1408 53.9422 75.2618ZM54.7648 76.18C54.7583 76.1937 54.6707 76.1365 54.5742 76.0426C54.4776 75.949 54.4098 75.8558 54.4177 75.8435C54.4258 75.8307 54.5053 75.9024 54.6007 75.9947C54.6958 76.0871 54.7714 76.1659 54.7648 76.18ZM55.3284 76.6009C55.4394 76.6604 55.5351 76.6867 55.5387 76.6712C55.5425 76.6554 55.4544 76.6043 55.3451 76.5457C55.2357 76.4873 55.1456 76.4432 55.14 76.4581C55.1346 76.4727 55.2173 76.5415 55.3284 76.6009Z" fill="#84B3E6"/>
<path fill-rule="evenodd" clip-rule="evenodd" d="M55.9703 76.8166C55.968 76.8328 55.9629 76.8451 55.9587 76.8441C55.9545 76.843 55.9529 76.8292 55.9551 76.813C55.9574 76.7968 55.9625 76.7846 55.9666 76.7856C55.9709 76.7865 55.9725 76.8005 55.9703 76.8166Z" fill="#132529"/>
<path fill-rule="evenodd" clip-rule="evenodd" d="M47.8621 61.9026C47.6309 63.112 46.7049 63.8437 45.7936 63.5368C44.8825 63.2299 44.3312 62.0008 44.5625 60.7915C44.7937 59.582 45.7197 58.8505 46.6309 59.1573C47.5421 59.4641 48.0933 60.6932 47.8621 61.9026Z" fill="#FF8C02"/>
<path fill-rule="evenodd" clip-rule="evenodd" d="M46.8434 60.1223C46.8732 60.1377 46.6794 60.8939 46.411 61.8113C46.3715 61.9441 46.3333 62.0725 46.2964 62.1971L46.2759 62.2662L46.2244 62.2398C45.6725 61.9572 45.2696 61.7248 45.2792 61.691C45.2886 61.6572 45.7074 61.8329 46.2637 62.1005L46.1918 62.1432C46.228 62.0182 46.2651 61.8891 46.3035 61.7559C46.572 60.8385 46.8138 60.1071 46.8434 60.1223Z" fill="#FFFFFE"/>
<path fill-rule="evenodd" clip-rule="evenodd" d="M49.638 69.8992C49.5438 69.8138 49.8985 70.1112 50.0902 70.1144C50.0902 70.1144 49.9698 70.338 49.7777 70.2264C49.5783 70.1106 49.638 69.8992 49.638 69.8992Z" fill="#FFFFFE"/>
</g>
<defs>
<linearGradient id="paint0_linear_7187_23352" x1="55.5892" y1="43.8641" x2="28.9042" y2="99.7384" gradientUnits="userSpaceOnUse">
<stop stop-color="#3E9BD7"/>
<stop offset="1" stop-color="#1D62AE"/>
</linearGradient>
<linearGradient id="paint1_linear_7187_23352" x1="35.1464" y1="25.5145" x2="31.9548" y2="25.5145" gradientUnits="userSpaceOnUse">
<stop stop-color="#0B4444"/>
<stop offset="1" stop-color="#0C3535"/>
</linearGradient>
<linearGradient id="paint2_linear_7187_23352" x1="41.3007" y1="26.2892" x2="29.4905" y2="26.2892" gradientUnits="userSpaceOnUse">
<stop stop-color="#0B4444"/>
<stop offset="1" stop-color="#0C3535"/>
</linearGradient>
<linearGradient id="paint3_linear_7187_23352" x1="44.1293" y1="18.1259" x2="52.3339" y2="18.1259" gradientUnits="userSpaceOnUse">
<stop stop-color="#3E9BD7" stop-opacity="0.01"/>
<stop offset="1" stop-color="#1D62AE"/>
</linearGradient>
<linearGradient id="paint4_linear_7187_23352" x1="44.6339" y1="18.8996" x2="53.6556" y2="18.8996" gradientUnits="userSpaceOnUse">
<stop stop-color="#3E9BD7" stop-opacity="0.01"/>
<stop offset="1" stop-color="#1D62AE"/>
</linearGradient>
<linearGradient id="paint5_linear_7187_23352" x1="44.2761" y1="9.52577" x2="52.9617" y2="9.52577" gradientUnits="userSpaceOnUse">
<stop stop-color="#3E9BD7" stop-opacity="0.01"/>
<stop offset="1" stop-color="#1D62AE"/>
</linearGradient>
<linearGradient id="paint6_linear_7187_23352" x1="40.4986" y1="14.2394" x2="45.539" y2="17.5743" gradientUnits="userSpaceOnUse">
<stop stop-color="#3E9BD7"/>
<stop offset="1" stop-color="#1D62AE"/>
</linearGradient>
<linearGradient id="paint7_linear_7187_23352" x1="39.4764" y1="22.1821" x2="38.3497" y2="22.1821" gradientUnits="userSpaceOnUse">
<stop stop-color="#0B4444"/>
<stop offset="1" stop-color="#0C3535"/>
</linearGradient>
<linearGradient id="paint8_linear_7187_23352" x1="27.912" y1="76.3135" x2="27.912" y2="79.5267" gradientUnits="userSpaceOnUse">
<stop stop-color="#E2AD32"/>
<stop offset="1" stop-color="#DC8F30"/>
</linearGradient>
<linearGradient id="paint9_linear_7187_23352" x1="20.0764" y1="74.5659" x2="20.0764" y2="78.0162" gradientUnits="userSpaceOnUse">
<stop stop-color="#E2AD32"/>
<stop offset="1" stop-color="#DC8F30"/>
</linearGradient>
<linearGradient id="paint10_linear_7187_23352" x1="22.0087" y1="81.5716" x2="16.6539" y2="78.38" gradientUnits="userSpaceOnUse">
<stop stop-color="#0B4444"/>
<stop offset="1" stop-color="#0C3535"/>
</linearGradient>
<linearGradient id="paint11_linear_7187_23352" x1="22.9177" y1="38.5554" x2="37.7631" y2="46.3483" gradientUnits="userSpaceOnUse">
<stop stop-color="#1D62AE"/>
<stop offset="1" stop-color="#124781"/>
</linearGradient>
<linearGradient id="paint12_linear_7187_23352" x1="26.6485" y1="38.3758" x2="43.5271" y2="49.3222" gradientUnits="userSpaceOnUse">
<stop stop-color="#1D62AE"/>
<stop offset="1" stop-color="#3E9BD7"/>
</linearGradient>
<linearGradient id="paint13_linear_7187_23352" x1="24.8716" y1="15.9161" x2="40.8002" y2="25.514" gradientUnits="userSpaceOnUse">
<stop stop-color="#3E9BD7"/>
<stop offset="1" stop-color="#1D62AE"/>
</linearGradient>
<linearGradient id="paint14_linear_7187_23352" x1="24.9345" y1="23.4262" x2="35.4311" y2="33.802" gradientUnits="userSpaceOnUse">
<stop stop-color="#3E9BD7"/>
<stop offset="1" stop-color="#1D62AE"/>
</linearGradient>
<linearGradient id="paint15_linear_7187_23352" x1="35.6234" y1="43.165" x2="35.6234" y2="47.1933" gradientUnits="userSpaceOnUse">
<stop stop-color="#EFD6D4"/>
<stop offset="1" stop-color="#D7C1B9"/>
</linearGradient>
<linearGradient id="paint16_linear_7187_23352" x1="31.3666" y1="24.4761" x2="39.8884" y2="39.3114" gradientUnits="userSpaceOnUse">
<stop stop-color="#3E9BD7"/>
<stop offset="1" stop-color="#1D62AE"/>
</linearGradient>
<linearGradient id="paint17_linear_7187_23352" x1="34.3572" y1="24.0693" x2="34.3572" y2="27.4374" gradientUnits="userSpaceOnUse">
<stop stop-color="#EFD6D4"/>
<stop offset="1" stop-color="#D7C1B9"/>
</linearGradient>
<linearGradient id="paint18_linear_7187_23352" x1="30.0981" y1="26.0775" x2="28.9499" y2="38.2211" gradientUnits="userSpaceOnUse">
<stop stop-color="#3E9BD7"/>
<stop offset="1" stop-color="#1D62AE"/>
</linearGradient>
<linearGradient id="paint19_linear_7187_23352" x1="27.7099" y1="17.0747" x2="27.7099" y2="23.6969" gradientUnits="userSpaceOnUse">
<stop stop-color="#EFD6D4"/>
<stop offset="1" stop-color="#D7C1B9"/>
</linearGradient>
<linearGradient id="paint20_linear_7187_23352" x1="31.4986" y1="81.0328" x2="25.2843" y2="80.723" gradientUnits="userSpaceOnUse">
<stop stop-color="#0B4444"/>
<stop offset="1" stop-color="#0C3535"/>
</linearGradient>
</defs>
</svg>
