<svg width="96" height="96" viewBox="0 0 96 96" fill="none" xmlns="http://www.w3.org/2000/svg">
<g id="Principle/Logo/App Store/40x40">
<mask id="mask0" mask-type="alpha" maskUnits="userSpaceOnUse" x="0" y="0" width="96" height="96">
<circle id="Mask" cx="48" cy="48" r="48" fill="#C4C4C4"/>
</mask>
<g mask="url(#mask0)">
<g id="1)Principle/Logo/App Store/120x120">
<rect id="Rectangle" width="96" height="96" fill="#1D62AE"/>
<g id="Background" style="mix-blend-mode:multiply" opacity="0.606112">
<rect width="96" height="96" fill="url(#paint0_linear)"/>
</g>
<path id="Combined Shape" fill-rule="evenodd" clip-rule="evenodd" d="M77.8125 55.3192V48.1386V39.3424V30.5462V23.3656C77.8125 22.4681 77.0856 21.75 76.1769 21.75H67.9082H58.0947H48.2812H40.0125C39.1038 21.75 38.3769 22.4681 38.3769 23.3656V30.5462V37.7268C38.3769 38.6244 39.1038 39.3424 40.0125 39.3424H48.2812H58.0038V48.1386V55.3192C58.0038 56.2168 58.7308 56.9348 59.6394 56.9348H67.9082H76.1769C77.0856 56.9348 77.8125 56.2168 77.8125 55.3192ZM46.6457 48.1386H38.3769H30.1082C29.1995 48.1386 28.4726 48.8567 28.4726 49.7543V55.3192C28.4726 56.2168 29.1995 56.9348 30.1082 56.9348H38.3769V64.1154C38.3769 65.013 39.1038 65.731 40.0125 65.731H46.6457C47.5543 65.731 48.2812 65.013 48.2812 64.1154V56.9348V49.7543C48.2812 48.8567 47.5543 48.1386 46.6457 48.1386ZM20.3856 65.6413H27.0187C27.9274 65.6413 28.6543 66.3593 28.6543 67.2569V72.8219C28.6543 73.7194 27.9274 74.4375 27.0187 74.4375H20.3856C19.4769 74.4375 18.75 73.7194 18.75 72.8219V67.2569C18.75 66.3593 19.4769 65.6413 20.3856 65.6413Z" fill="white"/>
</g>
</g>
</g>
<defs>
<linearGradient id="paint0_linear" x1="10.0696" y1="20.1392" x2="10.0696" y2="96" gradientUnits="userSpaceOnUse">
<stop stop-color="white"/>
<stop offset="1" stop-color="#063852"/>
</linearGradient>
</defs>
</svg>
