<svg width="96" height="96" viewBox="0 0 96 96" fill="none" xmlns="http://www.w3.org/2000/svg">
<g id="1)Principle/Logo/App Store/40x40">
<mask id="mask0" mask-type="alpha" maskUnits="userSpaceOnUse" x="0" y="0" width="96" height="96">
<circle id="Ellipse 1" cx="48" cy="48" r="48" fill="#C4C4C4"/>
</mask>
<g mask="url(#mask0)">
<g id="Principle/Logo/Type/App/Playstore">
<path id="Path" fill-rule="evenodd" clip-rule="evenodd" d="M20.3856 65.6413H27.0187C27.9274 65.6413 28.6543 66.3593 28.6543 67.2569V72.8219C28.6543 73.7194 27.9274 74.4375 27.0187 74.4375H20.3856C19.4769 74.4375 18.75 73.7194 18.75 72.8219V67.2569C18.75 66.3593 19.4769 65.6413 20.3856 65.6413Z" fill="#1FC0F0"/>
<path id="Path_2" fill-rule="evenodd" clip-rule="evenodd" d="M46.6457 48.1386H38.3769H30.1082C29.1995 48.1386 28.4726 48.8567 28.4726 49.7543V55.3192C28.4726 56.2168 29.1995 56.9348 30.1082 56.9348H38.3769V64.1154C38.3769 65.013 39.1038 65.7311 40.0125 65.7311H46.6457C47.5543 65.7311 48.2812 65.013 48.2812 64.1154V56.9348V49.7543C48.2812 48.8567 47.5543 48.1386 46.6457 48.1386Z" fill="#177DB3"/>
<path id="Path_3" fill-rule="evenodd" clip-rule="evenodd" d="M77.8125 48.1386V55.3192C77.8125 56.2168 77.0856 56.9348 76.1769 56.9348H67.9082H59.6394C58.7308 56.9348 58.0039 56.2168 58.0039 55.3192V48.1386V39.3424H48.2813H40.0125C39.1039 39.3424 38.3769 38.6244 38.3769 37.7268V30.5462V23.3656C38.3769 22.4681 39.1039 21.75 40.0125 21.75H48.2813H58.0947H67.9082H76.1769C77.0856 21.75 77.8125 22.4681 77.8125 23.3656V30.5462V39.3424V48.1386Z" fill="#1E63AE"/>
</g>
</g>
</g>
</svg>
