<svg width="96" height="96" viewBox="0 0 96 96" fill="none" xmlns="http://www.w3.org/2000/svg">
<g id="1)Principle/Logo/App Store/40x40">
<mask id="mask0" mask-type="alpha" maskUnits="userSpaceOnUse" x="0" y="0" width="96" height="96">
<circle id="Mask" cx="48" cy="48" r="48" fill="#C4C4C4"/>
</mask>
<g mask="url(#mask0)">
<g id="layer1">
<g id="g2858">
<g id="path2226" opacity="0.53" filter="url(#filter0_f)">
<path d="M96.4143 51.1147C96.4143 57.2202 95.1654 63.2658 92.7391 68.9065C90.3127 74.5472 86.7563 79.6724 82.2729 83.9896C77.7895 88.3068 72.467 91.7314 66.6092 94.0678C60.7514 96.4043 54.4731 97.6068 48.1326 97.6068C41.7922 97.6068 35.5139 96.4043 29.6561 94.0678C23.7983 91.7314 18.4757 88.3068 13.9924 83.9896C9.50902 79.6724 5.95262 74.5472 3.52624 68.9065C1.09986 63.2658 -0.14898 57.2202 -0.148979 51.1147C-0.148979 38.7843 4.93782 26.9588 13.9924 18.2399C23.0469 9.5209 35.3276 4.62264 48.1326 4.62263C54.4731 4.62263 60.7514 5.82519 66.6092 8.16163C72.467 10.4981 77.7895 13.9227 82.2729 18.2399C86.7563 22.557 90.3127 27.6823 92.7391 33.323C95.1654 38.9637 96.4143 45.0093 96.4143 51.1147Z" fill="black"/>
</g>
<path id="path826" d="M98.253 47.0107C98.253 53.5926 96.9566 60.1101 94.4378 66.1909C91.919 72.2718 88.2272 77.797 83.5731 82.4511C78.919 87.1052 73.3938 90.7971 67.3129 93.3159C61.232 95.8346 54.7146 97.131 48.1327 97.131C34.8399 97.131 22.0917 91.8505 12.6923 82.4511C3.29291 73.0518 -1.9876 60.3035 -1.9876 47.0107C-1.9876 33.718 3.29291 20.9697 12.6923 11.5703C22.0917 2.17094 34.8399 -3.10959 48.1327 -3.10959C54.7146 -3.10959 61.232 -1.81318 67.3129 0.705597C73.3938 3.22438 78.919 6.91622 83.5731 11.5703C88.2272 16.2244 91.919 21.7496 94.4378 27.8305C96.9566 33.9114 98.253 40.4288 98.253 47.0107Z" fill="url(#paint0_linear)" stroke="#CDCDCD" stroke-width="0.0930123" stroke-linecap="round" stroke-linejoin="round"/>
<path id="circle828" d="M94.3256 47.0107C94.3256 59.2618 89.4589 71.0112 80.796 79.674C72.1332 88.3369 60.3838 93.2036 48.1327 93.2036C35.8816 93.2036 24.1322 88.3369 15.4693 79.674C6.80649 71.0112 1.93975 59.2618 1.93975 47.0107C1.93975 34.7596 6.80649 23.0102 15.4693 14.3474C24.1322 5.68453 35.8816 0.817795 48.1327 0.817795C60.3838 0.817795 72.1332 5.68453 80.796 14.3474C89.4589 23.0102 94.3256 34.7596 94.3256 47.0107Z" fill="url(#paint1_radial)"/>
<path id="rect830" d="M48.1327 3.22673C47.7596 3.22673 47.4592 3.52707 47.4592 3.90019V11.6685C47.4592 12.0416 47.7596 12.3419 48.1327 12.3419C48.5058 12.3419 48.8062 12.0416 48.8062 11.6685V3.90019C48.8062 3.52707 48.5058 3.22673 48.1327 3.22673ZM43.7268 3.5052C43.6822 3.5004 43.6362 3.5004 43.5898 3.50576C43.2187 3.54448 42.9512 3.87438 42.9899 4.24548L43.3294 7.49538C43.3681 7.86649 43.6981 8.13409 44.0691 8.09533C44.4403 8.05661 44.7079 7.72669 44.6691 7.35559L44.3299 4.10571C44.296 3.78099 44.039 3.53552 43.7268 3.5052H43.7268ZM52.5693 3.5084C52.257 3.53848 52.0001 3.78392 51.9659 4.10859L51.6241 7.35822C51.5851 7.7293 51.8527 8.05953 52.2238 8.09856C52.5948 8.1376 52.9247 7.87026 52.9638 7.49919L53.3056 4.24929C53.3447 3.87822 53.077 3.54826 52.706 3.50925C52.6596 3.50445 52.614 3.50445 52.5693 3.50842V3.5084ZM39.2009 4.1615C39.1561 4.16185 39.1105 4.1663 39.0649 4.1759C38.6999 4.25318 38.4682 4.60934 38.5455 4.97436L40.1543 12.574C40.2316 12.9391 40.5877 13.1707 40.9527 13.0935C41.3178 13.0162 41.5494 12.6603 41.4722 12.2953L39.8633 4.69533C39.7957 4.37593 39.5147 4.15863 39.2009 4.16108L39.2009 4.1615ZM57.095 4.16792C56.7812 4.16472 56.5001 4.38222 56.4323 4.70156L54.8179 12.3004C54.7403 12.6653 54.9719 13.0216 55.3368 13.0991C55.7017 13.1767 56.058 12.9452 56.1355 12.5803L57.7499 4.98144C57.8275 4.61648 57.5959 4.26023 57.231 4.18271C57.1854 4.17311 57.1398 4.16831 57.095 4.16831L57.095 4.16792ZM34.8816 5.37937C34.7944 5.37137 34.7043 5.38098 34.6156 5.41042C34.2608 5.52578 34.0678 5.90401 34.1832 6.25886L35.1929 9.36665C35.3083 9.72151 35.6868 9.91444 36.0417 9.79914C36.3965 9.68378 36.5892 9.30526 36.4739 8.95041L35.4641 5.84265C35.3777 5.5765 35.1432 5.40156 34.8816 5.37932V5.37937ZM61.3898 5.38098C61.1283 5.40322 60.8938 5.57816 60.8073 5.84428L59.797 8.95178C59.6816 9.30661 59.8744 9.68516 60.2292 9.80051C60.584 9.91587 60.9626 9.72307 61.078 9.36831L62.0883 6.26052C62.2036 5.90567 62.0109 5.52713 61.6561 5.41179C61.5675 5.38299 61.477 5.37355 61.3898 5.38091V5.38098ZM30.6103 6.94243C30.5228 6.94403 30.4343 6.96322 30.349 7.00114C30.0083 7.15266 29.8556 7.54904 30.0072 7.88999L33.1624 14.9886C33.3139 15.3295 33.7102 15.4819 34.0512 15.3304C34.3919 15.1789 34.5449 14.7825 34.3933 14.4415L31.2378 7.34297C31.1242 7.08724 30.8728 6.93734 30.6103 6.94243ZM65.7094 6.96626C65.4469 6.96146 65.1953 7.11041 65.0813 7.36591L61.9165 14.4602C61.7645 14.8009 61.9164 15.1976 62.2572 15.3496C62.5979 15.5016 62.9946 15.3497 63.1466 15.0089L66.3114 7.91472C66.4634 7.57397 66.3114 7.17728 65.9707 7.02527C65.8856 6.98735 65.7969 6.96815 65.7094 6.96623V6.96626ZM26.6457 9.04016C26.5164 9.03056 26.3831 9.05934 26.262 9.12942C25.9388 9.31598 25.8289 9.72627 26.0155 10.0494L27.6493 12.8793C27.8359 13.2024 28.2462 13.3123 28.5693 13.1258C28.8924 12.9392 29.0023 12.5289 28.8158 12.2058L27.1819 9.37592C27.0653 9.17396 26.8612 9.05525 26.6457 9.04018V9.04016ZM69.6197 9.04016C69.4042 9.05456 69.2003 9.17391 69.0837 9.37588L67.4496 12.2058C67.263 12.5289 67.3733 12.9391 67.6964 13.1257C68.0195 13.3123 68.4297 13.2024 68.6163 12.8792L70.2501 10.0493C70.4367 9.72622 70.3268 9.31593 70.0037 9.12937C69.8825 9.05945 69.749 9.03115 69.6197 9.04011V9.04016ZM22.7958 11.4413C22.6662 11.4461 22.5365 11.4877 22.4232 11.5698C22.1212 11.7889 22.0544 12.2084 22.2736 12.5104L26.835 18.7983C27.0541 19.1003 27.4738 19.1671 27.7758 18.9481C28.0778 18.729 28.1446 18.3095 27.9254 18.0075L23.3638 11.7196C23.2268 11.5308 23.0117 11.434 22.7958 11.4414V11.4413ZM73.5178 11.4756C73.3019 11.4676 73.0867 11.5644 72.9495 11.7529L68.3794 18.0347C68.1599 18.3364 68.2262 18.7561 68.5279 18.9756C68.8297 19.195 69.2493 19.129 69.4688 18.8274L74.0386 12.5456C74.2581 12.2438 74.1917 11.8242 73.8901 11.6047C73.777 11.5224 73.6473 11.4802 73.5178 11.4756ZM19.3546 14.3272C19.1827 14.3176 19.0073 14.3751 18.8687 14.4999C18.5913 14.7495 18.5691 15.1737 18.8188 15.451L21.0051 17.8798C21.2547 18.1571 21.6788 18.1794 21.9562 17.9297C22.2335 17.68 22.2558 17.2556 22.0061 16.9783L19.82 14.5498C19.6952 14.4111 19.5266 14.3362 19.3546 14.3272V14.3272ZM76.9156 14.3321C76.7437 14.3417 76.5751 14.416 76.4503 14.5547L74.2639 16.9829C74.0142 17.2602 74.0363 17.6846 74.3137 17.9342C74.5909 18.1839 75.0151 18.1615 75.2647 17.8843L77.4514 15.4561C77.7011 15.1788 77.6787 14.7544 77.4015 14.5048C77.2627 14.38 77.0877 14.3231 76.9158 14.3321L76.9156 14.3321ZM16.0565 17.4953C15.8846 17.5049 15.7162 17.5793 15.5914 17.718C15.3418 17.9953 15.3641 18.4194 15.6414 18.669L21.4148 23.8664C21.6921 24.116 22.1162 24.0937 22.3658 23.8165C22.6155 23.5392 22.5934 23.115 22.3161 22.8654L16.5423 17.6681C16.4036 17.5433 16.2283 17.4864 16.0563 17.4954L16.0565 17.4953ZM80.2298 17.518C80.0579 17.5084 79.8822 17.5657 79.7435 17.6904L73.9666 22.8837C73.6891 23.1331 73.6663 23.5573 73.9157 23.8348C74.1651 24.1122 74.5896 24.1348 74.867 23.8853L80.6442 18.692C80.9217 18.4426 80.9443 18.0185 80.6948 17.741C80.57 17.6023 80.4016 17.5272 80.2297 17.518H80.2298ZM13.3138 21.022C13.0979 21.014 12.8826 21.1113 12.7456 21.2999C12.5262 21.6018 12.5928 22.0212 12.8947 22.2405L15.5382 24.1612C15.8401 24.3805 16.2595 24.3143 16.4788 24.0124C16.6981 23.7105 16.6318 23.2908 16.33 23.0715L13.6864 21.1508C13.5733 21.0686 13.4434 21.0266 13.3138 21.022L13.3138 21.022ZM82.9699 21.0465C82.8403 21.0513 82.7105 21.0927 82.5973 21.175L79.9525 23.094C79.6505 23.3131 79.5837 23.7328 79.8027 24.0348C80.0219 24.3368 80.4413 24.4033 80.7433 24.1843L83.3884 22.2653C83.6904 22.0462 83.7569 21.6267 83.5378 21.3247C83.4009 21.136 83.1858 21.0392 82.9699 21.0466V21.0465ZM10.7507 24.7839C10.5352 24.7983 10.3314 24.9176 10.2147 25.1196C10.0282 25.4427 10.1381 25.853 10.4612 26.0395L17.1886 29.9237C17.5117 30.1102 17.922 30.0003 18.1086 29.6772C18.2952 29.354 18.1852 28.9438 17.8621 28.7572L11.1347 24.8731C11.0136 24.8031 10.88 24.7748 10.7507 24.7838V24.7839ZM85.5146 24.7839C85.3853 24.7743 85.2518 24.8031 85.1307 24.8731L78.4033 28.7573C78.0801 28.9438 77.9702 29.3541 78.1568 29.6772C78.3433 30.0004 78.7536 30.1103 79.0767 29.9237L85.8044 26.0396C86.1276 25.853 86.2374 25.4427 86.0509 25.1196C85.9342 24.9177 85.7301 24.799 85.5146 24.7839V24.7839ZM8.81284 28.7935C8.5504 28.7871 8.29872 28.9374 8.18472 29.1929C8.03272 29.5337 8.18462 29.9304 8.52539 30.0823L11.5099 31.4136C11.8507 31.5656 12.2474 31.4137 12.3994 31.0729C12.5514 30.7322 12.3992 30.3355 12.0584 30.1835L9.07417 28.8523C8.98905 28.8142 8.90032 28.7953 8.81284 28.7935ZM87.4656 28.8212C87.3781 28.8228 87.2892 28.842 87.204 28.88L84.2188 30.2089C83.878 30.3607 83.7255 30.7571 83.8773 31.098C84.0291 31.4389 84.4259 31.5913 84.7667 31.4395L87.7519 30.1103C88.0927 29.9586 88.2449 29.5621 88.0931 29.2212C87.9794 28.9655 87.728 28.816 87.4656 28.8212ZM7.08574 32.9844C6.82416 33.0063 6.58967 33.1811 6.50298 33.4472C6.38746 33.8019 6.57974 34.1806 6.93457 34.2962L14.3207 36.7029C14.6754 36.8184 15.0541 36.6259 15.1697 36.2712C15.2852 35.9165 15.0929 35.5378 14.738 35.4222L7.352 33.0155C7.26336 32.9865 7.17293 32.9771 7.08574 32.9845V32.9844ZM89.1895 33.0132C89.1023 33.0052 89.0123 33.0148 88.9235 33.0443L81.5357 35.4457C81.1809 35.5611 80.9882 35.9396 81.1035 36.2945C81.2189 36.6493 81.5974 36.842 81.9522 36.7267L89.3397 34.3252C89.6946 34.2099 89.8876 33.8313 89.7723 33.4765C89.6857 33.2104 89.451 33.0354 89.1895 33.0132V33.0132ZM6.00972 37.3836C5.69596 37.3804 5.41455 37.5982 5.34668 37.9176C5.26908 38.2825 5.50062 38.6387 5.86553 38.7163L9.06196 39.3956C9.42692 39.4732 9.78311 39.2417 9.8607 38.8768C9.9383 38.5118 9.70681 38.1556 9.3419 38.078L6.14575 37.3987C6.10015 37.3891 6.05452 37.3843 6.00972 37.3843V37.3836ZM90.2571 37.3901C90.2123 37.3904 90.167 37.3964 90.1214 37.4044L86.925 38.0834C86.56 38.161 86.3286 38.5169 86.4061 38.8819C86.4838 39.2469 86.8399 39.4785 87.2049 39.401L90.401 38.722C90.766 38.6444 90.9977 38.2883 90.9202 37.9233C90.8523 37.6039 90.5709 37.3867 90.2572 37.3893L90.2571 37.3901ZM5.19527 41.8087C4.88295 41.8386 4.62586 42.0837 4.59156 42.4083C4.55236 42.7794 4.81929 43.1098 5.19033 43.149L12.9156 43.9657C13.2866 44.0049 13.617 43.7377 13.6562 43.3667C13.6954 42.9956 13.4282 42.6653 13.0571 42.6261L5.33189 41.8093C5.28549 41.8045 5.23991 41.8045 5.19527 41.8087V41.8087ZM91.0773 41.8668C91.0327 41.862 90.9868 41.862 90.9404 41.8674L83.2143 42.6737C82.8432 42.7124 82.5756 43.0423 82.6143 43.4134C82.653 43.7845 82.9829 44.0521 83.354 44.0133L91.0802 43.207C91.4513 43.1683 91.7188 42.8384 91.6801 42.4673C91.6462 42.1426 91.3896 41.8971 91.0773 41.8668L91.0773 41.8668ZM5.06446 46.3384C4.69134 46.3384 4.39102 46.6387 4.39102 47.0118C4.39102 47.3849 4.69134 47.6853 5.06446 47.6853H8.33213C8.70523 47.6853 9.00586 47.3849 9.00586 47.0118C9.00586 46.6387 8.70523 46.3384 8.33213 46.3384H5.06446ZM87.9332 46.3384C87.5601 46.3384 87.2598 46.6387 87.2598 47.0118C87.2598 47.3849 87.5601 47.6853 87.9332 47.6853H91.2009C91.574 47.6853 91.8744 47.3849 91.8744 47.0118C91.8744 46.6387 91.574 46.3384 91.2009 46.3384H87.9332ZM13.0481 50.0097C13.0035 50.0049 12.9579 50.0049 12.9115 50.0103L5.18506 50.8166C4.81396 50.8553 4.54647 51.1853 4.58516 51.5563C4.62388 51.9274 4.95377 52.195 5.32486 52.1563L13.0513 51.35C13.4224 51.3113 13.6899 50.9813 13.6512 50.6102C13.6173 50.2855 13.3604 50.0401 13.0481 50.0097H13.0481ZM83.2131 50.0574C82.9008 50.0873 82.6437 50.3324 82.6094 50.6571C82.5702 51.0281 82.8372 51.3585 83.2082 51.3977L90.9335 52.2144C91.3045 52.2536 91.6349 51.9864 91.6741 51.6154C91.7133 51.2444 91.446 50.914 91.075 50.8748L83.35 50.058C83.3036 50.0532 83.2577 50.0532 83.2131 50.0575L83.2131 50.0574ZM9.19683 54.6072C9.15203 54.6076 9.10644 54.612 9.06084 54.6216L5.86441 55.3006C5.49943 55.3782 5.26805 55.7343 5.34556 56.0993C5.42316 56.4643 5.77936 56.6957 6.14434 56.6181L9.34077 55.9394C9.70573 55.8618 9.93709 55.5057 9.85957 55.1407C9.79173 54.8213 9.51062 54.6041 9.19688 54.6068L9.19683 54.6072ZM87.0676 54.6136C86.7539 54.6104 86.4728 54.8279 86.4049 55.1472C86.3273 55.5122 86.5585 55.8684 86.9235 55.946L90.1199 56.6253C90.4849 56.7029 90.8411 56.4716 90.9187 56.1067C90.9962 55.7417 90.7647 55.3853 90.3998 55.3077L87.2037 54.6284C87.1581 54.6188 87.1125 54.614 87.0677 54.614L87.0676 54.6136ZM14.5793 57.2662C14.4921 57.2582 14.4021 57.2678 14.3134 57.2972L6.92559 59.6987C6.57074 59.814 6.37802 60.1926 6.49336 60.5474C6.60872 60.9023 6.98724 61.095 7.34209 60.9796L14.7296 58.5782C15.0845 58.4628 15.2775 58.0842 15.1621 57.7294C15.0756 57.4633 14.8409 57.2883 14.5793 57.2661V57.2662ZM81.6788 57.29C81.4172 57.3119 81.1826 57.4867 81.0959 57.7528C80.9804 58.1075 81.1728 58.4862 81.5276 58.6018L88.9137 61.0085C89.2684 61.124 89.6471 60.9315 89.7627 60.5769C89.8784 60.2221 89.6859 59.8434 89.3311 59.7278L81.945 57.3211C81.8563 57.2922 81.766 57.2827 81.6788 57.2901V57.29ZM11.7602 62.526C11.6727 62.5276 11.5841 62.5465 11.4989 62.5844L8.51348 63.9136C8.17261 64.0653 8.02047 64.4619 8.17222 64.8028C8.32406 65.1436 8.72053 65.2958 9.06138 65.144L12.0468 63.8151C12.3876 63.6634 12.5398 63.2668 12.388 62.9259C12.2743 62.6703 12.0227 62.5208 11.7602 62.526V62.526ZM84.4944 62.5516C84.2319 62.5452 83.9803 62.6955 83.8663 62.951C83.7143 63.2918 83.8662 63.6884 84.2069 63.8404L87.1912 65.1717C87.5319 65.3237 87.9286 65.1718 88.0806 64.831C88.2326 64.4902 88.0807 64.0936 87.7399 63.9416L84.7557 62.6103C84.6706 62.5723 84.5819 62.5534 84.4944 62.5516V62.5516ZM17.5726 64.0111C17.4433 64.0015 17.3098 64.0303 17.1886 64.1003L10.4612 67.9845C10.1381 68.171 10.0282 68.5813 10.2147 68.9044C10.4013 69.2275 10.8115 69.3375 11.1347 69.1509L17.8621 65.2671C18.1852 65.0805 18.2951 64.6699 18.1086 64.3468C17.992 64.1449 17.7881 64.0262 17.5726 64.0111V64.0111ZM78.693 64.0111C78.4775 64.0255 78.2734 64.1448 78.1568 64.3468C77.9702 64.6699 78.0801 65.0805 78.4033 65.267L85.1307 69.1509C85.4538 69.3374 85.8643 69.2275 86.0509 68.9044C86.2374 68.5812 86.1275 68.171 85.8044 67.9844L79.0767 64.1003C78.9556 64.0304 78.8223 64.002 78.693 64.011V64.0111ZM15.8946 69.711C15.765 69.7158 15.6352 69.7575 15.522 69.8398L12.8772 71.7587C12.5752 71.9778 12.5084 72.3973 12.7274 72.6993C12.9466 73.0013 13.3661 73.0681 13.6681 72.8489L16.3131 70.9299C16.6151 70.7109 16.6819 70.2914 16.4628 69.9894C16.3259 69.8006 16.1105 69.7035 15.8946 69.7109V69.711ZM80.3548 69.7337C80.1389 69.7257 79.9236 69.823 79.7865 70.0115C79.5672 70.3134 79.6337 70.7331 79.9356 70.9524L82.5792 72.8731C82.8811 73.0924 83.3005 73.0259 83.5198 72.724C83.7391 72.4222 83.6728 72.0027 83.371 71.7834L80.7274 69.8627C80.6143 69.7805 80.4844 69.7382 80.3548 69.7336L80.3548 69.7337ZM21.8846 69.9662C21.7127 69.9566 21.5373 70.0139 21.3986 70.1386L15.6214 75.3319C15.3439 75.5813 15.3213 76.0054 15.5708 76.2829C15.8202 76.5604 16.2444 76.5829 16.5219 76.3335L22.2991 71.1402C22.5765 70.8908 22.5991 70.4666 22.3497 70.1891C22.225 70.0504 22.0565 69.9754 21.8846 69.9662ZM74.3647 69.9848C74.1928 69.9944 74.0242 70.0688 73.8994 70.2074C73.6498 70.4847 73.6721 70.9088 73.9494 71.1585L79.7228 76.3558C80.0001 76.6055 80.4245 76.5831 80.6741 76.3059C80.9238 76.0286 80.9014 75.6045 80.6242 75.3549L74.8504 70.1575C74.7117 70.0327 74.5367 69.9758 74.3647 69.9848V69.9848ZM27.3653 74.9185C27.1494 74.9105 26.934 75.0071 26.7968 75.1958L22.227 81.4776C22.0075 81.7793 22.0735 82.199 22.3751 82.4185C22.6769 82.638 23.0965 82.5719 23.316 82.2702L27.8858 75.9883C28.1053 75.6866 28.0393 75.267 27.7377 75.0475C27.6246 74.9652 27.4949 74.923 27.3653 74.9185ZM68.8625 74.9466C68.7329 74.9514 68.6032 74.9929 68.4899 75.0751C68.1879 75.2942 68.1211 75.7137 68.3401 76.0157L72.9015 82.3037C73.1205 82.6057 73.5401 82.6725 73.8421 82.4534C74.1441 82.2343 74.2109 81.8148 73.9918 81.5128L69.4305 75.2249C69.2935 75.0361 69.0784 74.9394 68.8625 74.9467V74.9466ZM21.466 75.9169C21.2941 75.9265 21.1255 76.0009 21.0007 76.1395L18.8143 78.5677C18.5646 78.845 18.5867 79.2694 18.8641 79.5191C19.1413 79.7687 19.5654 79.7464 19.8151 79.469L22.0018 77.0408C22.2515 76.7635 22.2291 76.3391 21.9519 76.0895C21.8131 75.9647 21.6381 75.9078 21.4661 75.9168L21.466 75.9169ZM74.7953 75.9201C74.6233 75.9105 74.4482 75.9679 74.3096 76.0927C74.0322 76.3423 74.0099 76.7665 74.2595 77.0438L76.4456 79.4726C76.6952 79.7499 77.1193 79.7722 77.3966 79.5225C77.6739 79.2729 77.6962 78.8485 77.4465 78.5712L75.2604 76.1427C75.1356 76.004 74.967 75.9291 74.7951 75.92L74.7953 75.9201ZM33.7469 78.614C33.4844 78.6076 33.233 78.7578 33.119 79.0133L29.954 86.1076C29.802 86.4483 29.9539 86.845 30.2947 86.997C30.6354 87.149 31.0321 86.9971 31.1841 86.6563L34.3491 79.5621C34.5011 79.2214 34.3492 78.8247 34.0084 78.6727C33.9233 78.6346 33.8344 78.6157 33.7469 78.614ZM62.4758 78.6335C62.3883 78.6351 62.2994 78.6539 62.2142 78.6919C61.8734 78.8434 61.7208 79.2398 61.8724 79.5807L65.0275 86.6793C65.179 87.0201 65.5757 87.1727 65.9166 87.0211C66.2574 86.8696 66.41 86.4732 66.2584 86.1323L63.1033 79.0337C62.9897 78.7781 62.7382 78.6284 62.4758 78.6335ZM28.1853 80.8073C27.9698 80.8217 27.7659 80.9411 27.6493 81.1431L26.0155 83.973C25.8289 84.2961 25.9388 84.7064 26.262 84.8929C26.5851 85.0795 26.9954 84.9695 27.1819 84.6464L28.8158 81.8165C29.0023 81.4934 28.8924 81.0831 28.5693 80.8966C28.4482 80.8267 28.3146 80.7983 28.1853 80.8073V80.8073ZM68.08 80.8073C67.9507 80.7977 67.8176 80.8267 67.6964 80.8966C67.3733 81.0832 67.2633 81.4935 67.4499 81.8166L69.0837 84.6465C69.2703 84.9696 69.6806 85.0795 70.0037 84.893C70.3268 84.7064 70.4367 84.2961 70.2501 83.973L68.6163 81.1431C68.4997 80.9412 68.2955 80.8224 68.08 80.8074V80.8073ZM40.7928 80.9088C40.4791 80.9056 40.198 81.1231 40.1301 81.4424L38.5158 89.0413C38.4382 89.4062 38.6697 89.7625 39.0346 89.84C39.3996 89.9176 39.7558 89.6861 39.8334 89.3212L41.4477 81.7224C41.5253 81.3574 41.2938 81.0011 40.9289 80.9236C40.8833 80.914 40.8377 80.9092 40.7929 80.9092L40.7928 80.9088ZM55.4487 80.9136C55.4039 80.9139 55.3586 80.9184 55.313 80.928C54.948 81.0053 54.7163 81.3611 54.7936 81.7261L56.4024 89.3261C56.4797 89.6911 56.8358 89.9228 57.2008 89.8456C57.5659 89.7683 57.7975 89.4121 57.7203 89.0471L56.1111 81.4477C56.0435 81.1283 55.7625 80.911 55.4487 80.9134L55.4487 80.9136ZM48.1327 81.6801C47.7596 81.6801 47.4592 81.9804 47.4592 82.3535V90.1218C47.4592 90.4949 47.7596 90.7953 48.1327 90.7953C48.5058 90.7953 48.8062 90.4949 48.8062 90.1218V82.3535C48.8062 81.9804 48.5058 81.6801 48.1327 81.6801ZM35.7702 84.1902C35.5086 84.2125 35.2739 84.3874 35.1874 84.6536L34.1773 87.7613C34.062 88.1162 34.2548 88.4947 34.6096 88.6101C34.9644 88.7254 35.3429 88.5323 35.4583 88.1776L36.4684 85.0701C36.5837 84.7153 36.3909 84.3367 36.0361 84.2213C35.9475 84.1925 35.8574 84.1829 35.7702 84.1903V84.1902ZM60.4899 84.1918C60.4027 84.1838 60.3127 84.1934 60.224 84.2227C59.8692 84.3381 59.6762 84.7166 59.7915 85.0715L60.8013 88.1792C60.9166 88.5341 61.2952 88.7267 61.65 88.6114C62.0048 88.4961 62.1978 88.1179 62.0825 87.763L61.0725 84.6552C60.9859 84.3891 60.7515 84.2141 60.4899 84.1919V84.1918ZM43.9053 85.9227C43.593 85.9528 43.3357 86.198 43.3016 86.5227L42.96 89.7726C42.921 90.1436 43.1883 90.4736 43.5594 90.5126C43.9304 90.5517 44.2607 90.2843 44.2997 89.9132L44.6412 86.6636C44.6803 86.2926 44.4129 85.9623 44.0419 85.9233C43.9955 85.9185 43.9499 85.9185 43.9052 85.9227L43.9053 85.9227ZM52.3331 85.9259C52.2884 85.9211 52.2425 85.9211 52.1961 85.9265C51.825 85.9652 51.5574 86.2951 51.5961 86.6662L51.9356 89.9164C51.9744 90.2875 52.3043 90.5548 52.6754 90.5161C53.0465 90.4774 53.3141 90.1474 53.2753 89.7763L52.9361 86.5264C52.9022 86.2017 52.6453 85.9562 52.333 85.9259L52.3331 85.9259Z" fill="#F4F2F3"/>
<g id="path2150" opacity="0.409" filter="url(#filter1_f)">
<path d="M79.6991 20.0723L42.852 41.4805L19.5547 78.1572L53.6368 52.9129L79.6991 20.0723Z" fill="black"/>
</g>
<g id="g2847">
<path id="path2096" d="M53.4134 52.5409L42.8519 41.4805L80.3176 16.2773L53.4134 52.5409Z" fill="#FF5150"/>
<path id="path2099" d="M53.4134 52.5409L42.8519 41.4805L15.9477 77.7441L53.4134 52.5409Z" fill="#F1F1F1"/>
<path id="path2112" opacity="0.243" d="M15.9477 77.7441L53.4134 52.5409L80.3176 16.2773L15.9477 77.7441Z" fill="black"/>
</g>
</g>
</g>
</g>
</g>
<defs>
<filter id="filter0_f" x="-3.70236" y="1.06925" width="103.67" height="100.091" filterUnits="userSpaceOnUse" color-interpolation-filters="sRGB">
<feFlood flood-opacity="0" result="BackgroundImageFix"/>
<feBlend mode="normal" in="SourceGraphic" in2="BackgroundImageFix" result="shape"/>
<feGaussianBlur stdDeviation="1.18446" result="effect1_foregroundBlur"/>
</filter>
<filter id="filter1_f" x="18.5447" y="19.0623" width="62.1644" height="60.1048" filterUnits="userSpaceOnUse" color-interpolation-filters="sRGB">
<feFlood flood-opacity="0" result="BackgroundImageFix"/>
<feBlend mode="normal" in="SourceGraphic" in2="BackgroundImageFix" result="shape"/>
<feGaussianBlur stdDeviation="0.336663" result="effect1_foregroundBlur"/>
</filter>
<linearGradient id="paint0_linear" x1="48.1327" y1="97.131" x2="48.1327" y2="-3.10959" gradientUnits="userSpaceOnUse">
<stop stop-color="#BDBDBD"/>
<stop offset="1" stop-color="white"/>
</linearGradient>
<radialGradient id="paint1_radial" cx="0" cy="0" r="1" gradientUnits="userSpaceOnUse" gradientTransform="translate(48.3429 40.2758) scale(50.1205)">
<stop stop-color="#06C2E7"/>
<stop offset="0.25" stop-color="#0DB8EC"/>
<stop offset="0.5" stop-color="#12AEF1"/>
<stop offset="0.75" stop-color="#1F86F9"/>
<stop offset="1" stop-color="#107DDD"/>
</radialGradient>
</defs>
</svg>
