<svg width="96" height="96" viewBox="0 0 96 96" fill="none" xmlns="http://www.w3.org/2000/svg">
<g id="Principle/Logo/Inggris">
<mask id="mask0" mask-type="alpha" maskUnits="userSpaceOnUse" x="0" y="0" width="96" height="96">
<circle id="Mask" cx="48" cy="48" r="48" fill="#C4C4C4"/>
</mask>
<g mask="url(#mask0)">
<path id="Fill 1" fill-rule="evenodd" clip-rule="evenodd" d="M97.2178 41.1538C97.0551 39.6961 96.8314 38.2565 96.545 36.8396H80.664L93.108 26.2273C92.0566 23.9151 90.8304 21.6992 89.4503 19.5935L69.0976 36.8396H60.4943L86.1398 15.1093C85.3581 14.167 84.5421 13.2546 83.6938 12.373L58.1252 34.0484V-1.78702C56.8583 -2.05019 55.5747 -2.26653 54.2747 -2.43115V41.1538H97.2178Z" fill="white"/>
<path id="Fill 3" fill-rule="evenodd" clip-rule="evenodd" d="M54.2749 95.8572C55.5748 95.6928 56.8584 95.4765 58.1253 95.213V61.2618L82.4828 82.2676C84.4065 80.4008 86.1805 78.3807 87.7823 76.2246L67.1561 58.404H75.7626L90.9011 71.4826C91.4535 70.5274 91.9733 69.5513 92.4626 68.5574L80.6641 58.404H96.1387C96.4804 56.9917 96.7636 55.5567 96.9813 54.1003H54.2749V95.8572Z" fill="white"/>
<path id="Fill 5" fill-rule="evenodd" clip-rule="evenodd" d="M42.7299 -2.5479C41.4273 -2.41035 40.1407 -2.22164 38.8703 -1.98527L38.8795 34.0508L12.7881 11.8612C11.1208 13.545 9.57366 15.3475 8.16004 17.2555L31.1995 36.8398H22.5895L5.08046 21.9439C4.39166 23.1344 3.75321 24.3566 3.16351 25.6067L16.3369 36.8398H-0.562912C-0.849643 38.2564 -1.07329 39.696 -1.23628 41.1538H42.7299V-2.5479Z" fill="white"/>
<path id="Fill 7" fill-rule="evenodd" clip-rule="evenodd" d="M38.8796 95.4132C40.147 95.6488 41.4306 95.837 42.73 95.974V54.1004H-0.999561C-0.781603 55.5568 -0.498662 56.9918 -0.157239 58.4041H16.337L3.86133 69.246C5.16068 71.7857 6.67367 74.1976 8.3751 76.4598L29.2474 58.4041H37.8613L12.0116 80.764C12.662 81.4511 13.3327 82.1188 14.0209 82.7678L38.8796 61.2617V95.4132Z" fill="white"/>
<path id="Fill 9" fill-rule="evenodd" clip-rule="evenodd" d="M69.0975 36.8397L89.4502 19.5937C88.4292 18.036 87.3248 16.5384 86.1397 15.1091L60.4945 36.8397H69.0975Z" fill="#DD0032"/>
<path id="Fill 11" fill-rule="evenodd" clip-rule="evenodd" d="M67.1562 58.404L87.7824 76.2246C88.9087 74.7081 89.9509 73.1253 90.9012 71.4826L75.7627 58.404H67.1562Z" fill="#DD0032"/>
<path id="Fill 13" fill-rule="evenodd" clip-rule="evenodd" d="M31.1995 36.8397L8.16007 17.2554C7.04888 18.7557 6.01947 20.3204 5.08048 21.9438L22.5895 36.8397H31.1995Z" fill="#DD0032"/>
<path id="Fill 15" fill-rule="evenodd" clip-rule="evenodd" d="M29.2474 58.404L8.37504 76.4599C9.50572 77.9631 10.7203 79.4003 12.0116 80.7638L37.8612 58.404H29.2474Z" fill="#DD0032"/>
<path id="Fill 17" fill-rule="evenodd" clip-rule="evenodd" d="M83.6937 12.373C76.9126 5.32472 68.0651 0.279448 58.1251 -1.78696V34.0484L83.6937 12.373Z" fill="#0D1D7E"/>
<path id="Fill 19" fill-rule="evenodd" clip-rule="evenodd" d="M38.8703 -1.98524C28.7627 -0.103753 19.7344 4.84513 12.7881 11.8612L38.8795 34.0508L38.8703 -1.98524Z" fill="#0D1D7E"/>
<path id="Fill 21" fill-rule="evenodd" clip-rule="evenodd" d="M96.5449 36.8397C95.7954 33.1355 94.6333 29.5813 93.1081 26.2274L80.6642 36.8397H96.5449Z" fill="#0D1D7E"/>
<path id="Fill 23" fill-rule="evenodd" clip-rule="evenodd" d="M92.4626 68.5573C94.0398 65.3527 95.2798 61.953 96.1387 58.404H80.6641L92.4626 68.5573Z" fill="#0D1D7E"/>
<path id="Fill 25" fill-rule="evenodd" clip-rule="evenodd" d="M38.8796 61.2617L14.0209 82.7679C20.7904 89.1483 29.356 93.6423 38.8796 95.4133V61.2617Z" fill="#0D1D7E"/>
<path id="Fill 27" fill-rule="evenodd" clip-rule="evenodd" d="M58.1252 95.2131C67.4842 93.2674 75.8738 88.6803 82.4827 82.2674L58.1252 61.2616V95.2131Z" fill="#0D1D7E"/>
<path id="Fill 29" fill-rule="evenodd" clip-rule="evenodd" d="M-0.157185 58.404C0.763116 62.2081 2.1196 65.8419 3.86138 69.2461L16.337 58.404H-0.157185Z" fill="#0D1D7E"/>
<path id="Fill 31" fill-rule="evenodd" clip-rule="evenodd" d="M3.16356 25.6068C1.49597 29.1426 0.232623 32.9058 -0.563129 36.8397H16.3369L3.16356 25.6068Z" fill="#0D1D7E"/>
</g>
<mask id="mask1" mask-type="alpha" maskUnits="userSpaceOnUse" x="-2" y="-3" width="100" height="100">
<path id="Clip 34" fill-rule="evenodd" clip-rule="evenodd" d="M-1.54839 -2.82596H97.5299V96.2523H-1.54839V-2.82596Z" fill="white"/>
</mask>
<g mask="url(#mask1)">
<path id="Fill 33" fill-rule="evenodd" clip-rule="evenodd" d="M42.7299 95.9741C44.4587 96.1568 46.2135 96.2524 47.991 96.2524C50.1197 96.2524 52.2169 96.1176 54.275 95.8571V54.1005H96.9813C97.3417 51.69 97.5299 49.2237 97.5299 46.7132C97.5299 44.8334 97.4216 42.9792 97.2177 41.1538H54.275V-2.43093C52.2169 -2.6914 50.1197 -2.82596 47.991 -2.82596C46.2135 -2.82596 44.4587 -2.73039 42.7299 -2.5479V41.1538H-1.23628C-1.44016 42.9792 -1.54847 44.8334 -1.54847 46.7132C-1.54847 49.2237 -1.36002 51.69 -0.999643 54.1005H42.7299V95.9741Z" fill="#DD0032"/>
</g>
</g>
</svg>
