<svg width="579" height="177" viewBox="0 0 579 177" fill="none" xmlns="http://www.w3.org/2000/svg">
<g id="Principle/Logo/Karir/Normal">
<g id="logo">
<path id="Fill 1" fill-rule="evenodd" clip-rule="evenodd" d="M154.178 51.7186V97.5005C154.178 100.684 152.591 102.31 149.415 102.317C137.381 102.325 125.339 102.325 113.304 102.31C110.22 102.31 108.533 100.577 108.533 97.4474C108.526 83.339 108.533 69.2306 108.533 55.1222C108.533 49.6597 105.441 46.56 99.9177 46.56C85.8169 46.5448 71.7162 46.5524 57.6078 46.5524C54.3485 46.5524 52.7227 44.9417 52.7227 41.69C52.7227 29.7469 52.7227 17.8114 52.7227 5.87587C52.7227 2.74574 54.4017 1.02873 57.5166 1.02873C88.1873 1.01354 118.858 1.01354 149.521 1.02873C152.598 1.02873 154.178 2.68496 154.178 5.7923V51.7186Z" fill="#1E63AE"/>
<path id="Fill 3" fill-rule="evenodd" clip-rule="evenodd" d="M234.79 72.663C237.852 69.4038 240.647 66.4332 243.436 63.4626C251.101 55.2954 258.782 47.1282 266.463 38.9534C266.919 38.4595 267.367 38.0645 268.158 38.0645C277.935 38.0949 287.706 38.0873 297.484 38.0949C297.613 38.0949 297.734 38.148 298.053 38.2164C295.417 41.0275 292.88 43.7473 290.319 46.4596C281.24 56.0779 272.169 65.719 263.067 75.3221C262.308 76.1123 262.247 76.6365 262.885 77.5862C275.064 95.8351 287.189 114.107 299.322 132.371C299.58 132.758 299.96 133.093 299.991 133.625C299.535 133.898 299.049 133.754 298.593 133.761C289.833 133.769 281.073 133.746 272.306 133.792C271.257 133.799 270.695 133.442 270.125 132.591C262.194 120.641 254.239 108.72 246.285 96.8C245.996 96.3593 245.7 95.9339 245.343 95.4097C242.532 98.3195 239.91 101.282 237.023 103.934C235.177 105.643 234.699 107.49 234.744 109.898C234.881 117.161 234.79 124.439 234.79 131.702C234.79 133.609 234.638 133.761 232.723 133.761C225.886 133.769 219.048 133.769 212.21 133.761C210.326 133.761 210.144 133.587 210.144 131.687V3.13161C210.144 1.24745 210.357 1.01953 212.195 1.01953H232.708C234.661 1.01953 234.79 1.16388 234.79 3.18479V70.6421V72.663Z" fill="#1E63AE"/>
<path id="Fill 5" fill-rule="evenodd" clip-rule="evenodd" d="M354.494 91.5822C351.895 91.5822 349.297 91.5594 346.706 91.5898C343.272 91.6202 339.876 91.9241 336.625 93.0713C333.236 94.2717 330.63 96.3382 329.605 99.947C327.956 105.736 330.661 111.601 336.275 113.774C342.627 116.236 349.069 116.259 355.299 113.28C360.45 110.819 364.127 106.99 365.221 101.163C365.761 98.2603 365.533 95.3125 365.601 92.3799C365.616 91.4303 365.016 91.5822 364.454 91.5822H354.494ZM367.364 119.609C365.168 122.078 363.383 124.449 361.233 126.515C354.273 133.201 345.931 135.852 336.412 135.131C328.503 134.53 321.27 132.122 315.04 127.054C308.119 121.425 304.685 114.086 304.336 105.242C304.176 101.132 304.495 97.0751 305.916 93.1625C308.484 86.1197 313.696 81.7512 320.366 78.8945C327.66 75.7644 335.356 74.8375 343.204 74.7844C349.852 74.7464 356.492 74.7844 363.14 74.7768C365.685 74.7768 365.669 74.7692 365.685 72.3152C365.7 70.3779 365.457 68.4709 364.948 66.6095C363.276 60.4784 358.437 56.7405 351.477 56.034C342.566 55.1299 334.338 57.4775 326.368 61.1622C324.264 62.1347 322.258 63.2667 320.351 64.5734C319.781 64.9685 319.454 65.0901 318.991 64.4139C315.785 59.7263 312.556 55.0539 309.304 50.4043C308.833 49.7357 309.054 49.4622 309.639 49.0595C318.543 43.0348 328.29 39.1829 338.911 37.5647C347.056 36.3263 355.2 36.1288 363.307 37.8382C367.576 38.7271 371.595 40.239 375.402 42.3738C384.154 47.297 388.522 55.0387 389.905 64.7254C390.323 67.6428 390.437 70.5602 390.437 73.508C390.422 92.813 390.429 112.118 390.429 131.431C390.429 133.649 390.315 133.771 388.044 133.771H369.696C367.516 133.771 367.364 133.619 367.364 131.499V119.609Z" fill="#1E63AE"/>
<path id="Fill 7" fill-rule="evenodd" clip-rule="evenodd" d="M550.112 51.0136C551.373 49.5093 552.52 47.9898 553.827 46.6071C558.431 41.7144 564.357 39.3516 570.731 37.8625C572.98 37.3307 575.274 37.0647 577.553 36.7533C578.374 36.6393 578.64 36.852 578.632 37.7029C578.602 44.6318 578.594 51.5682 578.64 58.497C578.648 59.5303 578.23 59.6746 577.371 59.6518C573.99 59.5683 570.64 59.7886 567.373 60.7686C560.292 62.9035 555.916 67.8798 553.12 74.4744C550.871 79.8229 549.945 85.445 549.929 91.219C549.899 104.606 549.922 117.977 549.922 131.364C549.922 133.559 549.717 133.772 547.544 133.772C540.759 133.772 533.967 133.772 527.183 133.764C525.466 133.764 525.124 133.445 525.124 131.774C525.116 101.255 525.116 70.744 525.124 40.2253C525.124 38.5842 525.428 38.2955 527.084 38.2955C534.013 38.2879 540.942 38.2879 547.878 38.2955C549.61 38.2955 549.914 38.5918 549.922 40.3012C549.929 43.3782 549.914 46.4551 549.929 49.5473C549.929 49.9955 549.785 50.4818 550.112 51.0136Z" fill="#1E63AE"/>
<path id="Fill 9" fill-rule="evenodd" clip-rule="evenodd" d="M436.129 51.2954C436.774 50.5281 437.23 50.057 437.602 49.5328C442.07 43.2726 448.429 40.0361 455.646 38.1671C458.359 37.4758 461.116 37.0883 463.889 36.7464C464.657 36.6476 464.999 36.792 464.991 37.6885C464.961 44.6173 464.953 51.5537 464.999 58.4902C465.006 59.531 464.573 59.6754 463.715 59.6526C460.63 59.5918 457.553 59.7361 454.552 60.5187C446.248 62.6687 441.545 68.4732 438.719 76.1465C436.888 81.1304 436.151 86.3043 436.144 91.5845C436.106 104.88 436.129 118.168 436.129 131.456C436.129 133.621 435.984 133.758 433.842 133.765C427.057 133.765 420.265 133.765 413.473 133.758C411.703 133.758 411.445 133.515 411.445 131.782V40.34C411.445 38.4558 411.604 38.2963 413.519 38.2963C420.356 38.2887 427.194 38.2887 434.039 38.2963C435.901 38.2963 436.129 38.5166 436.129 40.3628V51.2954Z" fill="#1E63AE"/>
<path id="Fill 11" fill-rule="evenodd" clip-rule="evenodd" d="M480.043 85.9366V40.7472C480.043 38.5972 480.058 38.5896 482.216 38.582C488.909 38.582 495.595 38.582 502.288 38.5896C504.058 38.5896 504.157 38.6807 504.157 40.4661V131.567C504.157 133.344 504.028 133.474 502.296 133.474C495.504 133.481 488.719 133.481 481.935 133.474C480.195 133.474 480.051 133.322 480.051 131.567C480.043 116.357 480.043 101.147 480.043 85.9366Z" fill="#1E63AE"/>
<path id="Fill 13" fill-rule="evenodd" clip-rule="evenodd" d="M76.7501 104.96C76.7501 112.61 76.7501 120.268 76.7425 127.919C76.7425 130.403 75.7017 131.452 73.2553 131.452C67.2914 131.452 61.3198 131.459 55.3483 131.452C52.9323 131.452 51.8611 130.358 51.8611 127.904C51.8535 120.96 51.861 114.031 51.8535 107.102C51.8535 104.306 50.7214 103.19 47.8952 103.19H27.2379C24.594 103.19 23.5455 102.164 23.5379 99.558V81.9396C23.5455 79.4704 24.6775 78.3004 27.1543 78.2928C42.5086 78.2852 57.8706 78.2852 73.2249 78.3004C75.6257 78.3004 76.7425 79.4552 76.7425 81.8484C76.7501 89.5522 76.7501 97.2484 76.7501 104.96Z" fill="#177DB3"/>
<path id="Fill 15" fill-rule="evenodd" clip-rule="evenodd" d="M0.383349 142.227C0.383349 139.15 0.375752 136.066 0.383349 132.989C0.398544 130.945 1.53056 129.737 3.57426 129.73C9.72056 129.714 15.8821 129.714 22.0435 129.73C24.0645 129.737 25.2572 130.96 25.2648 132.974C25.28 139.135 25.28 145.289 25.2648 151.451C25.2572 153.411 24.0796 154.596 22.1195 154.603C15.92 154.626 9.72056 154.626 3.51348 154.603C1.52296 154.603 0.398544 153.449 0.390946 151.458C0.368154 148.381 0.383349 145.304 0.383349 142.227Z" fill="#1FC0F0"/>
<path id="Fill 17" fill-rule="evenodd" clip-rule="evenodd" d="M504.156 13.7239C504.156 17.3783 504.126 21.0402 504.172 24.687C504.187 25.8646 503.784 26.3128 502.576 26.3052C495.602 26.2597 488.627 26.2673 481.653 26.2977C480.46 26.3052 480.027 25.8646 480.035 24.687C480.057 17.3327 480.065 9.97083 480.027 2.60895C480.027 1.42376 480.468 0.998301 481.645 1.0059C488.62 1.03629 495.602 1.03629 502.576 1.0059C503.754 0.998301 504.187 1.43135 504.172 2.60895C504.126 6.31648 504.156 10.024 504.156 13.7239Z" fill="#1E63AE"/>
<path id="Fill 19" fill-rule="evenodd" clip-rule="evenodd" d="M551.395 156.984C556.819 152.911 560.208 153.253 563.216 158.306C563.748 157.675 564.196 157.014 564.774 156.497C567.501 154.066 570.677 153.527 574.05 154.697C577.082 155.753 578.495 158.169 578.578 161.261C578.685 165.447 578.594 169.641 578.624 173.827C578.632 174.625 578.404 174.959 577.56 174.914C576.557 174.86 575.547 174.86 574.537 174.914C573.632 174.967 573.389 174.602 573.397 173.744C573.435 170.613 573.412 167.491 573.405 164.361C573.405 163.783 573.404 163.198 573.367 162.629C573.184 160.175 571.961 158.731 569.91 158.541C567.646 158.328 565.579 159.734 565.04 161.945C564.85 162.735 564.766 163.563 564.759 164.376C564.728 167.506 564.721 170.629 564.759 173.759C564.774 174.625 564.523 174.974 563.619 174.914C562.616 174.853 561.598 174.845 560.588 174.914C559.653 174.99 559.471 174.572 559.486 173.736C559.516 170.036 559.539 166.321 559.478 162.621C559.456 160.365 558.483 158.974 556.88 158.602C554.966 158.161 552.846 159.141 551.896 160.942C551.676 161.367 551.516 161.838 551.425 162.294C551.304 162.955 551.243 163.631 551.235 164.3C551.22 166.617 551.235 168.919 551.235 171.229C551.235 175.157 550.772 175.506 546.829 174.906C545.909 174.769 546.115 174.169 546.115 173.637C546.099 167.666 546.107 161.702 546.107 155.738V155.586C545.993 154.78 546.343 154.431 547.155 154.522C547.543 154.568 547.93 154.53 548.318 154.53C550.962 154.53 550.962 154.53 551.395 156.984Z" fill="#7C7A7A"/>
<path id="Fill 21" fill-rule="evenodd" clip-rule="evenodd" d="M533.782 164.641C533.767 161.047 531.411 158.487 528.137 158.502C524.87 158.525 522.545 161.101 522.56 164.709C522.568 168.295 524.946 170.878 528.213 170.848C531.472 170.825 533.805 168.227 533.782 164.641ZM528.122 175.194C521.793 175.156 517.265 170.681 517.318 164.512C517.371 158.457 522.006 154.134 528.433 154.172C534.663 154.21 539.024 158.707 538.994 165.051C538.948 170.833 534.245 175.232 528.122 175.194Z" fill="#7C7A7A"/>
<path id="Fill 23" fill-rule="evenodd" clip-rule="evenodd" d="M503.629 175.198C499.268 175.062 495.69 173.421 493.813 169.333C492.028 165.436 492.332 161.523 495.075 158.066C498.835 153.318 507.025 152.816 511.386 156.957C511.812 157.36 511.979 157.686 511.515 158.142C511.447 158.211 511.386 158.287 511.333 158.363C510.748 159.122 510.307 160.186 509.532 160.566C508.643 161.014 508.005 159.783 507.192 159.396C502.702 157.253 498.075 159.715 497.924 164.387C497.84 166.925 498.782 168.908 501.122 170.04C503.416 171.164 505.605 170.853 507.618 169.341C509.335 168.064 509.327 168.049 510.748 169.698C512.252 171.461 512.267 171.476 510.444 172.836C508.438 174.355 506.205 175.282 503.629 175.198Z" fill="#7C7A7A"/>
<path id="Fill 25" fill-rule="evenodd" clip-rule="evenodd" d="M483.301 169.018C486.537 169.048 486.37 168.532 486.355 172.14C486.34 175.225 486.834 175.271 483.232 175.271C479.472 175.271 480.064 175.233 480.049 172.065C480.042 168.494 479.722 169.064 483.301 169.018Z" fill="#7C7A7A"/>
</g>
</g>
</svg>
