<svg width="24" height="24" viewBox="0 0 24 24" fill="none" xmlns="http://www.w3.org/2000/svg">
<circle cx="11.6957" cy="11.611" r="1.83066" fill="#FFC200"/>
<path fill-rule="evenodd" clip-rule="evenodd" d="M13.984 11.611C13.984 12.8748 12.9595 13.8993 11.6957 13.8993C10.4318 13.8993 9.40733 12.8748 9.40733 11.611C9.40733 10.3472 10.4318 9.32265 11.6957 9.32265C12.9595 9.32265 13.984 10.3472 13.984 11.611ZM10.3227 11.611C10.3227 12.3693 10.9374 12.984 11.6957 12.984C12.4539 12.984 13.0687 12.3693 13.0687 11.611C13.0687 10.8527 12.4539 10.238 11.6957 10.238C10.9374 10.238 10.3227 10.8527 10.3227 11.611Z" fill="#154E84"/>
<path fill-rule="evenodd" clip-rule="evenodd" d="M16.73 11.611C16.73 16.8866 14.5623 21.222 11.6957 21.222C8.82904 21.222 6.66133 16.8866 6.66133 11.611C6.66133 6.33541 8.82904 2 11.6957 2C14.5623 2 16.73 6.33541 16.73 11.611ZM7.57666 11.611C7.57666 16.4459 9.50704 20.3066 11.6957 20.3066C13.8843 20.3066 15.8146 16.4459 15.8146 11.611C15.8146 6.77608 13.8843 2.91533 11.6957 2.91533C9.50704 2.91533 7.57666 6.77608 7.57666 11.611Z" fill="#154E84"/>
<path fill-rule="evenodd" clip-rule="evenodd" d="M14.6112 7.32555C19.3218 10.166 22.0696 14.5123 20.6052 17.1612C19.1262 19.8367 14.1115 19.5224 9.38838 16.6745C4.67772 13.834 1.92996 9.48767 3.3943 6.83879C4.87337 4.16326 9.88803 4.47762 14.6112 7.32555ZM4.22628 7.28511C3.0793 9.3599 5.54777 13.2645 9.88296 15.8785C14.2057 18.485 18.641 18.763 19.7733 16.7149C20.9202 14.6401 18.4518 10.7355 14.1166 8.1215C9.79386 5.515 5.35852 5.23696 4.22628 7.28511Z" fill="#154E84"/>
<path fill-rule="evenodd" clip-rule="evenodd" d="M9.03346 7.0707C4.5845 9.91111 1.9894 14.2575 3.37238 16.9064C4.76928 19.5819 9.50534 19.2675 13.9661 16.4196C18.415 13.5792 21.0101 9.23282 19.6272 6.58394C18.2303 3.90842 13.4942 4.22277 9.03346 7.0707ZM13.499 15.6237C9.41641 18.2302 5.22748 18.5082 4.15814 16.46C3.07488 14.3853 5.40621 10.4807 9.50056 7.86665C13.5831 5.26016 17.7721 4.98212 18.8414 7.03026C19.9247 9.10505 17.5933 13.0097 13.499 15.6237Z" fill="#154E84"/>
</svg>
