<svg width="24" height="24" viewBox="0 0 24 24" fill="none" xmlns="http://www.w3.org/2000/svg">
<path fill-rule="evenodd" clip-rule="evenodd" d="M18.4 13.8C19.7335 14.753 20.4 16.2195 20.4 18.2L20.417 20.201L18.8 20.2C18.805 17.7005 18.2715 16.3675 17.2 16.2C16.1285 16.0325 16.5285 15.2325 18.4 13.8Z" fill="#52ABE2"/>
<path fill-rule="evenodd" clip-rule="evenodd" d="M18.4 13.8C19.7335 14.753 20.4 16.2195 20.4 18.2L20.417 20.201L18.8 20.2C18.805 17.7005 18.2715 16.3675 17.2 16.2C16.1285 16.0325 16.5285 15.2325 18.4 13.8Z" stroke="#154E84" stroke-linejoin="round"/>
<path fill-rule="evenodd" clip-rule="evenodd" d="M18.6907 13.3932C18.5119 13.2654 18.2706 13.2694 18.0961 13.403C17.1027 14.1634 16.4935 14.762 16.2492 15.2508C15.8813 15.9864 16.2811 16.5624 17.1228 16.694C17.8593 16.8091 18.3046 17.922 18.3 20.199C18.2995 20.4754 18.5233 20.6998 18.7997 20.7L20.4167 20.701C20.6946 20.7012 20.9193 20.4747 20.917 20.1968L20.9 18.1958C20.9 16.0661 20.1635 14.4458 18.6907 13.3932ZM17.2772 15.706C17.2242 15.6977 17.1828 15.6889 17.152 15.6817C17.2971 15.4073 17.7175 14.9805 18.4006 14.4342C19.4004 15.2868 19.9 16.5279 19.9 18.2L19.9127 19.7007L19.2935 19.7003C19.224 17.289 18.5952 15.912 17.2772 15.706Z" fill="#154E84"/>
<path fill-rule="evenodd" clip-rule="evenodd" d="M19.5695 10.5075C20.5 10.695 21.2 11.501 21.2 12.4665C21.2 13.571 20.2845 14.4665 19.1555 14.4665C18.9135 14.4665 18.6815 14.4255 18.466 14.35C18.3525 15.906 17.0265 17.1335 15.4075 17.1335C15.032 17.1335 14.672 17.0675 14.3395 16.9465C13.842 17.4715 13.1305 17.8 12.3405 17.8C11.242 17.8 10.295 17.164 9.8635 16.248C9.5845 16.388 9.2685 16.4665 8.9335 16.4665C8.2095 16.4665 7.5735 16.0985 7.21 15.5435C6.914 15.707 6.572 15.8 6.2075 15.8C5.0785 15.8 4.163 14.9045 4.163 13.8C4.163 13.54 4.2135 13.2915 4.306 13.0635C3.438 12.832 2.8 12.0555 2.8 11.1335C2.8 10.2615 3.3705 9.5195 4.166 9.246C4.164 9.2085 4.163 9.171 4.163 9.1335C4.163 8.029 5.0785 7.1335 6.2075 7.1335C6.2075 6.029 7.1225 5.1335 8.252 5.1335C8.518 5.1335 8.772 5.183 9.005 5.2735C9.241 4.4245 10.035 3.8 10.978 3.8C11.7015 3.8 12.3375 4.168 12.701 4.7235C12.9975 4.56 13.3395 4.4665 13.7035 4.4665C14.6465 4.4665 15.4405 5.091 15.6765 5.94C15.9095 5.8495 16.1635 5.8 16.4295 5.8C17.2935 5.8 18.032 6.324 18.3315 7.0645C19.2895 7.3025 20 8.168 20 9.2C20 9.6895 19.84 10.142 19.5695 10.5075Z" fill="white"/>
<path fill-rule="evenodd" clip-rule="evenodd" d="M8.96208 5.00144C8.68673 5.02239 8.4805 5.26258 8.50145 5.53793C8.5515 6.19587 8.4135 6.74797 8.08932 7.21481C7.93181 7.44163 7.988 7.75318 8.21481 7.91069C8.44163 8.0682 8.75319 8.01201 8.91069 7.78519C9.37037 7.12324 9.56554 6.34242 9.49856 5.46207C9.47762 5.18673 9.23742 4.9805 8.96208 5.00144ZM11.5071 8.5838C11.5534 8.85604 11.8116 9.03921 12.0838 8.99293C12.6999 8.88819 13.1989 8.6454 13.563 8.26747C14.0669 8.69523 14.7037 8.94226 15.463 8.99863C15.7384 9.01907 15.9782 8.8124 15.9986 8.53702C16.0191 8.26163 15.8124 8.02182 15.537 8.00137C14.4942 7.92396 13.8305 7.39308 13.4736 6.33954C13.3849 6.07801 13.1011 5.93783 12.8395 6.02645C12.578 6.11507 12.4378 6.39892 12.5265 6.66046C12.6307 6.96822 12.7591 7.24692 12.9109 7.49587C12.6971 7.76039 12.3742 7.92922 11.9162 8.00707C11.644 8.05336 11.4608 8.31157 11.5071 8.5838ZM17.4938 14.4213C17.5372 14.6941 17.3514 14.9503 17.0787 14.9938C16.806 15.0372 16.5497 14.8514 16.5062 14.5787C16.4005 13.9152 16.2073 13.4333 15.9383 13.1201C15.6056 13.4483 15.1961 13.7268 14.7116 13.953C14.4614 14.0699 14.1638 13.9618 14.047 13.7116C13.9301 13.4614 14.0382 13.1638 14.2884 13.047C15.4198 12.5187 15.973 11.6888 16.0001 10.4887C16.0064 10.2126 16.2352 9.99388 16.5113 10.0001C16.7874 10.0064 17.0061 10.2352 16.9999 10.5113C16.9845 11.1888 16.8331 11.7905 16.5496 12.3111C17.0363 12.7852 17.3461 13.4946 17.4938 14.4213ZM12.6213 11.0149C12.8892 11.0819 13.0521 11.3534 12.9851 11.6213C12.9181 11.8892 12.6466 12.0521 12.3787 11.9851C11.4269 11.747 10.7239 11.891 10.2011 12.4229C10.4444 12.6422 10.6799 12.8997 10.9074 13.1946C11.0761 13.4132 11.0356 13.7272 10.8169 13.8959C10.5983 14.0646 10.2843 14.0241 10.1156 13.8054C9.43138 12.9185 8.73069 12.5 8.00001 12.5C7.72386 12.5 7.50001 12.2761 7.50001 12C7.50001 11.7239 7.72386 11.5 8.00001 11.5C8.47919 11.5 8.93813 11.6155 9.37573 11.842C10.1601 10.9548 11.2688 10.6767 12.6213 11.0149ZM4.23436 9.92359C4.00041 9.77688 3.9297 9.4683 4.07641 9.23435C4.22313 9.00041 4.53171 8.92969 4.76565 9.07641C5.42279 9.48851 5.95714 9.62208 6.37684 9.51541C6.64447 9.44739 6.91658 9.6092 6.9846 9.87684C7.05262 10.1445 6.8908 10.4166 6.62317 10.4846C5.90168 10.668 5.10298 10.4683 4.23436 9.92359ZM6.14331 14.3504C5.9498 14.1534 5.95262 13.8368 6.14962 13.6433C6.34661 13.4498 6.66318 13.4526 6.8567 13.6496C7.29152 14.0923 7.50001 14.7179 7.50001 15.5C7.50001 15.7761 7.27615 16 7.00001 16C6.72386 16 6.50001 15.7761 6.50001 15.5C6.50001 14.9607 6.3753 14.5866 6.14331 14.3504ZM14.9286 17.258C15.0708 17.0213 14.9942 16.7142 14.7575 16.5719C14.2312 16.2556 14 15.9088 14 15.5C14 15.2239 13.7761 15 13.5 15C13.2239 15 13 15.2239 13 15.5C13 16.2909 13.4355 16.9441 14.2425 17.4291C14.4792 17.5713 14.7864 17.4947 14.9286 17.258Z" fill="#FFC200"/>
<path fill-rule="evenodd" clip-rule="evenodd" d="M19.1555 14.9665C20.5582 14.9665 21.7 13.8496 21.7 12.4665C21.7 11.4978 21.1354 10.6449 20.296 10.2311C20.4294 9.90835 20.5 9.5592 20.5 9.2C20.5 8.03666 19.7583 7.02241 18.6896 6.64997C18.2582 5.83187 17.3936 5.3 16.4295 5.3C16.276 5.3 16.1243 5.31337 15.9758 5.33964C15.5515 4.51384 14.6817 3.9665 13.7035 3.9665C13.4101 3.9665 13.1233 4.01572 12.8529 4.11005C12.3783 3.6015 11.7037 3.3 10.978 3.3C9.99978 3.3 9.12997 3.84734 8.70571 4.67314C8.55717 4.64687 8.40547 4.6335 8.252 4.6335C7.00827 4.6335 5.97014 5.51099 5.75038 6.67378C4.63645 6.87247 3.77286 7.7842 3.67272 8.91344C2.84466 9.33547 2.3 10.1828 2.3 11.1335C2.3 12.0982 2.86035 12.9519 3.70094 13.3675C3.67579 13.5092 3.663 13.6538 3.663 13.8C3.663 15.1831 4.80477 16.3 6.2075 16.3C6.50126 16.3 6.78815 16.251 7.05823 16.1569C7.53295 16.6652 8.20763 16.9665 8.9335 16.9665C9.17596 16.9665 9.41377 16.9331 9.64143 16.8685C10.2283 17.7477 11.2342 18.3 12.3405 18.3C13.1375 18.3 13.8893 18.0144 14.471 17.5115C14.7735 17.5921 15.0879 17.6335 15.4075 17.6335C17.0808 17.6335 18.4992 16.498 18.876 14.9516C18.9683 14.9615 19.0616 14.9665 19.1555 14.9665ZM19.5 9.2C19.5 9.5693 19.3824 9.91982 19.1676 10.2101C18.9498 10.5044 19.1118 10.9253 19.4707 10.9977C20.1832 11.1412 20.7 11.7544 20.7 12.4665C20.7 13.2923 20.0108 13.9665 19.1555 13.9665C18.9739 13.9665 18.7976 13.9364 18.6313 13.8781C18.3206 13.7693 17.9913 13.9852 17.9673 14.3136C17.8725 15.6143 16.7583 16.6335 15.4075 16.6335C15.0967 16.6335 14.7943 16.5799 14.5105 16.4766C14.3233 16.4085 14.1136 16.458 13.9766 16.6026C13.5582 17.0441 12.9714 17.3 12.3405 17.3C11.4604 17.3 10.6755 16.7984 10.3158 16.0349C10.1961 15.7807 9.89042 15.6751 9.63926 15.8011C9.4236 15.9093 9.18372 15.9665 8.9335 15.9665C8.3974 15.9665 7.91013 15.6999 7.62828 15.2696C7.48496 15.0507 7.19721 14.9794 6.96825 15.1058C6.73896 15.2325 6.47922 15.3 6.2075 15.3C5.35218 15.3 4.663 14.6258 4.663 13.8C4.663 13.6089 4.69934 13.424 4.76932 13.2515C4.88242 12.9727 4.72552 12.6579 4.43485 12.5804C3.76833 12.4026 3.3 11.8114 3.3 11.1335C3.3 10.4944 3.71608 9.92942 4.32857 9.71884C4.53976 9.64623 4.67719 9.44238 4.66529 9.21937C4.66377 9.19074 4.663 9.16212 4.663 9.1335C4.663 8.30767 5.35218 7.6335 6.2075 7.6335C6.48365 7.6335 6.7075 7.40965 6.7075 7.1335C6.7075 6.30748 7.39638 5.6335 8.252 5.6335C8.45143 5.6335 8.64433 5.6698 8.82397 5.73958C9.09966 5.84666 9.40753 5.69236 9.48674 5.40741C9.66649 4.76076 10.2742 4.3 10.978 4.3C11.5137 4.3 12.0009 4.56669 12.2826 4.99728C12.4258 5.21611 12.7134 5.28763 12.9424 5.16135C13.1729 5.03425 13.4328 4.9665 13.7035 4.9665C14.4073 4.9665 15.015 5.42726 15.1948 6.07391C15.274 6.35886 15.5819 6.51316 15.8575 6.40608C16.0372 6.3363 16.2301 6.3 16.4295 6.3C17.0718 6.3 17.6381 6.6836 17.868 7.25198C17.928 7.40043 18.0555 7.51114 18.211 7.54975C18.9625 7.73647 19.5 8.41448 19.5 9.2Z" fill="#154E84"/>
</svg>
