<svg width="24" height="24" viewBox="0 0 24 24" fill="none" xmlns="http://www.w3.org/2000/svg">
<path fill-rule="evenodd" clip-rule="evenodd" d="M9 13.6601C6.63505 12.5928 5.5 10.1528 5.5 7.5C5.5 3.82731 8.13401 1.5 12 1.5C15.866 1.5 18.5 4.32731 18.5 8C18.5 10.6528 17.3649 12.5928 15 13.6601V19.05C15 19.5747 14.5523 20 14 20H10C9.44772 20 9 19.5747 9 19.05V13.6601Z" fill="#FFC200"/>
<path fill-rule="evenodd" clip-rule="evenodd" d="M12 1C8.13401 1 5 4.19797 5 8.14286C5 10.8251 6.46218 13.238 8.73333 14.4618V19.5714C8.73333 20.3604 9.36013 21 10.1333 21H13.8667C14.6399 21 15.2667 20.3604 15.2667 19.5714V14.4618C17.5378 13.238 19 10.8251 19 8.14286C19 4.19797 15.866 1 12 1ZM10.1333 20.0476C9.8756 20.0476 9.66666 19.8344 9.66666 19.5714V13.867L9.40024 13.7378C7.30015 12.7198 5.93333 10.5574 5.93333 8.14286C5.93333 4.72395 8.64947 1.95238 12 1.95238C15.3505 1.95238 18.0667 4.72395 18.0667 8.14286C18.0667 10.5574 16.6998 12.7198 14.5998 13.7378L14.3333 13.867V19.5714C14.3333 19.8344 14.1244 20.0476 13.8667 20.0476H10.1333Z" fill="#154E84"/>
<path d="M10 9.54545V14.4545C10 14.7558 10.2239 15 10.5 15C10.7761 15 11 14.7558 11 14.4545V9.54545C11 9.24421 10.7761 9 10.5 9C10.2239 9 10 9.24421 10 9.54545Z" fill="white"/>
<path d="M13 9.54545V14.4545C13 14.7558 13.2239 15 13.5 15C13.7761 15 14 14.7558 14 14.4545V9.54545C14 9.24421 13.7761 9 13.5 9C13.2239 9 13 9.24421 13 9.54545Z" fill="white"/>
<path fill-rule="evenodd" clip-rule="evenodd" d="M9.28571 14.5333H15V19.7714C15 20.2974 14.5736 20.7238 14.0476 20.7238H10.2381C9.71211 20.7238 9.28571 20.2974 9.28571 19.7714V14.5333Z" fill="white"/>
<path d="M9 16H15V14H9V16Z" fill="#52ABE2"/>
<path fill-rule="evenodd" clip-rule="evenodd" d="M9.28571 14.5333H15V19.7714C15 20.2974 14.5736 20.7238 14.0476 20.7238H10.2381C9.71211 20.7238 9.28571 20.2974 9.28571 19.7714V14.5333Z" stroke="#154E84"/>
<path d="M9.6 12H14.4C14.7314 12 15 11.7761 15 11.5C15 11.2239 14.7314 11 14.4 11H9.6C9.26863 11 9 11.2239 9 11.5C9 11.7761 9.26863 12 9.6 12Z" fill="white"/>
</svg>
