<svg width="24" height="24" viewBox="0 0 24 24" fill="none" xmlns="http://www.w3.org/2000/svg">
<path fill-rule="evenodd" clip-rule="evenodd" d="M3.42857 8.2381H20.5714C20.5714 8.2381 21.5238 9.38732 21.5238 11.5714C21.5238 13.7555 20.5714 14.9048 20.5714 14.9048H3.42857C3.42857 14.9048 2.47619 13.8597 2.47619 11.5714C2.47619 9.28316 3.42857 8.2381 3.42857 8.2381Z" fill="white"/>
<path fill-rule="evenodd" clip-rule="evenodd" d="M9.14286 8.2381H14.8571V14.9048H9.14286V8.2381Z" fill="#52ABE2"/>
<path fill-rule="evenodd" clip-rule="evenodd" d="M11.0476 8.2381H12.9524V14.9048H11.0476V8.2381Z" fill="#FFC200"/>
<path fill-rule="evenodd" clip-rule="evenodd" d="M10.5714 8.2381H13.4286V14.9048H10.5714V8.2381Z" fill="#FFC200"/>
<path fill-rule="evenodd" clip-rule="evenodd" d="M6.28571 14.9048H12L9.14286 20.619L7.23809 18.7143H4.38095L6.28571 14.9048Z" fill="#52ABE2"/>
<path fill-rule="evenodd" clip-rule="evenodd" d="M7.95201 14.9048H10.0952L7.95201 19.4282L7.2381 18.7143H6.05353L7.95201 14.9048Z" fill="#FFC200"/>
<path fill-rule="evenodd" clip-rule="evenodd" d="M17.7143 14.9048L16.2193 14.9048H13.9685L12 14.9048L15.8095 20.619L16.8931 19.5355L17.7143 18.7143H19.0189H20.5714L17.7143 14.9048Z" fill="#52ABE2"/>
<path fill-rule="evenodd" clip-rule="evenodd" d="M3.21827 7.7619L3.07661 7.91734C2.3493 8.71543 2 9.93798 2 11.5714C2 13.2049 2.3493 14.4274 3.07661 15.2255L3.21827 15.3809H20.7953L20.9381 15.2086C21.6522 14.3468 22 13.1297 22 11.5714C22 10.0132 21.6522 8.79601 20.9381 7.93424L20.7953 7.7619H3.21827ZM3.65164 14.4286C3.19286 13.8211 2.95238 12.8722 2.95238 11.5714C2.95238 10.2707 3.19286 9.32178 3.65164 8.71428H20.3365C20.8058 9.38025 21.0476 10.3289 21.0476 11.5714C21.0476 12.8139 20.8058 13.7626 20.3365 14.4286H3.65164Z" fill="#154E84"/>
<path fill-rule="evenodd" clip-rule="evenodd" d="M15.3333 7.7619H8.66667V15.3809H15.3333V7.7619ZM9.61905 14.4286V8.71428H14.381V14.4286H9.61905Z" fill="#154E84"/>
<path fill-rule="evenodd" clip-rule="evenodd" d="M5.80953 14.4286L3.42857 19.1905H6.85896L9.09142 21.423L12.5886 14.4286H5.80953ZM7.25345 18.2381H4.96956L6.39813 15.381H11.0476L8.83052 19.8152L7.25345 18.2381Z" fill="#154E84"/>
<path fill-rule="evenodd" clip-rule="evenodd" d="M16.0458 14.9048H13.7004L16.8931 19.5355L17.7143 18.7143H18.6667L16.0458 14.9048Z" fill="#FFC200"/>
<path fill-rule="evenodd" clip-rule="evenodd" d="M11.8693 8.10737C12.1763 6.54487 11.9426 5.37643 11.1682 4.60206C10.0066 3.4405 8.43726 3.12662 7.66289 3.90099C6.88852 4.67537 7.2024 6.24475 8.36395 7.40631C9.13833 8.18068 10.3068 8.41437 11.8693 8.10737Z" fill="#52ABE2"/>
<path fill-rule="evenodd" clip-rule="evenodd" d="M17.8898 14.4286L21.4612 19.1905H17.8489L15.6729 21.3665L11.0476 14.4286H17.8898ZM17.4544 18.2381H19.5564L17.4136 15.381H12.8272L15.8209 19.8716L17.4544 18.2381Z" fill="#154E84"/>
<path fill-rule="evenodd" clip-rule="evenodd" d="M12.1307 8.10737C11.8237 6.54487 12.0574 5.37643 12.8318 4.60206C13.9934 3.4405 15.5627 3.12662 16.3371 3.90099C17.1115 4.67537 16.7976 6.24475 15.636 7.40631C14.8617 8.18068 13.6932 8.41437 12.1307 8.10737Z" fill="#52ABE2"/>
<path fill-rule="evenodd" clip-rule="evenodd" d="M11.5049 4.26534C12.4059 5.1663 12.6715 6.49432 12.3365 8.19917L12.2749 8.51297L11.9611 8.57462C10.2562 8.90959 8.9282 8.64399 8.02724 7.74302C6.70169 6.41747 6.33024 4.56022 7.32618 3.56428C8.32212 2.56834 10.1794 2.93979 11.5049 4.26534ZM7.99961 4.23771C7.44681 4.79051 7.70311 6.07202 8.70067 7.06959C9.29875 7.66766 10.2046 7.88554 11.4578 7.69587C11.6474 6.4427 11.4296 5.53684 10.8315 4.93877C9.83392 3.94121 8.55242 3.68491 7.99961 4.23771Z" fill="#154E84"/>
<path fill-rule="evenodd" clip-rule="evenodd" d="M11.7251 8.51297L12.0389 8.57462C13.7438 8.90959 15.0718 8.64399 15.9728 7.74302C17.2983 6.41747 17.6698 4.56022 16.6738 3.56428C15.6779 2.56834 13.8206 2.93979 12.4951 4.26534C11.5941 5.1663 11.3285 6.49432 11.6635 8.19917L11.7251 8.51297ZM16.0004 4.23771C16.5532 4.79051 16.2969 6.07202 15.2993 7.06959C14.7013 7.66766 13.7954 7.88554 12.5422 7.69587C12.3526 6.4427 12.5704 5.53684 13.1685 4.93877C14.1661 3.94121 15.4476 3.68491 16.0004 4.23771Z" fill="#154E84"/>
</svg>
