<svg width="24" height="24" viewBox="0 0 24 24" fill="none" xmlns="http://www.w3.org/2000/svg">
<path d="M13.6496 12.0005L20.6583 4.99156C21.1144 4.53566 21.1144 3.79853 20.6583 3.34263C20.2024 2.88673 19.4653 2.88673 19.0094 3.34263L12.0005 10.3516L4.99175 3.34263C4.53564 2.88673 3.79872 2.88673 3.34282 3.34263C2.8867 3.79853 2.8867 4.53566 3.34282 4.99156L10.3515 12.0005L3.34282 19.0094C2.8867 19.4653 2.8867 20.2024 3.34282 20.6583C3.57002 20.8858 3.86876 21 4.16728 21C4.46581 21 4.76433 20.8858 4.99175 20.6583L12.0005 13.6494L19.0094 20.6583C19.2368 20.8858 19.5353 21 19.8339 21C20.1324 21 20.4309 20.8858 20.6583 20.6583C21.1144 20.2024 21.1144 19.4653 20.6583 19.0094L13.6496 12.0005Z" fill="#797979"/>
</svg>
