<svg width="25" height="24" viewBox="0 0 25 24" fill="none" xmlns="http://www.w3.org/2000/svg">
<path d="M22.0785 12.2344C22.0785 11.5568 22.0236 10.8755 21.9063 10.2088H12.5034V14.0476H17.888C17.6646 15.2857 16.9466 16.381 15.8954 17.0769V19.5678H19.1078C20.9943 17.8315 22.0785 15.2674 22.0785 12.2344Z" fill="#4285F4"/>
<path d="M12.5036 21.9743C15.1923 21.9743 17.4597 21.0916 19.1117 19.5678L15.8992 17.0769C15.0055 17.685 13.8516 18.0293 12.5073 18.0293C9.90657 18.0293 7.70144 16.2747 6.91023 13.9157H3.59521V16.4835C5.28752 19.8498 8.73441 21.9743 12.5036 21.9743Z" fill="#34A853"/>
<path d="M6.90646 13.9157C6.48888 12.6776 6.48888 11.337 6.90646 10.0989V7.53113H3.59511C2.18119 10.348 2.18119 13.6667 3.59511 16.4835L6.90646 13.9157Z" fill="#FBBC04"/>
<path d="M12.5036 5.98168C13.9249 5.9597 15.2985 6.4945 16.3278 7.47618L19.174 4.63003C17.3718 2.93772 14.9798 2.00732 12.5036 2.03662C8.73441 2.03662 5.28752 4.16116 3.59521 7.53113L6.90657 10.0989C7.69412 7.73625 9.90291 5.98168 12.5036 5.98168Z" fill="#EA4335"/>
</svg>
