<svg width="24" height="24" viewBox="0 0 24 24" fill="none" xmlns="http://www.w3.org/2000/svg">
<path fill-rule="evenodd" clip-rule="evenodd" d="M17 9.27273V14.8283C17 14.8283 15.4876 16.5455 11.5455 16.5455C7.60332 16.5455 6.09091 14.8283 6.09091 14.8283V9.27273" fill="#52ABE2"/>
<path fill-rule="evenodd" clip-rule="evenodd" d="M11.5455 2.90909L19.7273 7.45455L11.5455 12L3.36364 7.45455L11.5455 2.90909Z" fill="#52ABE2"/>
<path d="M19.2727 7.45455V16.6465C19.2727 16.8975 19.4762 17.101 19.7273 17.101C19.9783 17.101 20.1818 16.8975 20.1818 16.6465V7.45455C20.1818 7.20351 19.9783 7 19.7273 7C19.4762 7 19.2727 7.20351 19.2727 7.45455Z" fill="#154E84"/>
<path fill-rule="evenodd" clip-rule="evenodd" d="M19.7273 21.0909C18.7231 21.0909 17.9091 20.2769 17.9091 19.2727C17.9091 18.6033 18.5152 17.6942 19.7273 16.5455C20.9394 17.6942 21.5455 18.6033 21.5455 19.2727C21.5455 20.2769 20.7314 21.0909 19.7273 21.0909Z" fill="#FFC200" stroke="#154E84" stroke-width="0.909091"/>
<path d="M11.5455 16.0909C9.13644 16.0909 7.47627 15.5988 6.54546 14.6499V9.27273H5.63637V14.9999L5.74981 15.1287C6.86025 16.3895 8.79948 17 11.5455 17C14.2914 17 16.2307 16.3895 17.3411 15.1287L17.4545 14.9999V9.27273H16.5455V14.6499C15.6146 15.5988 13.9545 16.0909 11.5455 16.0909Z" fill="#154E84"/>
<path fill-rule="evenodd" clip-rule="evenodd" d="M20.6632 7.45455L11.5455 2.38911L2.42767 7.45455L11.5455 12.52L20.6632 7.45455ZM4.29961 7.45455L11.5455 3.42907L18.7913 7.45455L11.5455 11.48L4.29961 7.45455Z" fill="#154E84"/>
<path fill-rule="evenodd" clip-rule="evenodd" d="M22 19.2727C22 20.5279 20.9825 21.5455 19.7273 21.5455C18.4721 21.5455 17.4545 20.5279 17.4545 19.2727C17.4545 18.4393 18.1176 17.4447 19.4146 16.2155L19.7273 15.9192L20.0399 16.2155C21.3369 17.4447 22 18.4393 22 19.2727ZM19.7273 20.6364C20.4804 20.6364 21.0909 20.0258 21.0909 19.2727C21.0909 18.8165 20.6435 18.101 19.7273 17.1802C18.811 18.101 18.3636 18.8165 18.3636 19.2727C18.3636 20.0258 18.9742 20.6364 19.7273 20.6364Z" fill="#154E84"/>
</svg>
