<svg width="24" height="24" viewBox="0 0 24 24" fill="none" xmlns="http://www.w3.org/2000/svg">
<circle cx="12" cy="12" r="10" fill="#1F96FF"/>
<path fill-rule="evenodd" clip-rule="evenodd" d="M12 9C12.5523 9 13 8.55228 13 8C13 7.44772 12.5523 7 12 7C11.4477 7 11 7.44772 11 8C11 8.55228 11.4477 9 12 9ZM11.5459 15.7792C11.5459 15.8575 11.5646 15.9321 11.5983 16H9.68043C9.30464 16 9 16.2239 9 16.5C9 16.7761 9.30464 17 9.68043 17H14.3196C14.6954 17 15 16.7761 15 16.5C15 16.2239 14.6954 16 14.3196 16H12.8544C12.8881 15.9321 12.9068 15.8575 12.9068 15.7792V10.5727C12.9068 10.2564 12.6021 10 12.2264 10H10.6804C10.3046 10 10 10.2564 10 10.5727C10 10.889 10.3046 11.1454 10.6804 11.1454H11.5459V15.7792Z" fill="white"/>
</svg>
