<svg width="25" height="24" viewBox="0 0 25 24" fill="none" xmlns="http://www.w3.org/2000/svg">
<rect x="2.5" y="8.47772" width="4.8583" height="12.9555" fill="#0077B7"/>
<path d="M18.7813 8.62965C18.7365 8.61552 18.6941 8.60021 18.647 8.58725C18.5905 8.5743 18.534 8.5637 18.4763 8.55428C18.2525 8.50952 18.0075 8.47772 17.7201 8.47772C15.2633 8.47772 13.7051 10.2644 13.1916 10.9546V8.47772H8.97754V21.4332H13.1916V14.3666C13.1916 14.3666 16.3763 9.93109 17.7201 13.1888C17.7201 16.0967 17.7201 21.4332 17.7201 21.4332H21.933V12.6906C21.933 10.7332 20.5915 9.10194 18.7813 8.62965Z" fill="#0077B7"/>
<circle cx="4.92915" cy="4.42915" r="2.42915" fill="#0077B7"/>
</svg>
