<svg width="24" height="24" viewBox="0 0 24 24" fill="none" xmlns="http://www.w3.org/2000/svg">
<path fill-rule="evenodd" clip-rule="evenodd" d="M3.95238 4.38097H20.1429C20.4058 4.38097 20.619 4.59416 20.619 4.85716V20.0953C20.619 20.8842 19.9795 21.5238 19.1905 21.5238H4.90476C4.11578 21.5238 3.47619 20.8842 3.47619 20.0953V4.85716C3.47619 4.59416 3.68939 4.38097 3.95238 4.38097Z" fill="white"/>
<path fill-rule="evenodd" clip-rule="evenodd" d="M20.0526 3.90477H3.94737C3.42415 3.90477 3 4.32892 3 4.85214V20.01C3 21.0565 3.8483 21.9048 4.89474 21.9048H19.1053C20.1517 21.9048 21 21.0565 21 20.01V4.85214C21 4.32892 20.5758 3.90477 20.0526 3.90477ZM3.94737 20.01V4.85214H20.0526V20.01C20.0526 20.5333 19.6285 20.9574 19.1053 20.9574H4.89474C4.37152 20.9574 3.94737 20.5333 3.94737 20.01Z" fill="#154E84"/>
<path d="M7.28572 14.381H16.8095C17.0725 14.381 17.2857 14.1678 17.2857 13.9048C17.2857 13.6418 17.0725 13.4286 16.8095 13.4286H7.28572C7.02272 13.4286 6.80952 13.6418 6.80952 13.9048C6.80952 14.1678 7.02272 14.381 7.28572 14.381Z" fill="#52ABE2"/>
<path d="M7.28572 10.5714H16.8095C17.0725 10.5714 17.2857 10.3582 17.2857 10.0952C17.2857 9.83225 17.0725 9.61905 16.8095 9.61905H7.28572C7.02272 9.61905 6.80952 9.83225 6.80952 10.0952C6.80952 10.3582 7.02272 10.5714 7.28572 10.5714Z" fill="#52ABE2"/>
<path d="M7.28572 18.1905H14.9048C15.1678 18.1905 15.381 17.9773 15.381 17.7143C15.381 17.4513 15.1678 17.2381 14.9048 17.2381H7.28572C7.02272 17.2381 6.80952 17.4513 6.80952 17.7143C6.80952 17.9773 7.02272 18.1905 7.28572 18.1905Z" fill="#52ABE2"/>
<path fill-rule="evenodd" clip-rule="evenodd" d="M6.33333 2.63493V5.65081H8.23809V2.63493H6.33333Z" fill="#FFC200"/>
<path fill-rule="evenodd" clip-rule="evenodd" d="M11.0952 2.63493V5.65081H13V2.63493H11.0952Z" fill="#FFC200"/>
<path fill-rule="evenodd" clip-rule="evenodd" d="M15.8571 2.63493V5.65081H17.7619V2.63493H15.8571Z" fill="#FFC200"/>
<path fill-rule="evenodd" clip-rule="evenodd" d="M5.85714 5.6508V2.63493C5.85714 2.37193 6.07034 2.15874 6.33333 2.15874H8.2381C8.50109 2.15874 8.71429 2.37193 8.71429 2.63493V5.6508C8.71429 5.91379 8.50109 6.12699 8.2381 6.12699H6.33333C6.07034 6.12699 5.85714 5.91379 5.85714 5.6508ZM7.76191 5.17461V3.11112H6.80952V5.17461H7.76191Z" fill="#154E84"/>
<path fill-rule="evenodd" clip-rule="evenodd" d="M10.619 5.6508V2.63493C10.619 2.37193 10.8322 2.15874 11.0952 2.15874H13C13.263 2.15874 13.4762 2.37193 13.4762 2.63493V5.6508C13.4762 5.91379 13.263 6.12699 13 6.12699H11.0952C10.8322 6.12699 10.619 5.91379 10.619 5.6508ZM12.5238 5.17461V3.11112H11.5714V5.17461H12.5238Z" fill="#154E84"/>
<path fill-rule="evenodd" clip-rule="evenodd" d="M15.381 5.6508V2.63493C15.381 2.37193 15.5941 2.15874 15.8571 2.15874H17.7619C18.0249 2.15874 18.2381 2.37193 18.2381 2.63493V5.6508C18.2381 5.91379 18.0249 6.12699 17.7619 6.12699H15.8571C15.5941 6.12699 15.381 5.91379 15.381 5.6508ZM17.2857 5.17461V3.11112H16.3333V5.17461H17.2857Z" fill="#154E84"/>
</svg>
