<svg width="24" height="24" viewBox="0 0 24 24" fill="none" xmlns="http://www.w3.org/2000/svg">
<path fill-rule="evenodd" clip-rule="evenodd" d="M3.91533 2.45767H15.1426C15.2784 2.45767 15.4073 2.518 15.4942 2.62235L19.8276 7.82237C19.8961 7.90462 19.9336 8.0083 19.9336 8.11536V19.3913C19.9336 20.1496 19.3189 20.7643 18.5606 20.7643H4.83066C4.07238 20.7643 3.45766 20.1496 3.45766 19.3913V2.91534C3.45766 2.66258 3.66257 2.45767 3.91533 2.45767Z" fill="#52ABE2"/>
<path fill-rule="evenodd" clip-rule="evenodd" d="M15.1426 2H3.91533C3.40981 2 3 2.40981 3 2.91533V19.3913C3 20.4024 3.81962 21.222 4.83066 21.222H18.5606C19.5717 21.222 20.3913 20.4024 20.3913 19.3913V8.11535C20.3913 7.90123 20.3162 7.69387 20.1791 7.52937L15.8458 2.32935C15.6719 2.12066 15.4143 2 15.1426 2ZM3.91533 19.3913V2.91533H15.1426L19.476 8.11535V19.3913C19.476 19.8968 19.0662 20.3066 18.5606 20.3066H4.83066C4.32514 20.3066 3.91533 19.8968 3.91533 19.3913Z" fill="#154E84"/>
<path fill-rule="evenodd" clip-rule="evenodd" d="M3.91533 2.45767H14.8993C15.1521 2.45767 15.357 2.66258 15.357 2.91534V7.492C15.357 7.74476 15.5619 7.94966 15.8146 7.94966H19.476C19.7287 7.94966 19.9336 8.15457 19.9336 8.40733V19.3913C19.9336 20.1496 19.3189 20.7643 18.5606 20.7643H4.83066C4.07238 20.7643 3.45766 20.1496 3.45766 19.3913V2.91534C3.45766 2.66258 3.66257 2.45767 3.91533 2.45767Z" fill="white"/>
<path fill-rule="evenodd" clip-rule="evenodd" d="M13.3764 9.77185L14.2932 11.9046H13.3764L12.7652 12.5139L11.8484 10.6859" fill="#52ABE2"/>
<path fill-rule="evenodd" clip-rule="evenodd" d="M11.5429 10.6859L10.6261 12.5139L10.0149 11.9046H9.09809L10.0149 9.77185" fill="#52ABE2"/>
<path d="M13.3764 11.7562C13.3371 11.7562 13.2995 11.7717 13.2716 11.7995L12.8059 12.2638L11.9811 10.6193L11.7158 10.7524L12.6326 12.5805C12.6779 12.6709 12.7984 12.6905 12.87 12.6191L13.4378 12.053H14.2932C14.3998 12.053 14.4717 11.9439 14.4296 11.846L13.5128 9.71324L13.2401 9.83048L14.0678 11.7562H13.3764Z" fill="#154E84"/>
<path d="M10.1197 11.7995C10.0919 11.7717 10.0542 11.7562 10.0149 11.7562H9.32346L10.1512 9.83048L9.87851 9.71324L8.96172 11.846C8.91961 11.9439 8.99146 12.053 9.09809 12.053H9.95353L10.5213 12.6191C10.5929 12.6905 10.7134 12.6709 10.7587 12.5805L11.6755 10.7524L11.4102 10.6193L10.5854 12.2638L10.1197 11.7995Z" fill="#154E84"/>
<ellipse cx="11.6957" cy="8.7055" rx="1.98637" ry="1.9804" fill="white"/>
<ellipse cx="11.4558" cy="8.7806" rx="1.76395" ry="1.75864" fill="#FFC200"/>
<ellipse cx="11.6957" cy="8.7055" rx="1.98637" ry="1.9804" stroke="#154E84" stroke-width="0.5" stroke-linejoin="round"/>
<path fill-rule="evenodd" clip-rule="evenodd" d="M13.8305 8.70549C13.8305 9.88131 12.8746 10.8343 11.6957 10.8343C10.5167 10.8343 9.56085 9.88131 9.56085 8.70549C9.56085 7.52967 10.5167 6.57666 11.6957 6.57666C12.8746 6.57666 13.8305 7.52967 13.8305 8.70549ZM9.85771 8.70549C9.85771 9.71716 10.6805 10.5375 11.6957 10.5375C12.7108 10.5375 13.5336 9.71716 13.5336 8.70549C13.5336 7.69382 12.7108 6.87352 11.6957 6.87352C10.6805 6.87352 9.85771 7.69382 9.85771 8.70549Z" fill="#154E84"/>
<path fill-rule="evenodd" clip-rule="evenodd" d="M14.8993 2H3.91533C3.40981 2 3 2.40981 3 2.91533V19.3913C3 20.4024 3.81962 21.222 4.83066 21.222H18.5606C19.5717 21.222 20.3913 20.4024 20.3913 19.3913V8.40732C20.3913 7.9018 19.9815 7.49199 19.476 7.49199H15.8146V2.91533C15.8146 2.40981 15.4048 2 14.8993 2ZM3.91533 19.3913V2.91533H14.8993V7.49199C14.8993 7.99751 15.3091 8.40732 15.8146 8.40732H19.476V19.3913C19.476 19.8968 19.0662 20.3066 18.5606 20.3066H4.83066C4.32514 20.3066 3.91533 19.8968 3.91533 19.3913Z" fill="#154E84"/>
<path d="M8.60641 17.103H14.7849C15.3536 17.103 15.8146 16.8981 15.8146 16.6453C15.8146 16.3925 15.3536 16.1876 14.7849 16.1876H8.60641C8.03769 16.1876 7.57666 16.3925 7.57666 16.6453C7.57666 16.8981 8.03769 17.103 8.60641 17.103Z" fill="#FFC200"/>
</svg>
