<svg width="40" height="40" viewBox="0 0 40 40" fill="none" xmlns="http://www.w3.org/2000/svg">
<rect x="10" y="3.33337" width="20" height="33.3333" rx="3.33333" fill="#154E84"/>
<rect x="11.6667" y="6.66663" width="16.6667" height="25" rx="3.33333" fill="#52ABE2"/>
<path d="M13.3334 9.99996C13.3334 8.15901 14.8258 6.66663 16.6667 6.66663H25C26.841 6.66663 28.3334 8.15901 28.3334 9.99996V29C28.3334 29.5522 27.8857 30 27.3334 30H16.6667C14.8258 30 13.3334 28.5076 13.3334 26.6666V9.99996Z" fill="white"/>
<circle cx="20" cy="33.3333" r="0.833333" fill="#52ABE2"/>
<rect x="15" y="13.3334" width="11.6667" height="10" rx="1.66667" fill="#FFC200"/>
<path d="M20 13.4013L20.8333 22.5001C20.8333 22.5001 18.3435 25.8979 18.3333 25.8335C18.3217 25.769 18.3333 22.5001 18.3333 22.5001C18.3333 22.5001 14.7492 23.2083 15.0205 19.7556L15 15.0001C15 15.0001 15.8333 13.3335 17.0435 13.4013H20Z" fill="#FFC200"/>
<mask id="path-7-inside-1_7017_43077" fill="white">
<path fill-rule="evenodd" clip-rule="evenodd" d="M26.6667 20.5898V20.5917V21.5246C26.6631 22.5178 25.9901 23.3201 25.1624 23.3179L20.9451 23.3395L18.484 26.5697C18.4131 26.6609 18.3031 26.6911 18.2061 26.6461C18.1092 26.6011 18.0448 26.4899 18.0435 26.3652V23.3404H16.5034C15.6746 23.3404 15 22.5348 15 21.5442V15.1492C15.0036 14.1562 15.6759 13.3538 16.5034 13.3549L18.5501 13.35L19.0583 13.349L25.1624 13.3334C25.9921 13.3334 26.6667 14.139 26.6667 15.1277V20.5898ZM25.1625 22.715C25.7111 22.7161 26.157 22.1841 26.1593 21.5257V15.1287C26.157 14.4703 25.7111 13.9383 25.1625 13.9394L18.8038 13.9561L16.505 13.9619C15.9544 13.9619 15.5082 14.4944 15.5082 15.1503V21.5453C15.5105 22.2029 15.9554 22.7346 16.5034 22.7346H18.2964C18.3636 22.7344 18.4281 22.7662 18.4757 22.8232C18.5233 22.8801 18.5501 22.9574 18.5501 23.0381V25.5832L20.6457 22.8345C20.6934 22.771 20.7613 22.7347 20.8325 22.7346L25.1625 22.715Z"/>
</mask>
<path fill-rule="evenodd" clip-rule="evenodd" d="M26.6667 20.5898V20.5917V21.5246C26.6631 22.5178 25.9901 23.3201 25.1624 23.3179L20.9451 23.3395L18.484 26.5697C18.4131 26.6609 18.3031 26.6911 18.2061 26.6461C18.1092 26.6011 18.0448 26.4899 18.0435 26.3652V23.3404H16.5034C15.6746 23.3404 15 22.5348 15 21.5442V15.1492C15.0036 14.1562 15.6759 13.3538 16.5034 13.3549L18.5501 13.35L19.0583 13.349L25.1624 13.3334C25.9921 13.3334 26.6667 14.139 26.6667 15.1277V20.5898ZM25.1625 22.715C25.7111 22.7161 26.157 22.1841 26.1593 21.5257V15.1287C26.157 14.4703 25.7111 13.9383 25.1625 13.9394L18.8038 13.9561L16.505 13.9619C15.9544 13.9619 15.5082 14.4944 15.5082 15.1503V21.5453C15.5105 22.2029 15.9554 22.7346 16.5034 22.7346H18.2964C18.3636 22.7344 18.4281 22.7662 18.4757 22.8232C18.5233 22.8801 18.5501 22.9574 18.5501 23.0381V25.5832L20.6457 22.8345C20.6934 22.771 20.7613 22.7347 20.8325 22.7346L25.1625 22.715Z" fill="#154E84"/>
<path d="M26.6667 21.5246L28.3333 21.5307V21.5246H26.6667ZM25.1624 23.3179L25.1668 21.6512L25.1539 21.6513L25.1624 23.3179ZM20.9451 23.3395L20.9366 21.6728L20.1164 21.677L19.6193 22.3294L20.9451 23.3395ZM18.484 26.5697L19.7993 27.5934L19.8046 27.5866L19.8097 27.5798L18.484 26.5697ZM18.2061 26.6461L18.9082 25.1345L18.9082 25.1345L18.2061 26.6461ZM18.0435 26.3652H16.3768V26.374L16.3769 26.3828L18.0435 26.3652ZM18.0435 23.3404H19.7102V21.6738H18.0435V23.3404ZM15 15.1492L13.3333 15.1432V15.1492H15ZM16.5034 13.3549L16.5012 15.0216L16.5074 15.0216L16.5034 13.3549ZM18.5501 13.35L18.5469 11.6834L18.5461 11.6834L18.5501 13.35ZM19.0583 13.349L19.0615 15.0157L19.0626 15.0157L19.0583 13.349ZM25.1624 13.3334V11.6667L25.1582 11.6667L25.1624 13.3334ZM26.1593 21.5257L27.826 21.5314V21.5257H26.1593ZM25.1625 22.715L25.1658 21.0483L25.1549 21.0484L25.1625 22.715ZM26.1593 15.1287H27.826L27.8259 15.1231L26.1593 15.1287ZM25.1625 13.9394L25.1592 12.2728L25.1581 12.2728L25.1625 13.9394ZM18.8038 13.9561L18.8081 15.6227L18.8082 15.6227L18.8038 13.9561ZM16.505 13.9619V15.6286L16.5093 15.6286L16.505 13.9619ZM15.5082 21.5453H13.8415L13.8416 21.551L15.5082 21.5453ZM16.5034 22.7346V21.068H16.5034L16.5034 22.7346ZM18.2964 22.7346V24.4013L18.3029 24.4013L18.2964 22.7346ZM18.5501 23.0381L16.8834 23.0381V23.0381H18.5501ZM18.5501 25.5832H16.8834V30.5181L19.8755 26.5936L18.5501 25.5832ZM20.6457 22.8345L21.9712 23.845L21.9778 23.8361L20.6457 22.8345ZM20.8325 22.7346L20.8352 24.4013L20.8401 24.4013L20.8325 22.7346ZM28.3333 20.5917V20.5898H25V20.5917H28.3333ZM28.3333 21.5246V20.5917H25V21.5246H28.3333ZM25.1581 24.9846C27.1768 24.9899 28.3275 23.1467 28.3333 21.5307L25 21.5186C24.9995 21.6461 24.9555 21.7129 24.9467 21.7234C24.9437 21.7269 24.9571 21.7096 24.9964 21.6898C25.0386 21.6685 25.0986 21.6511 25.1668 21.6513L25.1581 24.9846ZM20.9536 25.0061L25.171 24.9846L25.1539 21.6513L20.9366 21.6728L20.9536 25.0061ZM19.8097 27.5798L22.2708 24.3495L19.6193 22.3294L17.1583 25.5597L19.8097 27.5798ZM17.5041 28.1577C18.383 28.5659 19.3065 28.2266 19.7993 27.5934L17.1687 25.5461C17.5197 25.0952 18.2231 24.8163 18.9082 25.1345L17.5041 28.1577ZM16.3769 26.3828C16.3836 27.0173 16.7134 27.7905 17.5041 28.1577L18.9082 25.1345C19.505 25.4117 19.706 25.9625 19.7101 26.3476L16.3769 26.3828ZM16.3768 23.3404V26.3652H19.7102V23.3404H16.3768ZM16.5034 25.0071H18.0435V21.6738H16.5034V25.0071ZM13.3333 21.5442C13.3333 23.1654 14.4888 25.0071 16.5034 25.0071V21.6738C16.5715 21.6738 16.6306 21.6913 16.6715 21.712C16.7097 21.7314 16.7223 21.748 16.7189 21.744C16.7092 21.7324 16.6667 21.6666 16.6667 21.5442H13.3333ZM13.3333 15.1492V21.5442H16.6667V15.1492H13.3333ZM16.5056 11.6882C14.4884 11.6856 13.3392 13.5276 13.3333 15.1432L16.6667 15.1552C16.6671 15.0275 16.7112 14.9604 16.7202 14.9497C16.7233 14.9461 16.71 14.9633 16.671 14.983C16.629 15.0042 16.5693 15.0217 16.5012 15.0216L16.5056 11.6882ZM18.5461 11.6834L16.4994 11.6882L16.5074 15.0216L18.5541 15.0167L18.5461 11.6834ZM19.0551 11.6824L18.5469 11.6834L18.5533 15.0167L19.0615 15.0157L19.0551 11.6824ZM25.1582 11.6667L19.054 11.6824L19.0626 15.0157L25.1667 15L25.1582 11.6667ZM28.3333 15.1277C28.3333 13.5065 27.1762 11.6667 25.1624 11.6667V15C25.0949 15 25.0361 14.9826 24.9954 14.962C24.9574 14.9428 24.9449 14.9263 24.9483 14.9303C24.9579 14.9418 25 15.007 25 15.1277H28.3333ZM28.3333 20.5898V15.1277H25V20.5898H28.3333ZM24.4926 21.52C24.4928 21.4802 24.5057 21.3959 24.5884 21.2971C24.6743 21.1947 24.8714 21.0478 25.1658 21.0484L25.1592 24.3817C26.8984 24.3851 27.8216 22.8126 27.8259 21.5314L24.4926 21.52ZM24.4926 15.1287V21.5257H27.826V15.1287H24.4926ZM25.1658 15.6061C24.8714 15.6067 24.6743 15.4598 24.5884 15.3574C24.5057 15.2586 24.4928 15.1742 24.4926 15.1344L27.8259 15.1231C27.8216 13.8419 26.8984 12.2693 25.1592 12.2728L25.1658 15.6061ZM18.8082 15.6227L25.1668 15.6061L25.1581 12.2728L18.7994 12.2894L18.8082 15.6227ZM16.5093 15.6286L18.8081 15.6227L18.7995 12.2894L16.5008 12.2953L16.5093 15.6286ZM17.1749 15.1503C17.1749 15.195 17.1605 15.2818 17.0772 15.3811C16.991 15.4839 16.7955 15.6286 16.505 15.6286V12.2953C14.7711 12.2953 13.8416 13.8609 13.8416 15.1503H17.1749ZM17.1749 21.5453V15.1503H13.8416V21.5453H17.1749ZM16.5034 21.068C16.7973 21.068 16.9938 21.2148 17.0794 21.317C17.1619 21.4156 17.1747 21.4998 17.1749 21.5396L13.8416 21.551C13.8459 22.831 14.7669 24.4013 16.5034 24.4013L16.5034 21.068ZM18.2964 21.068H16.5034V24.4013H18.2964V21.068ZM19.7544 21.7541C19.4262 21.3616 18.9088 21.0656 18.29 21.068L18.3029 24.4013C17.8184 24.4032 17.4301 24.1708 17.1971 23.8922L19.7544 21.7541ZM20.2168 23.0381C20.2168 22.603 20.0751 22.1377 19.7544 21.7541L17.1971 23.8922C16.9716 23.6225 16.8834 23.3118 16.8834 23.0381L20.2168 23.0381ZM20.2168 25.5832V23.0381H16.8834V25.5832H20.2168ZM19.3203 21.824L17.2247 24.5727L19.8755 26.5936L21.9711 23.845L19.3203 21.824ZM20.8298 21.068C20.1704 21.069 19.6342 21.4065 19.3136 21.8328L21.9778 23.8361C21.7527 24.1355 21.3522 24.4004 20.8352 24.4013L20.8298 21.068ZM25.1549 21.0484L20.825 21.068L20.8401 24.4013L25.17 24.3817L25.1549 21.0484Z" fill="#154E84" mask="url(#path-7-inside-1_7017_43077)"/>
<path fill-rule="evenodd" clip-rule="evenodd" d="M20.0001 18.332V18.3387C20.0001 18.7973 20.3596 19.1667 20.8253 19.1667C21.29 19.1667 21.6667 18.7936 21.6667 18.3333C21.6667 17.8731 21.29 17.5 20.8253 17.5C20.6039 17.5 20.3917 17.5881 20.2365 17.7446C20.0813 17.901 19.9962 18.1127 20.0001 18.332ZM18.3253 17.5C18.1039 17.5 17.8917 17.5881 17.7365 17.7446C17.5813 17.901 17.4962 18.1127 17.5001 18.332V18.3387C17.5001 18.7973 17.8596 19.1667 18.3253 19.1667C18.79 19.1667 19.1667 18.7936 19.1667 18.3333C19.1667 17.8731 18.79 17.5 18.3253 17.5ZM22.7365 17.7446C22.8917 17.5881 23.1039 17.5 23.3253 17.5C23.79 17.5 24.1667 17.8731 24.1667 18.3333C24.1667 18.7936 23.79 19.1667 23.3253 19.1667C22.8596 19.1667 22.5001 18.7973 22.5001 18.3387V18.332C22.4962 18.1127 22.5813 17.901 22.7365 17.7446Z" fill="white"/>
</svg>
