<svg width="24" height="24" viewBox="0 0 24 24" fill="none" xmlns="http://www.w3.org/2000/svg">
<path d="M20.1381 14.0384L18.4233 4.34861C18.383 4.12116 18.1854 3.9554 17.9544 3.9554H16.7975C16.5345 3.9554 16.3213 3.7422 16.3213 3.47921C16.3213 3.21622 16.5345 3.00302 16.7975 3.00302L17.9544 3.00302C18.6473 3.00302 19.2403 3.5003 19.3611 4.18264L21.0759 13.8724C21.1218 14.1314 20.949 14.3785 20.69 14.4243C20.4311 14.4701 20.184 14.2974 20.1381 14.0384Z" fill="#154E84"/>
<path d="M18.6496 5.62722L18.4233 4.34861C18.383 4.12116 18.1854 3.9554 17.9544 3.9554H16.7975C16.5345 3.9554 16.3213 3.7422 16.3213 3.47921C16.3213 3.21622 16.5345 3.00302 16.7975 3.00302H17.9544C18.6473 3.00302 19.2403 3.5003 19.3611 4.18264L19.5874 5.46125C19.6332 5.72022 19.4604 5.96731 19.2015 6.01314C18.9425 6.05897 18.6954 5.88619 18.6496 5.62722Z" fill="#FFC200"/>
<circle cx="6.28571" cy="16.8095" r="3.80952" fill="white"/>
<path d="M3.89748 14.0354L5.61233 4.34559C5.65258 4.11814 5.85026 3.95238 6.08124 3.95238H7.2381C7.50109 3.95238 7.71429 3.73918 7.71429 3.47619C7.71429 3.2132 7.50109 3 7.2381 3H6.08124C5.3883 3 4.79528 3.49728 4.67452 4.17962L2.95967 13.8694C2.91384 14.1284 3.08662 14.3755 3.34559 14.4213C3.60456 14.4671 3.85164 14.2943 3.89748 14.0354Z" fill="#154E84"/>
<path d="M5.39306 5.58458L5.61233 4.34559C5.65258 4.11814 5.85025 3.95238 6.08123 3.95238H7.23809C7.50109 3.95238 7.71428 3.73918 7.71428 3.47619C7.71428 3.2132 7.50109 3 7.23809 3H6.08123C5.3883 3 4.79528 3.49728 4.67452 4.17962L4.45525 5.41861C4.40942 5.67758 4.5822 5.92467 4.84117 5.9705C5.10014 6.01633 5.34723 5.84355 5.39306 5.58458Z" fill="#FFC200"/>
<circle cx="17.7143" cy="16.8095" r="3.80952" fill="white"/>
<path fill-rule="evenodd" clip-rule="evenodd" d="M6.76191 20.5522C6.53054 20.5961 6.29176 20.619 6.04762 20.619C3.94368 20.619 2.2381 18.9135 2.2381 16.8095C2.2381 14.7056 3.94368 13 6.04762 13C6.29176 13 6.53054 13.023 6.76191 13.0669C4.99939 13.4012 3.66667 14.9497 3.66667 16.8095C3.66667 18.6693 4.99939 20.2179 6.76191 20.5522Z" fill="#52ABE2"/>
<path fill-rule="evenodd" clip-rule="evenodd" d="M18.1905 20.5522C17.9591 20.5961 17.7203 20.619 17.4762 20.619C15.3722 20.619 13.6667 18.9135 13.6667 16.8095C13.6667 14.7056 15.3722 13 17.4762 13C17.7203 13 17.9591 13.023 18.1905 13.0669C16.428 13.4012 15.0952 14.9497 15.0952 16.8095C15.0952 18.6693 16.428 20.2179 18.1905 20.5522Z" fill="#52ABE2"/>
<path d="M14.7117 14.5622C13.2122 13.1142 10.7878 13.1142 9.28826 14.5622C9.09908 14.7449 9.09381 15.0464 9.2765 15.2355C9.45919 15.4247 9.76066 15.43 9.94984 15.2473C11.0803 14.1557 12.9197 14.1557 14.0502 15.2473C14.2393 15.43 14.5408 15.4247 14.7235 15.2355C14.9062 15.0464 14.9009 14.7449 14.7117 14.5622Z" fill="#154E84"/>
<path fill-rule="evenodd" clip-rule="evenodd" d="M10.5714 16.8095C10.5714 19.1765 8.65265 21.0952 6.28571 21.0952C3.91878 21.0952 2 19.1765 2 16.8095C2 14.4426 3.91878 12.5238 6.28571 12.5238C8.65265 12.5238 10.5714 14.4426 10.5714 16.8095ZM2.95238 16.8095C2.95238 18.6505 4.44477 20.1429 6.28571 20.1429C8.12666 20.1429 9.61905 18.6505 9.61905 16.8095C9.61905 14.9686 8.12666 13.4762 6.28571 13.4762C4.44477 13.4762 2.95238 14.9686 2.95238 16.8095Z" fill="#154E84"/>
<path fill-rule="evenodd" clip-rule="evenodd" d="M22 16.8095C22 19.1765 20.0812 21.0952 17.7143 21.0952C15.3474 21.0952 13.4286 19.1765 13.4286 16.8095C13.4286 14.4426 15.3474 12.5238 17.7143 12.5238C20.0812 12.5238 22 14.4426 22 16.8095ZM14.381 16.8095C14.381 18.6505 15.8733 20.1429 17.7143 20.1429C19.5552 20.1429 21.0476 18.6505 21.0476 16.8095C21.0476 14.9686 19.5552 13.4762 17.7143 13.4762C15.8733 13.4762 14.381 14.9686 14.381 16.8095Z" fill="#154E84"/>
</svg>
