<svg width="24" height="24" viewBox="0 0 24 24" fill="none" xmlns="http://www.w3.org/2000/svg">
<path fill-rule="evenodd" clip-rule="evenodd" d="M14.81 11.905C14.81 13.5095 13.509 14.81 11.9045 14.81C10.3005 14.81 9 13.5095 9 11.905C9 10.301 10.3005 9 11.9045 9C13.509 9 14.81 10.301 14.81 11.905Z" stroke="#1D62AE" stroke-width="1.7" stroke-linecap="round" stroke-linejoin="round"/>
<path fill-rule="evenodd" clip-rule="evenodd" d="M21 13.695V10.305H18.2755C18.128 9.758 17.9135 9.24 17.637 8.7605L19.5625 6.8345L17.1655 4.4375L15.2395 6.363C14.76 6.0865 14.2415 5.8685 13.6955 5.72V3H10.305V5.72C9.759 5.8685 9.2405 6.0865 8.7605 6.363L6.835 4.4375L4.4375 6.8345L6.3635 8.7605C6.087 9.24 5.872 9.758 5.725 10.305H3V13.695H5.725C5.872 14.242 6.087 14.76 6.3635 15.2395L4.4375 17.1655L6.835 19.5625L8.7605 17.637C9.2405 17.9135 9.759 18.1315 10.305 18.28V21H13.6955V18.28C14.2415 18.1315 14.76 17.9135 15.2395 17.637L17.1655 19.5625L19.5625 17.1655L17.637 15.2395C17.9135 14.76 18.128 14.242 18.2755 13.695H21Z" stroke="#1D62AE" stroke-width="1.6" stroke-linecap="round" stroke-linejoin="round"/>
</svg>
