<svg width="24" height="24" viewBox="0 0 24 24" fill="none" xmlns="http://www.w3.org/2000/svg">
<path fill-rule="evenodd" clip-rule="evenodd" d="M16 4.99976C16 6.10448 15.1048 7 14 7C12.8952 7 12 6.10448 12 4.99976C12 3.89505 12.8952 3 14 3C15.1048 3 16 3.89505 16 4.99976Z" stroke="#1D62AE" stroke-width="2" stroke-linecap="round" stroke-linejoin="round"/>
<path fill-rule="evenodd" clip-rule="evenodd" d="M21 19C21 20.1045 20.1047 21 19 21C17.8953 21 17 20.1045 17 19C17 17.8955 17.8953 17 19 17C20.1047 17 21 17.8955 21 19Z" stroke="#1D62AE" stroke-width="1.96364" stroke-linecap="round" stroke-linejoin="round"/>
<path fill-rule="evenodd" clip-rule="evenodd" d="M7 13.3553C7 14.4598 6.10464 15.3555 5 15.3555C3.89536 15.3555 3 14.4598 3 13.3553C3 12.2507 3.89536 11.3555 5 11.3555C6.10464 11.3555 7 12.2507 7 13.3553Z" stroke="#1D62AE" stroke-width="2" stroke-linecap="round" stroke-linejoin="round"/>
<path d="M7 12L12 7" stroke="#1D62AE" stroke-width="2" stroke-linecap="round" stroke-linejoin="round"/>
<path d="M7 15L17 19" stroke="#1D62AE" stroke-width="2" stroke-linecap="round" stroke-linejoin="round"/>
</svg>
