<svg width="24" height="24" viewBox="0 0 24 24" fill="none" xmlns="http://www.w3.org/2000/svg">
<path fill-rule="evenodd" clip-rule="evenodd" d="M3.72794 6.76838H20.2721C20.7797 6.76838 21.1912 7.17989 21.1912 7.6875V17.7978C21.1912 18.813 20.3682 19.636 19.3529 19.636H4.64706C3.63183 19.636 2.80882 18.813 2.80882 17.7978V7.6875C2.80882 7.17989 3.22033 6.76838 3.72794 6.76838Z" fill="white"/>
<path fill-rule="evenodd" clip-rule="evenodd" d="M20.2721 6.30883H3.72794C2.96652 6.30883 2.34927 6.92608 2.34927 7.6875V17.7978C2.34927 19.0668 3.37802 20.0956 4.64706 20.0956H19.3529C20.622 20.0956 21.6507 19.0668 21.6507 17.7978V7.6875C21.6507 6.92608 21.0335 6.30883 20.2721 6.30883ZM3.26838 7.6875C3.26838 7.4337 3.47414 7.22794 3.72794 7.22794H20.2721C20.5259 7.22794 20.7316 7.4337 20.7316 7.6875V17.7978C20.7316 18.5592 20.1144 19.1765 19.3529 19.1765H4.64706C3.88564 19.1765 3.26838 18.5592 3.26838 17.7978V7.6875Z" fill="#1D62AE"/>
<path fill-rule="evenodd" clip-rule="evenodd" d="M3.72794 6.76838H20.2721C20.7797 6.76838 21.1912 7.17989 21.1912 7.6875V10.4449C21.1912 11.4601 20.3682 12.2831 19.3529 12.2831H4.64706C3.63183 12.2831 2.80882 11.4601 2.80882 10.4449V7.6875C2.80882 7.17989 3.22033 6.76838 3.72794 6.76838Z" fill="#84B3E6"/>
<path fill-rule="evenodd" clip-rule="evenodd" d="M20.2721 6.30883H3.72794C2.96652 6.30883 2.34927 6.92608 2.34927 7.6875V10.4449C2.34927 11.7139 3.37802 12.7427 4.64706 12.7427H19.3529C20.622 12.7427 21.6507 11.7139 21.6507 10.4449V7.6875C21.6507 6.92608 21.0335 6.30883 20.2721 6.30883ZM3.26838 7.6875C3.26838 7.4337 3.47414 7.22794 3.72794 7.22794H20.2721C20.5259 7.22794 20.7316 7.4337 20.7316 7.6875V10.4449C20.7316 11.2063 20.1144 11.8235 19.3529 11.8235H4.64706C3.88564 11.8235 3.26838 11.2063 3.26838 10.4449V7.6875Z" fill="#1D62AE"/>
<path fill-rule="evenodd" clip-rule="evenodd" d="M10.1618 12.2831H14.2978V14.1213C14.2978 14.6289 13.8863 15.0404 13.3787 15.0404H11.0809C10.5733 15.0404 10.1618 14.6289 10.1618 14.1213V12.2831Z" fill="#FFA800"/>
<path fill-rule="evenodd" clip-rule="evenodd" d="M10.1618 11.8235C9.90796 11.8235 9.70221 12.0293 9.70221 12.2831V14.1213C9.70221 14.8827 10.3195 15.5 11.0809 15.5H13.3787C14.1401 15.5 14.7574 14.8827 14.7574 14.1213V12.2831C14.7574 12.0293 14.5516 11.8235 14.2978 11.8235H10.1618ZM10.6213 14.1213V12.7426H13.8382V14.1213C13.8382 14.3751 13.6325 14.5809 13.3787 14.5809H11.0809C10.8271 14.5809 10.6213 14.3751 10.6213 14.1213Z" fill="#1D62AE"/>
<path fill-rule="evenodd" clip-rule="evenodd" d="M7.86397 5.38971V7.22794H16.136V5.38971C16.136 4.37448 15.313 3.55147 14.2978 3.55147H9.70221C8.68698 3.55147 7.86397 4.37448 7.86397 5.38971ZM15.2169 6.30882H8.78309V5.38971C8.78309 4.88209 9.19459 4.47059 9.70221 4.47059H14.2978C14.8054 4.47059 15.2169 4.88209 15.2169 5.38971V6.30882Z" fill="#1D62AE"/>
</svg>
