<svg width="155" height="156" viewBox="0 0 155 156" fill="none" xmlns="http://www.w3.org/2000/svg">
<g id="Principle/Logo/Karir/White-Single">
<rect width="103" height="104" transform="scale(1.5)" fill="black"/>
<g id="logo">
<path id="Fill 1" fill-rule="evenodd" clip-rule="evenodd" d="M154.178 51.7184V97.5004C154.178 100.684 152.59 102.31 149.415 102.317C137.38 102.325 125.339 102.325 113.304 102.31C110.22 102.31 108.533 100.577 108.533 97.4472C108.526 83.3388 108.533 69.2304 108.533 55.1221C108.533 49.6595 105.441 46.5598 99.9177 46.5598C85.8169 46.5446 71.7161 46.5522 57.6077 46.5522C54.3485 46.5522 52.7226 44.9415 52.7226 41.6898C52.7226 29.7467 52.7226 17.8112 52.7226 5.87569C52.7226 2.74556 54.4016 1.02855 57.5166 1.02855C88.1873 1.01335 118.858 1.01335 149.521 1.02855C152.598 1.02855 154.178 2.68478 154.178 5.79212V51.7184Z" fill="white"/>
<path id="Fill 13" fill-rule="evenodd" clip-rule="evenodd" d="M76.7502 104.96C76.7502 112.61 76.7502 120.268 76.7426 127.919C76.7426 130.403 75.7017 131.452 73.2554 131.452C67.2914 131.452 61.3198 131.459 55.3483 131.452C52.9323 131.452 51.8611 130.358 51.8611 127.904C51.8535 120.96 51.8611 114.031 51.8535 107.102C51.8535 104.306 50.7215 103.189 47.8952 103.189H27.2379C24.594 103.189 23.5456 102.164 23.538 99.5578V81.9394C23.5456 79.4702 24.6776 78.3002 27.1543 78.2926C42.5087 78.2851 57.8706 78.2851 73.225 78.3002C75.6258 78.3002 76.7426 79.4551 76.7426 81.8482C76.7502 89.552 76.7502 97.2482 76.7502 104.96Z" fill="white"/>
<path id="Fill 15" fill-rule="evenodd" clip-rule="evenodd" d="M0.383349 142.227C0.383349 139.15 0.375752 136.066 0.383349 132.989C0.398544 130.945 1.53056 129.737 3.57426 129.729C9.72056 129.714 15.8821 129.714 22.0435 129.729C24.0645 129.737 25.2572 130.96 25.2648 132.973C25.28 139.135 25.28 145.289 25.2648 151.45C25.2572 153.41 24.0796 154.596 22.1195 154.603C15.92 154.626 9.72056 154.626 3.51348 154.603C1.52296 154.603 0.398544 153.448 0.390946 151.458C0.368154 148.381 0.383349 145.304 0.383349 142.227Z" fill="white"/>
</g>
</g>
</svg>
